<?xml version="1.0" encoding="utf-8"?>
<!-- Generator: Adobe Illustrator 19.2.1, SVG Export Plug-In . SVG Version: 6.00 Build 0)  -->
<svg version="1.1" id="Layer_1" xmlns="http://www.w3.org/2000/svg" xmlns:xlink="http://www.w3.org/1999/xlink" x="0px" y="0px"
	 viewBox="0 0 3356.3 1026" style="enable-background:new 0 0 3356.3 1026;" xml:space="preserve">
<style type="text/css">
	.st0{fill:none;stroke:#861719;stroke-width:5;stroke-miterlimit:10;}
</style>
<path class="st0" d="M0.1,558.8c29.9-1.3,59.9,2.7,90.9-0.3c9-1,20-2,25,7c5,12,10,23,12,36c1,11,4,21,7,31c1,3,3,6,6,5c1,0,3-3,3-5
	c1-9,2-18,2-27c4-48-1-94,8-143h2c6,15,5,33,6,49c1,8,2,16,2,24c1,5,1,9,2,14c3,49,7,97,12,146c0,5,2,8,3,13c1,2,3,6,4,5
	c7-3,6-14,8-22c2-15,4-30,5-45c0-8,1-15,1-23c1-5,1-9,2-14c2-24,1-48,10-70c0,0,1-1,2-1s1,1,2,2c3,5,4,10,5,16c7,41,8,79,14,120
	c1,6,2,13,6,18h2c6-21,6-43,7-64c14-190,18-378,34-568c1-20,1-41,8-60c1,0,2,1,2,1c2,6,2,13,3,19c4,46,6,92,7,138
	c5,142,10,282,14,424c2,68,4,136,8,205c4,65,4,129,15,195c1,5,2,9,4,13c1,1,2,2,3,1c11-15,8-34,12-52c0-3,0-7,0-10
	c12-137,10-272,18-408c1-9,1-18,4-27h2c7,7,6,16,8,25c6,34,6,66,11,100c2,8,2,17,8,24c1,0,2,0,3,0c11-15,7-33,9-50c2-8,2-17,2-25
	c1-5,1-10,2-15c0-3,0-6,0-9c3-20,3-40,10-59c1-2,2-5,5-7c1,0,2-1,3-1c8,3,7,14,8,21c9,67,2,133,11,200c1,6,2,12,5,18c1,1,2,2,3,3
	c2,1,4,0,5-1c8-19,6-40,10-61c0-3,0-7,0-10c5-40,5-79,7-119c8-132,10-263,17-395c2-38,4-76,8-114c1-7,3-14,5-21c0-1,1-2,2-2s2,0,2,0
	c4,8,3,17,5,26c0,3,0,6,0,9c1,5,1,9,2,14c4,38,4,76,5,114c11,269,11,537,26,806c1,11,3,22,4,33c1,4,3,8,3,13c0,1,2,2,3,2s2-1,2-1
	c6-11,6-22,8-34c1-11,2-21,3-31c9-128,9-255,16-383c1-11,1-22,3-34c2-9,0-19,7-26c1,0,3,1,4,2c10,15,9,31,11,47c2,28,1,55,7,83
	c1,4,2,8,5,11c1,0,3,2,4,1c8-7,7-18,8-28c5-38,3-75,6-113c1-7,2-13,3-20c1-4,3-7,6-10c7,7,6,17,7,26c11,75,7,146,20,222c1,2,2,4,3,6
	c1,0,2,1,2,1c8-7,6-18,7-27c8-60,4-118,9-177c1-4,1-9,4-13s7-1,10,2c7,11,11,23,20,32c1,1,4,2,5,2c129,4,257,3,386.3,3.2"/>
<path class="st0" d="M2215.1,561.8c29.9-1.3,59.9,2.7,90.9-0.3c9-1,20-2,25,7c5,12,10,23,12,36c1,11,4,21,7,31c1,3,3,6,6,5
	c1,0,3-3,3-5c1-9,2-18,2-27c4-48-1-94,8-143h2c6,15,5,33,6,49c1,8,2,16,2,24c1,5,1,9,2,14c3,49,7,97,12,146c0,5,2,8,3,13
	c1,2,3,6,4,5c7-3,6-14,8-22c2-15,4-30,5-45c0-8,1-15,1-23c1-5,1-9,2-14c2-24,1-48,10-70c0,0,1-1,2-1s1,1,2,2c3,5,4,10,5,16
	c7,41,8,79,14,120c1,6,2,13,6,18h2c6-21,6-43,7-64c14-190,18-378,34-568c1-20,1-41,8-60c1,0,2,1,2,1c2,6,2,13,3,19c4,46,6,92,7,138
	c5,142,10,282,14,424c2,68,4,136,8,205c4,65,4,129,15,195c1,5,2,9,4,13c1,1,2,2,3,1c11-15,8-34,12-52c0-3,0-7,0-10
	c12-137,10-272,18-408c1-9,1-18,4-27h2c7,7,6,16,8,25c6,34,6,66,11,100c2,8,2,17,8,24c1,0,2,0,3,0c11-15,7-33,9-50c2-8,2-17,2-25
	c1-5,1-10,2-15c0-3,0-6,0-9c3-20,3-40,10-59c1-2,2-5,5-7c1,0,2-1,3-1c8,3,7,14,8,21c9,67,2,133,11,200c1,6,2,12,5,18c1,1,2,2,3,3
	c2,1,4,0,5-1c8-19,6-40,10-61c0-3,0-7,0-10c5-40,5-79,7-119c8-132,10-263,17-395c2-38,4-76,8-114c1-7,3-14,5-21c0-1,1-2,2-2s2,0,2,0
	c4,8,3,17,5,26c0,3,0,6,0,9c1,5,1,9,2,14c4,38,4,76,5,114c11,269,11,537,26,806c1,11,3,22,4,33c1,4,3,8,3,13c0,1,2,2,3,2s2-1,2-1
	c6-11,6-22,8-34c1-11,2-21,3-31c9-128,9-255,16-383c1-11,1-22,3-34c2-9,0-19,7-26c1,0,3,1,4,2c10,15,9,31,11,47c2,28,1,55,7,83
	c1,4,2,8,5,11c1,0,3,2,4,1c8-7,7-18,8-28c5-38,3-75,6-113c1-7,2-13,3-20c1-4,3-7,6-10c7,7,6,17,7,26c11,75,7,146,20,222c1,2,2,4,3,6
	c1,0,2,1,2,1c8-7,6-18,7-27c8-60,4-118,9-177c1-4,1-9,4-13s7-1,10,2c7,11,11,23,20,32c1,1,4,2,5,2c129,4,257,3,386.3,3.2"/>
<path class="st0" d="M1102.9,561.5c35.1,0,71.1,0,106.1,1c12,0,13,14,17,23c3,7,3,14,5,21c1,6,2,12,3,18c1,5,3,9,5,14c1,1,3,4,4,3
	c5-7,3-17,3-25c4-49,1-97,8-146c0-2,3-3,2-5c1,0,2,0,2,0c7,12,5,27,7,40c5,58,8,115,13,174c2,11,3,22,6,34c0,2,2,4,3,4
	c8-4,7-16,8-24c3-16,5-32,6-48c0-8,1-15,1-23c1-5,1-10,2-15c0-3,0-7,0-10c2-16,3-31,6-47c1-3,2-6,4-9c1,0,2,0,3,0c7,12,7,26,9,39
	c3,25,5,50,8,75c1,14,2,28,8,41c0,1,1,2,2,1c6-13,5-29,6-43c14-181,19-360,31-541c1-5,1-10,2-15c2-29,3-57,8-86c1-2,2-5,3-7
	c2,2,3,4,3,6c2,13,3,26,4,39c11,212,14,422,23,633c3,83,5,165,12,248c2,23,3,46,10,68c1,1,2,2,3,2c8-5,7-16,9-24c5-33,6-64,8-97
	c6-117,6-234,15-351c0-9,0-18,4-26c7,7,7,18,9,27c7,39,5,75,14,114c1,2,2,4,3,6c1,1,2,3,4,3c1-1,2-2,3-3c2-5,3-11,4-16
	c4-35,6-70,9-105c0-3,1-5,2-8c0-2,0-3,0-5c3-10,3-22,12-29c1-1,3,0,4,1c5,6,6,14,7,22c6,65,2,128,10,193c1,9-1,21,10,26c2,0,3-2,4-4
	c3-10,4-20,6-30c4-35,6-69,8-103c9-171,11-341,23-513c1-22,1-45,7-67c1-2,2-5,4-7c7,8,5,20,6,30c4,29,5,57,6,86
	c12,282,11,563,27,845c1,15,3,29,5,44c1,4,1,8,3,11c1,1,2,2,3,2c8-8,7-20,9-30c4-23,4-46,6-69c7-114,7-227,14-341c1-23,1-45,8-67
	c1-1,2-3,3-2c8,5,9,15,11,24c0,2,0,3,0,5c1,3,2,5,2,8c2,31,2,60,7,91c1,6,3,12,8,16c9-3,8-15,9-23c7-47,2-92,10-139c1-3,3-6,5-9
	c9,7,8,22,9,33c0,3,2,6,2,9c5,64,7,127,14,191c1,6,2,12,4,18c1,1,2,2,3,3c1,0,2,0,2,0c6-7,5-17,6-25c8-63,3-123,10-186c1-3,2-6,3-9
	c1-1,3-2,4-1c3,6,3,12,3,18c1,10,7,22,18,22c122,1,245,1,367.1,1.7"/>
</svg>
