<?xml version="1.0" encoding="utf-8"?>
<!-- Generator: Adobe Illustrator 19.2.1, SVG Export Plug-In . SVG Version: 6.00 Build 0)  -->
<svg version="1.1" id="Layer_1" xmlns="http://www.w3.org/2000/svg" xmlns:xlink="http://www.w3.org/1999/xlink" x="0px" y="0px"
	 viewBox="0 0 4889 2974.5" style="enable-background:new 0 0 4889 2974.5;" xml:space="preserve">
<style type="text/css">
	.st0{fill:none;stroke:#861719;stroke-width:4;stroke-miterlimit:10;}
</style>
<path class="st0" d="M3845.7,3003c0,0,1-368,1-416s50-92,41.5-132s-171.5-12-179.5-68s256-56,254.5-112s-170.5-16-170.5-80
	s136-28,143.3-100c7.3-72-278.7-62.3-288.7-136s801.4-92,797.4-172s-590-74-594-162c-9.4-51.7,334-48,332.5-124s-191,11.6-206.5-100
	s331.5-38.4,320-98c-11.5-59.6-610.6-50.4-608-124s949-104.5,949-188s-885-124-885-168s160-56,156-100s-172-44-176-92
	s251.5-22.6,252-104S2500,462.3,2500,88s1-88,1-88"/>
</svg>
