<?xml version="1.0" encoding="utf-8"?>
<!-- Generator: Adobe Illustrator 19.2.1, SVG Export Plug-In . SVG Version: 6.00 Build 0)  -->
<svg version="1.1" id="Layer_1" xmlns="http://www.w3.org/2000/svg" xmlns:xlink="http://www.w3.org/1999/xlink" x="0px" y="0px"
	 viewBox="0 0 1857 2974.5" style="enable-background:new 0 0 1857 2974.5;" xml:space="preserve">
<style type="text/css">
	.st0{fill:none;stroke:#861719;stroke-width:5;stroke-miterlimit:10;}
</style>
<path class="st0" d="M928.5,0c0,0-0.5,86.6,0,106.5c-0.7,62.2-155.5,50.2-155.5,78.7s381.2,71.7,382,105.6S705,306.3,705,353
	s750,84.1,750,131.4S447.6,501.1,447.6,544.9s666.7,39,666.7,69.9S763,656.5,763,684.1s165.1,20.4,165,75s-2,1002.1-2,1002.1"/>
<path class="st0" d="M925.5,1746.9c-0.5,86.6-0.5,86.2,0,106.5c0.5,20-79.5,1.8-79.5,34s259,4.7,259,30.1s-335,37.6-335,74.5
	s712,54.3,712,87.6c0,33.3-718,49.5-718,78.9s375,9.4,376.5,31.7S864,2215,868,2240.8s610,7,614,30.5s-1017.4,24.6-1017.4,50.5
	c0,25.8,508.7,12.7,508.7,39.9s-226.1,21.2-227.3,55.7s351.5,10.5,351.5,40s-169.1,8.1-169.5,34.7s-2,483.1-2,483.1"/>
</svg>
