<?xml version="1.0" encoding="utf-8"?>
<!-- Generator: Adobe Illustrator 19.2.1, SVG Export Plug-In . SVG Version: 6.00 Build 0)  -->
<svg version="1.1" id="Layer_1" xmlns="http://www.w3.org/2000/svg" xmlns:xlink="http://www.w3.org/1999/xlink" x="0px" y="0px"
	 viewBox="0 0 1857 2974.5" style="enable-background:new 0 0 1857 2974.5;" xml:space="preserve">
<style type="text/css">
	.st0{fill:none;stroke:#861719;stroke-width:5;stroke-miterlimit:10;}
</style>
<path class="st0" d="M928.5,0c0,0-0.5,86.6,0,106.5S845,130,849,140.6s172,4.7,176,14.1s-256,16.4-252,30.5c4,14.1,172,14.1,176,27
	s-156,16.4-156,29.3s692,32.9,692,49.3c0,16.4-992,28.2-996,55.2s504,22.3,498,36.4c-6,14.1-150,14.1-150,29.3
	c0,15.3,165,9.4,166.5,31.7S757,448.1,761,473.9s720,27,724,50.5c4,23.5-1017.4,24.6-1017.4,50.5c0,25.8,516,18.8,508.7,39.9
	C969,635.9,833,625.3,833,644.1c0,18.8,169,7,170.5,23.5C1005,684,741,684,749,700.4c8,16.4,209,8.2,217.5,20
	c8.5,11.7-38.5,20-38.5,38.7c0,18.8-2,1002.1-2,1002.1"/>
<path class="st0" d="M925.5,1746.9c-0.5,86.6-0.5,86.2,0,106.5c0.5,20-83.5,23.5-79.5,34c2.7,7.1,170.5,1.3,176,14.1
	c4,9.4-256,16.4-252,30.5s172,14.1,176,27c4,12.9-156,16.4-156,29.3c0,12.9,692,32.9,692,49.3s-992,28.2-996,55.2
	c-4,27,504,22.3,498,36.4c-6,14.1-150,14.1-150,29.3s165,9.4,166.5,31.7S754,2195,758,2220.8c4,25.8,720,27,724,50.5
	c4,23.5-1017.4,24.6-1017.4,50.5c0,25.8,516,18.8,508.7,39.9C966,2382.8,830,2372.2,830,2391s169,7,170.5,23.5
	c1.5,16.4-262.5,16.4-254.5,32.9s212,8.2,220.5,20c8.5,11.7-38.1-1.9-38.5,24.7s-2,483.1-2,483.1"/>
</svg>
