<?xml version="1.0" encoding="utf-8"?>
<!-- Generator: Adobe Illustrator 19.2.1, SVG Export Plug-In . SVG Version: 6.00 Build 0)  -->
<svg version="1.1" id="Layer_1" xmlns="http://www.w3.org/2000/svg" xmlns:xlink="http://www.w3.org/1999/xlink" x="0px" y="0px"
	 viewBox="0 0 1857 2974.5" style="enable-background:new 0 0 1857 2974.5;" xml:space="preserve">
<style type="text/css">
	.st0{fill:none;stroke:#861719;stroke-width:5;stroke-miterlimit:10;}
</style>
<path class="st0" d="M924.2-1C922,19.5,931,42.5,920,61.5c-11,10-25,11-38,18c-2,1,0,3-2,4c9,12,27,13,40,18c21,8,43,13,64,23
	c2,1,3,2,4,4c1,1,1,3,1,4s-1,2-2,3c-5,3-11,3-16,4c-30,4-58,4-88,8c-6,1-12,2-18,6c-2,2-5,4-4,7c0,2,2,3,3,4c24,11,49,16,75,19
	c13,2,25,6,38,7c6,1,11,3,17,4c2,0,3,0,5,0c23,5,44,8,66,16c3,1,6,4,9,6c1,1,1,2,1,3s-1,2-1,2c-8,5-16,5-25,7c-3,0-6,0-9,0
	c-5,1-9,1-14,2c-74,5-147,2-222,9c-5,1-10,2-15,5c-1,1-1,3-1,4s1,2,1,2c19,9,40,10,60,11c38,4,74,6,112,10c5,1,10,3,15,5
	c1,0,2,2,2,2c-9,13-26,11-40,14c-8,2-14,4-22,5c-12,1-24,3-35,8c-1,1-3,2-3,4c-1,2,1,5,3,6c10,4,22,7,32,11c1,1,3,2,5,3c2,2,4,4,5,7
	c1,2,2,4,2,6c0,70,0,140-0.6,210.2"/>
</svg>
