<?xml version="1.0" encoding="utf-8"?>
<!-- Generator: Adobe Illustrator 19.2.1, SVG Export Plug-In . SVG Version: 6.00 Build 0)  -->
<svg version="1.1" id="Layer_1" xmlns="http://www.w3.org/2000/svg" xmlns:xlink="http://www.w3.org/1999/xlink" x="0px" y="0px"
	 viewBox="0 0 1857 2974.5" style="enable-background:new 0 0 1857 2974.5;" xml:space="preserve">
<style type="text/css">
	.st0{fill:none;stroke:#861719;stroke-width:5;stroke-miterlimit:10;}
</style>
<path class="st0" d="M923.4-1c0.6,17.5,1.6,34.5,0.6,52.5c-9,14-26,15-41,18c-19,3-36,4-55,8c-5,1-12,0-14,7c11,5,22,6,34,9
	c22,4,43,6,65,9c44,5,85,10,129,16c15,3,30,4,44,11l1,2c-7,7-19,5-28,6c-84,7-166,5-249,11c-9,1-18,2-27,3c-4,1-7,2-11,3
	c-2,1-4,2-6,3c0,1-1,2-1,2c6,9,18,6,27,8c40,8,77,9,116,13c8,0,17,1,25,1c5,1,9,1,14,2c23,2,46,3,69,5c18,1,36,2,54,3c5,1,10,1,15,2
	c72,6,140,7,213,22c2,0,3,2,4,3c0,1-1,2-1,2c-19,6-40,6-60,7c-31,2-63,3-94,3c-148,3-296,2-444,7c-41,1-81-2-122,8c0,0-1,1-1,2
	c22,10,48,7,72,11c128,7,256,6,385,15c7,1,14,0,20,4c1,0,2,1,1,2c-9,6-19,5-29,7c-20,3-40,4-60,6c-18,1-35,2-53,3c-5,1-10,1-15,2
	c-22,1-44,3-67,5c-8,1-15,2-23,4c-2,1-5,2-4,3c3,9,15,7,23,8c31,6,62,4,90,19c2,1,4,3,4,4c1,41,0,83,0.1,124.4"/>
</svg>
