<?xml version="1.0" encoding="utf-8"?>
<!-- Generator: Adobe Illustrator 19.2.1, SVG Export Plug-In . SVG Version: 6.00 Build 0)  -->
<svg version="1.1" id="Layer_1" xmlns="http://www.w3.org/2000/svg" xmlns:xlink="http://www.w3.org/1999/xlink" x="0px" y="0px"
	 viewBox="0 0 1857 2974.5" style="enable-background:new 0 0 1857 2974.5;" xml:space="preserve">
<style type="text/css">
	.st0{fill:none;stroke:#861719;stroke-width:5;stroke-miterlimit:10;}
</style>
<path class="st0" d="M926.5,0c0,0,1.5,86.6,2,106.5c-0.7,62.2-155.5,50.2-155.5,78.7s381.2,71.7,382,105.6S705,306.3,705,353
	s750,84.1,750,131.4S447.6,501.1,447.6,544.9s666.7,39,666.7,69.9S763,656.5,763,684.1s165.1,20.4,165,75s-2,1002.1-2,1002.1"/>
<path class="st0" d="M925.5,1746.9c-0.5,86.6,0,63,0,106.5s179.5,38.7,179.5,64.1s-335,37.6-335,74.5s712,54.3,712,87.6
	s-869.8,21.1-864,61.2s860,107,864,130.5s-1017.4-10.6-1017.4,50.5s806.1,21.7,808.7,69.9c2.6,48.2-577.3,36.2-577.3,85.7
	s232.4,72.1,232,98.7s-2,399.1-2,399.1"/>
</svg>
