<?xml version="1.0" encoding="utf-8"?>
<!-- Generator: Adobe Illustrator 19.2.1, SVG Export Plug-In . SVG Version: 6.00 Build 0)  -->
<svg version="1.1" id="Layer_1" xmlns="http://www.w3.org/2000/svg" xmlns:xlink="http://www.w3.org/1999/xlink" x="0px" y="0px"
	 viewBox="0 0 1863 2952" style="enable-background:new 0 0 1863 2952;" xml:space="preserve">
<style type="text/css">
	.st0{fill:none;stroke:#861719;stroke-width:5;stroke-miterlimit:10;}
</style>
<path class="st0" d="M926.6,1867.5c0,0,1.1-1240.2-2.3-1284.1c-3.5-43.9,347.9-26.4,347.9-61.7s-709.4-41.5-710.4-72.6
	s739.7-23.6,739.7-65.9s-869.7-14.7-869.7-71.3s1025-14.7,1025-56s-532.7,4.4-531-78.4S927,69.1,927,52.9c0-16.3,1.7-55.9,1.7-55.9"
	/>
<path class="st0" d="M927.6,2962c0,0-0.9-573.3-4.3-612.7c-3.5-39.4,347.9-23.7,347.9-55.4c0-31.6-709.4-37.2-710.4-65.2
	s739.7-21.2,739.7-59.2s-869.7-13.2-869.7-64s1025-13.2,1025-50.3c0-37.1-532.7,4-531-70.4s1.2-97.5,1.2-112c0-14.6,1.7,3.8,1.7,3.8
	"/>
</svg>
