<?xml version="1.0" encoding="utf-8"?>
<!-- Generator: Adobe Illustrator 19.2.1, SVG Export Plug-In . SVG Version: 6.00 Build 0)  -->
<svg version="1.1" id="Layer_1" xmlns="http://www.w3.org/2000/svg" xmlns:xlink="http://www.w3.org/1999/xlink" x="0px" y="0px"
	 viewBox="0 0 379.2 358.7" style="enable-background:new 0 0 379.2 358.7;" xml:space="preserve">
<style type="text/css">
	.st0{fill:#F69CA4;}
	.st1{fill:#FCFDFB;}
	.st2{fill:#666565;}
	.st3{fill:#FCFAFA;}
	.st4{fill:#5B5C5C;}
	.st5{fill:#545453;}
</style>
<g>
	<path class="st0" d="M63.3,324.9c-2.3,4.8-6.4,6.9-11.3,7.9c-0.5,0.1-1.2,0.2-1.7,0.1c-3.5-1-7.1-2.2-9.8-4.7
		c-2.5-2.4-4.2-5.4-3.4-9.2c0.6-2.6,0.9-5.2,2-7.6c0.7-1.5,1.6-2.7,3.1-3.5c3.1-1.8,6.1-3.5,9.4-4.8c2-0.7,3.9-0.7,5.6,0.2
		c2.4,1.3,4.7,2.8,6.9,4.4c1.4,1,2.2,2.5,2.5,4.3c0.5,3.4,0.2,6.6-1.6,9.6C64.5,322.7,63.9,323.8,63.3,324.9z M46.8,308.6
		c-1.8,0.5-2.8,2.1-3.7,3.4c-3.2,4.6-2.6,9,2,12.2c3.5,2.4,7.4,2.7,11.5,2.2c2.4-0.3,4-1.7,5.2-3.6c1.1-1.7,1.5-3.8,3-5.3
		c0.3-0.3,0.3-1.1,0.3-1.6c0-1-0.1-2.1-0.1-3.1c-0.1-1.6-0.8-2.8-2.1-3.7c-0.8-0.5-1.5-1.1-2.3-1.5c-2.9-1.6-6-2.1-9.3-1.4
		c-1.1,0.2-2.2,0.6-2.8,1.7c0.7,0.8,1.7,1.1,1.8,2.4c0.1,1.4,1,2.5,2.6,3c0.9-0.6,2-1.2,2.7-2c0.4-0.5,0.3-1.4,0.5-2.4
		c1.6,1.1,3.4,1.7,3.4,4.1c-1.8,0.5-3.7,0.5-5.1,2.2c0.5,1.7,2.5,2.9,2.3,5.2c-2.4-0.7-2.7-3.6-5.1-4.1c-1.9,0.6-3.8,1.6-5.4,3.2
		c-0.4,0.4-1.1,0.4-1.5-0.1s-0.5-1.1,0-1.5c1-0.7,2-1.5,3.1-2c0.8-0.4,1.6-0.8,2.2-1.7c-0.6-0.9-1.3-1.7-1.8-2.5
		C47.7,310.6,47.3,309.6,46.8,308.6z M55.3,328.6c-1-0.1-2-0.1-3-0.2c-4.4-0.2-8.3-1.6-11.2-5.1c-0.2-0.3-0.5-0.8-1.1-0.2
		c1.1,3.3,3.6,5.2,6.7,6.3C49.6,330.5,52.6,331.1,55.3,328.6z"/>
	<path class="st0" d="M24.8,319.2c-1.2,1.5-2.4,3-3.6,4.5c-2.2,2.7-5,2.9-8.1,2c-5.4-1.5-9.1-5.1-11.9-9.7c-1.1-1.8-1.4-3.9-0.8-5.9
		c0.7-2.5,1.9-4.7,4-6.3c0.7-0.6,1.5-1.1,2.2-1.7c1.6-1.3,3.4-1.9,5.4-1.9c2.7,0,5.5,0.1,8.2,0.3c2.1,0.1,3.7,1.4,4.6,3.2
		c1.3,2.6,2.3,5.2,2.5,8.2C27.3,314.6,26.3,317,24.8,319.2z M10.8,303c0.4,2.1,1.6,3.5,2.8,4.8c0.2,0.2,0.6,0.3,0.9,0.4
		c0.7-0.6,1.4-1.2,2.1-1.7c1.3,1.1,1.4,1.4,0.9,2.2c-0.4,0.5-0.8,1-1.2,1.5c0.6,1.3,1.5,2.1,2.4,3c1,0.9,1.2,1.7,0.7,1.9
		c-1,0.5-1.4-0.3-2-0.9c-0.4-0.4-0.7-0.9-1.2-1.3c-0.9-0.7-1.8-1.4-2.7-2.1c-1.1,0.7-2,1.3-3,2c-1.5-2.4,1.4-2.5,1.8-4
		c-0.6-0.7-1.4-1.4-2-2.2c-0.6-0.8-1.2-1.6-1.8-2.4c-4.5,4.4-4.1,10,0.8,13.5c2.8,2,5.9,2.9,9.4,2.3c1.7-0.3,3.3-0.7,4.1-2.6
		c0.2-0.5,0.8-0.8,1.1-1.2c0.4-0.6,1-1.3,1.2-2c0.8-3.3-0.1-6.3-1.9-9.1c-0.2-0.3-0.5-0.6-0.7-0.7c-2.3-0.8-4.5-1.8-6.8-2.2
		C14.2,301.9,12.3,301.7,10.8,303z M2.5,310.2c-0.3,1.3-0.6,1.9-0.5,2.3c0.2,0.9,0.6,1.7,1,2.5c1.2,2.4,3.2,4.1,5.2,5.8
		c2.2,1.9,4.7,2.7,7.5,3c1.3,0.1,2.5-0.2,3.6-0.8c0.4-0.2,0.8-0.5,0.1-1.1c-3.8,1.5-7.3,0.1-10.6-1.8C5.6,317.9,4,314.5,2.5,310.2z"
		/>
	<path class="st0" d="M82.8,343.9c-2.3-1.4-4.1-2.7-5.4-4.8c-1-1.6-1.4-3.3-0.9-5.2c0.7-3.1,2-5.8,4.6-7.8c2.5-1.9,5.5-2.7,8.6-3
		c2.5-0.2,4.6,1.2,6.5,2.7c2.2,1.8,3.5,4.2,4.6,6.7c0.9,2,1,4.2,0.3,6.4c-0.5,1.5-1.1,3-1.9,4.4c-1.3,2.4-3.2,3.7-6.1,3.6
		C89.2,346.7,85.6,346.1,82.8,343.9z M87.9,340.9c0.6,0.2,1.8,0.9,3,1.1c6.6,0.9,9.3-4,8-8.6c-0.6-2.2-1.8-3.9-3.3-5.5
		c-0.3-0.3-0.8-0.7-1.1-0.7c-1,0.1-1.7-0.5-2.5-1c-1.8-1-3.1-0.8-4.6,0.7c-0.6,0.6-1.2,0.9-1.9,1.3c-1.9,0.8-2.7,2.4-2.6,4.4
		C83.1,336,84.5,338.7,87.9,340.9z M86.4,343.8c0.1-0.2,0.2-0.3,0.3-0.5c-1.1-1.1-2.3-2.2-3.3-3.4c-1-1.3-1.9-2.6-2.4-4.1
		c-0.5-1.4-0.6-3-0.9-4.6c-0.4,0.3-0.7,0.4-0.8,0.5c-1.7,4-1.5,5.9,1.8,8.8C82.7,341.9,84.6,342.8,86.4,343.8z M89.3,344.4
		c-0.1-0.1-0.1-0.2-0.2-0.2c0,0-0.1,0.1-0.2,0.1c0.1,0.1,0.1,0.2,0.2,0.2C89.1,344.5,89.2,344.4,89.3,344.4z M92.1,344.5l0.1,0.2
		l0.1-0.1L92.1,344.5z"/>
	<path class="st0" d="M126.7,313.8c0,0.4,0,1.3,0,2.2c0,5.2-3.8,9.2-9.7,9.3c-2.1,0-4.4-0.2-6.4-0.8c-2.3-0.6-4.4-2-5.9-3.9
		c-1.7-2-2.9-4.4-3.6-6.9c-0.7-2.4-0.1-4.5,1.5-6.3c3.6-3.9,8.1-5.4,13.3-4.1c2,0.5,4,1.7,5.8,2.7c1.3,0.7,2,2.1,2.7,3.5
		C125,310.8,125.8,312.1,126.7,313.8z M111.7,316.7c2.6,1.8,5.7,2.3,8.8,2.6c2.1,0.2,4.6-2.1,4-4.4c-0.4-1.4-0.7-2.9-1.3-4.2
		c-1.2-2.6-3.3-4.2-6.1-4.2c-1.8,0-3.5,0.2-5.4-0.5c-1.6-0.6-4.3,0.7-5.1,2.1c-1,1.7-0.1,3.1,0.7,4.5c0.3,0.6,0.8,1.1,1.3,1.6
		C109.5,315,110.6,315.8,111.7,316.7z M103.4,311.6c0,4.4,2,7.8,5.6,9.9c3.4,1.9,7.2,2.1,11,1c0.1,0,0.1-0.2,0.4-0.6
		c-3.5-0.5-6.8-1.2-9.7-3.2C107.9,316.9,105.3,314.7,103.4,311.6z"/>
	<path class="st0" d="M67.4,304.4c-2.4-1.3-4.4-3.2-5.5-6c-0.7-1.7-0.9-3.4,0.1-4.9c1.2-1.8,2.2-3.9,5-4.2c4.5-0.4,8.6,0.2,11.9,3.6
		c0.6,0.7,1.3,1.3,1.9,2c2.4,2.7,2.8,6.7,1.3,9.9c-0.7,1.5-1.8,2.3-3.5,2.4c-0.2,0-0.5,0-0.7,0C73.9,308,70.7,306.6,67.4,304.4z
		 M71.6,299.8c1.7,1.1,3.6,1,5.4,1.2c1.1,0.1,2.2-0.2,2.6-1.2s0.7-2.1-0.2-3.2c-1.6-2-3.3-3.7-6.1-4c-0.8-0.1-1.5-0.5-2.2-0.7
		c-0.6-0.2-1.3-0.4-2-0.3c-2.1,0.2-3.1,2.5-1.8,4C68.6,297,70.2,298.3,71.6,299.8z M79.6,303.2c-1,0-1.8,0-2.6,0
		c-1.3-0.1-2.7-0.2-4-0.6c-3.5-0.9-5.7-3.6-8-6.1c-0.3-0.3-0.7-0.7-1.2-1.1c-0.2,1.5-0.1,2.6,0.7,3.5c2.3,3,5.3,5,8.9,5.9
		c1.9,0.5,3.8,0.1,5.7-0.6C79.3,304.2,79.3,303.9,79.6,303.2z"/>
	<path class="st0" d="M79.3,349.6c-0.2,1.1-0.4,2-0.6,3.1c-0.5,0.3-1,0.6-1.5,0.7c-1.5,0.4-2.7,1.2-3.8,2.3
		c-1.5,1.6-3.1,2.1-5.2,1.6c-1.9-0.4-3.8-0.3-5.7,0.4c-1.2,0.5-2.7,0.7-4,0.9c-1.3,0.2-2.2-0.5-2.8-1.6c-1.2-2.6-1.8-5.4-1.6-8.3
		c0.3-3.4,3.1-6.8,6.5-7.5c2.5-0.6,5-0.5,7.4,0.6c1.2,0.5,2.3,1.1,3.4,1.7c0.6,0.3,1.1,0.8,1.7,1.2
		C75.1,346.3,77.2,347.9,79.3,349.6z M65.7,354.4c-0.6-0.1-1.1-0.3-1.7-0.4c-0.6,0.4-1.1,0.7-1.9,1.2c1.2,0.1,1.8-0.2,1.9-1.2
		C64.6,354.1,65.2,354.2,65.7,354.4c0.6,0.3,1.1,0.7,1.7,1.1c0.8-0.8,1.7-0.2,2.6-0.3c1.5-0.3,2.6-1,3.5-2.8c-1,0.6-1.5,1.1-2.1,1.3
		c-0.6,0.2-1.3,0.2-2,0.3c-1,0.1-1.7,0.5-2,1.5C67.2,354.6,66.6,354.3,65.7,354.4z M56.5,351.5c2.2,1.2,4.3,1,6.3,0.6
		c1-0.2,2.1-0.1,3.1-0.3c1.5-0.2,3-0.2,4.4-0.7c1.7-0.7,3.4-1.2,5.3-1c0.4,0,0.9,0,1-0.8c-1.3-1.4-3.3-2.2-4.8-3.6
		c-2-1.8-4.4-2.5-6.9-2.8c-1.7-0.2-3.5-0.3-5,0.8C57.2,345.6,55.6,348,56.5,351.5z"/>
	<path class="st0" d="M27.7,351.7c-1.4-1.2-2.8-2.3-4.1-3.6c-0.8-0.8-1.4-1.9-1.7-2.9c-0.6-2.8-0.7-5.6,0.5-8.4
		c1.6-3.8,4.6-6,8.8-5.9c1.5,0,3,0.3,4.4,0.6c2,0.4,3.6,1.4,4.8,3.1s2.6,3.2,3.8,4.9c0.9,1.1,1.1,2.5,1,3.9
		c-0.1,3.1-1.4,5.7-3.4,8.1c-0.2,0.3-0.5,0.5-0.8,0.7c-4.2,2-8.5,3-12.6-0.1C28.2,352,28,351.9,27.7,351.7
		C27.8,351.6,27.8,351.7,27.7,351.7z M29,349.8C29.1,349.8,29.1,349.8,29,349.8c0.4,0.2,0.8,0.4,1.2,0.6c3.1,2,6.3,1.7,9.5,0.2
		c3.4-1.7,5-6.7,3.1-10.1c-0.8-1.5-1.5-3.1-3.1-4c-0.3-0.2-0.7-0.7-0.7-1.1c-0.1-1.3-1.1-1.8-2-2.1c-1.5-0.4-3.1-0.7-4.7-0.7
		c-3.5-0.1-6.7,1.9-7.8,5c-1.3,3.5-1.3,6.9,1.6,9.8C27,348.4,28.1,349.1,29,349.8z"/>
	<path class="st1" d="M46.8,308.6c0.5,1,0.9,2,1.5,2.9c0.5,0.9,1.2,1.7,1.8,2.5c-0.6,0.9-1.4,1.3-2.2,1.7c-1.1,0.6-2.1,1.3-3.1,2
		c-0.5,0.4-0.5,1,0,1.5s1.1,0.5,1.5,0.1c1.6-1.6,3.5-2.6,5.4-3.2c2.4,0.5,2.7,3.4,5.1,4.1c0.2-2.3-1.8-3.5-2.3-5.2
		c1.3-1.7,3.3-1.7,5.1-2.2c0-2.4-1.8-3-3.4-4.1c-0.2,1-0.1,1.9-0.5,2.4c-0.7,0.8-1.8,1.4-2.7,2c-1.6-0.6-2.5-1.7-2.6-3
		c-0.1-1.2-1.1-1.6-1.8-2.4c0.6-1.1,1.7-1.5,2.8-1.7c3.3-0.7,6.4-0.2,9.3,1.4c0.8,0.4,1.5,1,2.3,1.5c1.3,0.9,2,2.1,2.1,3.7
		c0,1,0.1,2.1,0.1,3.1c0,0.6,0,1.3-0.3,1.6c-1.5,1.5-1.9,3.6-3,5.3c-1.2,1.9-2.8,3.3-5.2,3.6c-4.1,0.5-8,0.3-11.5-2.2
		c-4.6-3.2-5.2-7.6-2-12.2C44,310.6,44.9,309.1,46.8,308.6z"/>
	<path class="st1" d="M55.3,328.6c-2.7,2.5-5.7,1.9-8.7,0.8c-3.1-1.2-5.6-3.1-6.7-6.3c0.6-0.6,0.9-0.1,1.1,0.2
		c2.9,3.5,6.8,4.9,11.2,5.1C53.3,328.5,54.3,328.5,55.3,328.6z"/>
	<path class="st1" d="M10.8,303c1.6-1.3,3.4-1.1,5-0.8c2.3,0.5,4.5,1.4,6.8,2.2c0.3,0.1,0.6,0.4,0.7,0.7c1.7,2.8,2.7,5.8,1.9,9.1
		c-0.2,0.7-0.7,1.4-1.2,2c-0.3,0.5-0.9,0.8-1.1,1.2c-0.8,1.9-2.4,2.3-4.1,2.6c-3.5,0.6-6.6-0.3-9.4-2.3c-4.9-3.5-5.3-9-0.8-13.5
		c0.6,0.8,1.2,1.6,1.8,2.4c0.7,0.8,1.4,1.5,2,2.2c-0.3,1.5-3.3,1.6-1.8,4c1-0.7,1.9-1.3,3-2c1,0.7,1.9,1.4,2.7,2.1
		c0.4,0.4,0.8,0.9,1.2,1.3c0.5,0.6,1,1.4,2,0.9c0.5-0.3,0.3-1-0.7-1.9c-0.9-0.9-1.9-1.7-2.4-3c0.4-0.5,0.9-1,1.2-1.5
		c0.5-0.8,0.4-1.1-0.9-2.2c-0.7,0.5-1.4,1.1-2.1,1.7c-0.3-0.1-0.7-0.2-0.9-0.4C12.3,306.5,11.2,305.1,10.8,303z"/>
	<path class="st1" d="M2.5,310.2c1.5,4.3,3.1,7.7,6.4,9.8c3.3,2,6.8,3.3,10.6,1.8c0.6,0.6,0.2,0.9-0.1,1.1c-1.1,0.6-2.3,1-3.6,0.8
		c-2.8-0.3-5.3-1.1-7.5-3c-2-1.7-4-3.4-5.2-5.8c-0.4-0.8-0.8-1.6-1-2.5C1.9,312,2.2,311.5,2.5,310.2z"/>
	<path class="st1" d="M87.9,340.9c-3.4-2.2-4.8-4.9-5.1-8.3c-0.1-2,0.7-3.6,2.6-4.4c0.7-0.3,1.3-0.7,1.9-1.3
		c1.5-1.5,2.8-1.7,4.6-0.7c0.8,0.5,1.4,1,2.5,1c0.4,0,0.8,0.3,1.1,0.7c1.5,1.6,2.7,3.3,3.3,5.5c1.4,4.6-1.4,9.5-8,8.6
		C89.7,341.8,88.5,341.1,87.9,340.9z"/>
	<path class="st1" d="M86.4,343.8c-1.7-1.1-3.7-2-5.2-3.3c-3.3-2.8-3.5-4.8-1.8-8.8c0.1-0.2,0.4-0.3,0.8-0.5
		c0.3,1.6,0.4,3.2,0.9,4.6c0.6,1.5,1.5,2.9,2.4,4.1c1,1.2,2.2,2.3,3.3,3.4C86.6,343.5,86.5,343.7,86.4,343.8z"/>
	<path class="st1" d="M89.3,344.4c-0.1,0-0.2,0.1-0.2,0.1c-0.1,0-0.1-0.1-0.2-0.2c0.1,0,0.2-0.1,0.2-0.1
		C89.2,344.2,89.2,344.3,89.3,344.4z"/>
	<polygon class="st1" points="92.1,344.5 92.3,344.6 92.2,344.7 	"/>
	<path class="st1" d="M111.7,316.7c-1.1-0.9-2.1-1.7-3.1-2.6c-0.5-0.5-1-1-1.3-1.6c-0.8-1.4-1.7-2.8-0.7-4.5
		c0.8-1.4,3.5-2.7,5.1-2.1c1.8,0.7,3.5,0.5,5.4,0.5c2.9,0,5,1.6,6.1,4.2c0.6,1.3,0.9,2.8,1.3,4.2c0.6,2.4-1.9,4.7-4,4.4
		C117.4,319,114.3,318.5,111.7,316.7z"/>
	<path class="st1" d="M103.4,311.6c1.9,3,4.4,5.2,7.3,7.2c2.9,1.9,6.2,2.7,9.7,3.2c-0.3,0.4-0.3,0.6-0.4,0.6c-3.8,1.1-7.6,0.9-11-1
		C105.4,319.5,103.4,316,103.4,311.6z"/>
	<path class="st1" d="M71.6,299.8c-1.5-1.4-3-2.8-4.4-4.3c-1.3-1.5-0.2-3.8,1.8-4c0.6-0.1,1.3,0.1,2,0.3c0.8,0.2,1.5,0.7,2.2,0.7
		c2.8,0.3,4.5,2,6.1,4c0.9,1.1,0.7,2.2,0.2,3.2c-0.4,1-1.5,1.3-2.6,1.2C75.2,300.8,73.3,300.9,71.6,299.8z"/>
	<path class="st1" d="M79.6,303.2c-0.3,0.6-0.3,0.9-0.5,1c-1.8,0.7-3.7,1.1-5.7,0.6c-3.7-0.9-6.7-2.8-8.9-5.9
		c-0.7-1-0.9-2.1-0.7-3.5c0.5,0.5,0.8,0.8,1.2,1.1c2.3,2.5,4.5,5.2,8,6.1c1.3,0.3,2.7,0.4,4,0.6C77.8,303.3,78.6,303.2,79.6,303.2z"
		/>
	<path class="st1" d="M56.5,351.5c-0.9-3.5,0.7-6,3.4-7.9c1.5-1.1,3.3-1,5-0.8c2.5,0.4,4.9,1,6.9,2.8c1.5,1.4,3.4,2.2,4.8,3.6
		c-0.1,0.8-0.6,0.9-1,0.8c-1.9-0.2-3.6,0.3-5.3,1c-1.3,0.6-2.9,0.6-4.4,0.7c-1,0.1-2.1,0.1-3.1,0.3
		C60.7,352.5,58.7,352.7,56.5,351.5z"/>
	<path class="st1" d="M67.5,355.5c0.3-1,0.9-1.5,2-1.5c0.7,0,1.4-0.1,2-0.3c0.6-0.2,1.1-0.7,2.1-1.3c-0.9,1.8-2,2.5-3.5,2.8
		C69.2,355.3,68.2,354.7,67.5,355.5L67.5,355.5z"/>
	<path class="st1" d="M64,354c-0.1,1-0.7,1.3-1.9,1.2C62.9,354.7,63.5,354.3,64,354C64.1,354,64,354,64,354z"/>
	<path class="st1" d="M65.7,354.3c-0.6-0.1-1.1-0.2-1.7-0.3l0,0c0.6,0.1,1.1,0.3,1.7,0.4V354.3z"/>
	<path class="st1" d="M65.7,354.4c0.9-0.1,1.5,0.2,1.7,1.1l0,0C66.9,355.1,66.3,354.7,65.7,354.4C65.7,354.3,65.7,354.4,65.7,354.4z
		"/>
	<path class="st1" d="M29,349.8c-1-0.8-2.1-1.4-2.9-2.3c-2.9-2.8-3-6.3-1.6-9.8c1.2-3.1,4.3-5.1,7.8-5c1.6,0,3.2,0.3,4.7,0.7
		c1,0.2,1.9,0.8,2,2.1c0,0.4,0.4,0.9,0.7,1.1c1.6,0.9,2.3,2.5,3.1,4c1.9,3.4,0.3,8.4-3.1,10.1c-3.1,1.5-6.3,1.8-9.5-0.2
		C29.9,350.2,29.5,350,29,349.8C29.1,349.8,29.1,349.8,29,349.8z M32.9,340.7c-0.6-0.6-0.5-1.8-1.9-1.3c0,0.7,0.2,1.4,0.1,2.2
		c-0.1,0.8-0.4,1.7-0.6,2.8c0.7-0.2,1.4-0.4,2-0.4c0.8,0,1.5,0.1,2.4,0.2c0-0.7,0-1.4,0-2c0.8-0.3,1.6-0.6,2.3-0.9
		c0.2-0.1,0.4-0.6,0.3-0.9c0-0.5-0.5-0.8-1-0.7C35.3,340,34.2,340.4,32.9,340.7z"/>
	<path class="st0" d="M32.9,340.7c1.3-0.4,2.4-0.7,3.5-0.9c0.5-0.1,0.9,0.1,1,0.7c0,0.3-0.1,0.7-0.3,0.9c-0.7,0.4-1.5,0.6-2.3,0.9
		c0,0.6,0,1.2,0,2c-0.9-0.1-1.6-0.3-2.4-0.2c-0.6,0-1.2,0.2-2,0.4c0.2-1.1,0.5-1.9,0.6-2.8c0.1-0.7-0.1-1.5-0.1-2.2
		C32.4,338.9,32.3,340.1,32.9,340.7z"/>
</g>
<g>
	<g>
		<g>
			<g>
				<path class="st2" d="M137.4,101.7c-0.5-0.9-0.8-1.8-1.4-2.7c-3-4.4-4-9.3-4.4-14.6c-0.6-6.8-1.3-13.7-3.3-20.4
					c-1.5-5.2-1.9-10.9-2.2-16.4c-0.6-10.7-1.5-21.4-3.6-31.9c-0.3-1.7-0.2-3.4-0.1-5.1c0.2-2.2,1.4-3.8,3.4-4.9
					c2.1-1.2,4.3-2.2,6.3-3.6c2.7-2,5.7-2.5,8.9-2c3.1,0.4,6.1,0.8,9.2,0.7c3.1-0.1,6.2,0.7,9.1,1.8c7.7,2.8,15.6,4.6,23.5,6.5
					c5.9,1.4,11.6,3.3,17.4,5.1c5.5,1.6,10.9,3.2,16.4,5c6.7,2.2,13.4,4.5,20.4,6c0.8,0.2,1.7,0.4,2.5,0.7
					c8.8,4.2,18.4,6.1,27.4,9.6c4.2,1.6,8.5,2.9,12.9,3.7c6.5,1.3,12.6,3.8,18.9,5.7c4.8,1.4,9.6,3,14.3,4.6
					c5.1,1.7,10.1,3.5,15.2,5.3c1.5,0.5,2.9,1.1,4.4,1.3c4.1,0.6,7.8,2.5,11.6,3.9c3.7,1.4,7.2,3.3,10.7,4.9c4.8,2.1,8.2,5.7,12,8.9
					c2.4,2,4,4.9,4.3,8.1c0.6,6.4,1.9,12.6,2.2,19c0.3,6.7,1.6,13.4,2.4,20.1c0.4,3.3,0.9,6.5,1.2,9.8c0.6,6.9,1,13.8,1.4,20.7
					c0.2,3.4,0.6,6.9,0.8,10.3c0.1,3.4,0.2,6.9,0.1,10.3c-0.1,3.2-1.6,6-3,8.7c-1.1,2.1-3.4,2.2-5.1,3.3c-0.1,1.7,1.4,2.3,2.3,3.2
					c2.3,2,3.1,4.6,2.7,7.5c-0.6,4.6-1.1,9.3-2.5,13.8c-1.2,3.8-1.9,7.7-2.5,11.6c-0.9,6.4-3.8,11.8-7.6,16.8
					c-4.9,6.5-10.1,12.8-15.2,19.1c-1.3,1.6-2.8,3-4.3,4.5c-4.5,4.3-8.9,8.7-13.4,12.9c-4.8,4.4-9.8,8.7-14.8,13
					c-4.5,3.8-9,7.6-13.5,11.4c-5.1,4.3-10.2,8.7-15.4,13c-1.1,0.9-2.3,1.6-3.5,2.3c-1.8,1.1-3.4,2.2-4.8,3.8c-1.7,2-4,3.3-6.9,2.5
					c-0.8-0.2-1.7-0.2-2.6-0.2c-9,0.2-17.4-2.4-25.5-5.9c-2-0.9-4.3-1.1-6.5-1.6c-1.7-0.4-3.4-0.7-5-1.2
					c-10.8-3.7-21.6-7.3-32.4-11.1c-5.5-2-10.9-4.2-16.4-6.4c-1.6-0.6-3.2-1.3-4.9-1.7c-14.7-4.2-28.6-10.2-42.6-16.2
					c-11.1-4.8-22.2-9.5-33.6-13.4c-12.3-4.3-24.2-9.3-35.7-15.3c-5.9-3.2-11.4-7.1-17.1-10.8c-3.2-2.1-5-5.4-5.2-9.2
					c-0.4-6.2-1.2-12.3-0.8-18.6c0.3-5.2,0-10.4-0.1-15.6c-0.1-3.7,0.4-7.3,2.1-10.6c2.6-4.9,5.5-9.7,10-13c2.8-2,5.6-3.9,8.3-6
					c6.5-5.1,12.4-10.9,18.5-16.4c0.9-0.8,1.8-1.7,2.7-2.3c4.7-3.2,8.7-7.3,12.9-11.1c6.9-6.3,13.9-12.5,20.7-18.8
					c3.3-3,6.7-5.9,10-8.9c2.3-2.2,4.4-3.8,7.7-2.8C136.4,102.4,136.8,102,137.4,101.7z M160.1,170.5c-0.7-0.9-1.3-2.4-2.2-2.7
					c-2-0.7-3.9-2.2-7-1.9c3.2,2.5,6.1,3.8,9.4,4.5c1.7,1.8,4,2.5,6.1,3.5c0.8,0.4,1.4,1.3,1.9,1.7c-2,2.9-3.7,5.5-5.4,8
					c-0.4,0.6-0.9,1.1-1.3,1.6c-4.8,5.5-9.5,10.9-14.3,16.5c-1.7,2-3.2,4-4.9,6c-3.9,4.6-7.8,9.2-11.7,13.9c-1.1,1.3-2.3,2.6-2,4.6
					c1.3,0.8,2.6,1.2,3.7-0.1c3.5-4,7.4-7.7,10.1-12.5c1.2-2.1,2.8-3.9,4.4-5.7c5.5-6.5,11-12.9,16.5-19.3c2.8-3.3,5.7-6.5,8.5-9.7
					c5.1,0.1,9.7,1.5,14.2,3.4c4.8,2,10.1,2.5,14.4,5.6c0.1,0.1,0.3,0.1,0.5,0.2c7.8,1.7,15,5.2,22.5,7.7c3.5,1.1,6.8,2.4,10.2,3.7
					c6.4,2.5,12.9,5,19.3,7.5c0.7,0.3,1.4,0.9,2,1.3c-2.3,3.8-4.6,7.2-7.8,9.9c-2,1.7-3.7,3.7-5.4,5.6c-1.8,2-3.8,4-5.3,6.3
					c-1.4,2.2-3.6,3.5-5,5.6c-4.7,7.4-9.8,14.6-14.8,21.9c-0.4,0.5-0.5,1.2-0.8,1.9c2.5,0.8,2.7,0.8,4-0.8
					c5.8-7.3,11.1-14.9,17.4-21.9c4.1-4.5,7.8-9.2,11.8-13.7c1.3-1.4,2.4-2.8,3.4-4.5c1.7-2.9,3.6-5.8,6.1-8.3
					c1.9,0.5,3.6,0.8,5.2,1.4c9.9,4.1,19.8,8.1,29.7,12.4c6.3,2.7,12.5,6,18.8,8.6c5.6,2.4,11.4,4,16.7,7.1c0.3,0.2,0.7,0.1,1.4,0.2
					c0.6-0.9,1.4-1.9,2.4-3.3c-4.1-1.7-7.7-3.2-11.3-4.8c-6.7-2.8-13.4-5.6-20.1-8.4c-3.5-1.5-6.9-3.1-10.5-4.5
					c-8.2-3.2-16.5-6.4-24.7-9.5c-1.7-0.7-3.5-1.3-4.9-3c0.5-1,0.9-1.9,1.5-2.7c0.7-1,1.6-1.8,2.3-2.8c3.4-4.6,6.7-9.2,10.2-13.7
					c3-4,6.1-7.9,9.2-11.9c0.5-0.7,1-1.4,1.4-2.2c0.5-0.7,1-1.4,1.4-2.2c0.3-0.7,1.4-1.1,0.7-2.4c-1.1,1-2.2,1.8-3,2.8
					c-6.5,8.3-13,16.6-19.5,24.9c-2.5,3.1-5.1,6-7.6,8.9c-3.4-0.3-6-1.5-8.7-2.6c-4.9-2.1-9.7-4.4-14.9-6
					c-5.1-1.5-10.2-3.3-15.1-5.4c-9-3.9-18.7-6.3-27.4-10.9c-2-1-4.2-1.5-6.4-2.2c-2.3-0.8-4.6-1.6-6.8-2.6c-1-0.5-1.8-1.3-2.8-2.1
					c4.2-5.9,8.1-11.6,13.7-15.9c1.1-0.8,2-1.9,3-2.9c5.5-5.3,10.7-10.8,16.6-15.6c1.8-1.5,3.2-3.5,5.2-5.8
					c-3.2,0.2-5.2,0.9-7.1,2.7c-4.3,4.2-8.9,8.2-12.7,12.9c-1.8,2.2-3.6,4.6-6.5,5.9c-1,0.5-2,1.5-2.6,2.5
					c-3.5,6.1-9.2,10.2-13.6,15.5c-0.8-0.2-1.5-0.5-2.1-0.5C166.5,171.7,163.5,169.8,160.1,170.5z M363.2,165.7
					c-0.1-1.8-0.1-3.3-0.2-4.8c-0.4-3.6-0.9-7.2-1.3-10.8c-0.8-7.5-1.5-15.1-2.3-22.7c0-0.3-0.1-0.7-0.2-1c-2.3-8.4-2-17.1-2.1-25.8
					c-0.1-4.5-0.7-8.9-2.3-13.2c-1.7-4.6-4.6-7.6-9.2-9c-7.3-2.2-14.4-4.7-21.7-6.9c-6.3-1.9-12.6-3.7-18.9-5.2
					c-3.7-0.9-7.3-2.2-10.7-3.9c-7.9-4.2-16.4-6.3-24.8-8.9c-8.2-2.6-16.7-4.4-24.9-6.9c-11.4-3.5-22.7-7.3-34.1-10.9
					c-4-1.2-8-2.3-12-3.3c-6.2-1.6-12.5-2.8-18.6-4.5c-6.5-1.8-12.9-3.8-19.7-4.2c-1.2-0.1-2.4-0.4-3.5-0.8
					c-4.4-1.6-8.7-3.2-13.1-4.8c-0.9-0.3-1.9-0.3-2.9-0.4c-0.3,0.8-0.5,1.3-0.5,1.8c-0.3,9.7-0.6,19.3,1.3,28.9
					c0.8,3.9,1.2,7.9,1.9,11.8c1.6,8.1,2.2,16.4,4,24.5c1.2,5.2,3.8,9,7.8,12.3c7,5.8,15.2,9.5,23.3,13.4c2,1,4.1,2,6.2,2.6
					c4.1,1.3,8.3,2.3,12.4,3.5c9.9,2.9,19.8,6,29.8,8.9c5.1,1.5,10.3,2.9,15.5,4.3c2.7,0.7,5.4,1.1,8,1.9c5.5,1.6,10.8,3.5,16.3,5.2
					c3.5,1.1,7,1.9,10.4,3.1c7.9,2.6,15.6,5.5,23.6,7.9c11.4,3.4,22.9,6.4,34.4,9.7c4.6,1.3,9.1,3.2,13.7,4.5
					C353.3,163.2,357.5,166,363.2,165.7z M47.2,196.4c-0.2,0.9-0.5,1.3-0.5,1.8c0,4.7,0.3,9.3,0.1,14c-0.2,4.8,2.2,9.4,1.3,14.3
					c-0.1,0.3,0.1,0.7,0.2,1c1.3,2.7,2.6,5.3,5.1,7.1c3.4,2.4,6.7,4.9,10.3,7c8.6,5.2,17.8,9.3,27.1,12.9c5.6,2.2,11.4,4.1,17,6.2
					c2.7,1,5.5,2.1,8.2,3.2c3,1.3,6,2.7,9,3.9c5.4,2.2,10.9,4.4,16.4,6.6c7.2,2.8,14,6.8,21.7,8.5c1,0.2,1.9,0.8,2.9,1.2
					c2.9,1.1,5.7,2.7,8.7,3.4c7.5,1.7,14.3,5,21.5,7.6c10.4,3.7,20.9,7.1,31.4,10.5c3.8,1.2,7.7,1.8,11.5,2.9
					c4.1,1.2,8.2,2.7,12.4,3.9c4.5,1.2,9.1,2,13.6,3.1c5.4,1.4,10-0.7,14.1-3.6c4.2-3,8.7-5.6,12.2-9.6c0.8-0.9,1.8-1.6,2.8-2.4
					c3.4-2.7,6.9-5.2,10.2-8c6.7-5.7,13.4-11.4,19.9-17.3c5.8-5.2,11.6-10.4,16.9-16c5.2-5.5,9.9-11.5,14.6-17.6
					c2-2.6,3.5-5.6,5.8-7.9c0.5-0.5,0.7-1.2,1-1.8c2.7-4.7,4.1-9.9,5.1-15.2c0.1-0.6,0.4-1.4-0.5-1.6c-0.2,0-0.4,0-0.5,0.1
					c-4.2,6.4-9.4,11.9-14.2,17.8c-1.7,2-3,4.2-4.8,6.1c-5.2,5.5-10.5,11-15.8,16.4c-3.4,3.4-6.9,6.8-10.6,10
					c-5.4,4.6-10.8,9.1-16.4,13.5c-3.2,2.6-6.7,4.9-10.2,7c-5.8,3.4-12.1,5.1-18.9,4.5c-4.4-0.4-8.9-0.4-13.1-2.2
					c-4.1-1.8-8.4-3.2-12.6-4.8c-3.1-1.2-6-2.8-9.1-3.8c-9.5-2.9-18.5-6.9-27.7-10.4c-3.4-1.3-6.8-2.6-10.2-3.7
					c-7.5-2.6-15.1-5-22.6-7.6c-2.9-1-5.8-2.2-8.8-3.1c-8-2.7-16.1-5.3-24.1-8c-1.8-0.6-3.5-1.4-5.3-2.2c-5.5-2.4-11-4.9-16.6-7.3
					c-3.7-1.5-7.5-2.6-11.1-4.3C104,227.8,93.5,223,83,218c-5.1-2.4-10.5-4.5-15.2-7.7c-3.7-2.5-7.7-4.6-11.5-7
					c-2-1.3-3.8-2.9-5.7-4.4C49.5,198.2,48.4,197.4,47.2,196.4z M125.6,11.3c4.3-1.6,7.8-0.7,11.3,1.1c1.8,0.9,3.8,1.5,5.8,2.2
					c1.3,0.5,2.6,0.7,3.9,1.2c5.7,2,11.4,3.6,17.3,4.9c11.8,2.6,23.7,5,35.3,8.4c5.1,1.5,10.3,2.8,15.4,4.4c6.6,2,13.1,4.2,19.7,6.3
					c6.8,2.1,13.6,4.1,20.3,6.1c5.4,1.6,10.8,3.4,16.3,4.9c7.7,2.1,15.3,4.3,22.7,7.2c1.3,0.5,2.6,0.8,3.9,1.2c1,0.3,1.9,0.6,2.9,1
					c2.1,0.8,4.1,1.8,6.2,2.5c5.9,2,11.8,3.9,17.8,5.4c8.6,2.1,17.1,4.4,24.7,9.1c0.1,0.1,0.3,0.2,0.5,0.2c2.4,0.6,3.9,2.1,5.1,4.1
					c0.6,1,1.4,2,2.2,2.9c1,1.2,1.6,2.6,1.8,4.2c0.6,5.9,1.4,11.7,1.6,17.6c0.3,5.4,1,10.6,1.6,16c0.8,6.9,2.6,13.6,2.8,20.6
					c0,0.5,0.2,1,0.2,1.5c-0.7,8.6,1.6,16.8,2.5,25.2c0.3,3.1,1,6.1,1.5,9c1.5,0.3,2.6,0,3.4-1.1c2.4-3.3,3.9-6.9,3.1-11.1
					c-1.1-6-1.6-12-1.8-18.1c-0.1-2.4,0-4.9-0.2-7.3c-0.7-8.1-1.6-16.2-2.4-24.2c-0.4-3.8-1.2-7.6-1.2-11.3c0.1-5.8-1-11.3-1.8-17
					s-3.1-10.5-7.2-14.6c-2.5-2.4-4.8-5-8.4-5.8c-1.2-0.2-2.2-1-3.3-1.5c-4.7-2.1-9.4-4.5-14.3-6.1c-7.4-2.4-14.9-4.5-22-7.6
					c-1.1-0.5-2.3-0.8-3.4-1.1c-3.1-1-6.3-1.8-9.4-2.9c-14.8-5.3-30.2-8.7-45-14c-6-2.2-12.2-3.8-18-6.7c-1.2-0.6-2.6-0.8-3.9-1.1
					c-1.3-0.3-2.7-0.5-4-0.9c-10.7-3.2-21.5-6.5-32.2-9.7c-6.6-2-13.1-4.4-19.9-5.7c-5.1-1-10.1-2.4-15-4.1
					c-3.1-1.1-6.3-1.9-9.5-2.5c-2-0.4-4.1-0.6-6.2-0.9c-5-0.9-9.9-1.2-14.4,2.2c-1.8,1.4-3.8,2.3-5.7,3.6
					C126.1,9.5,126,10.3,125.6,11.3z M136.2,15.3c-1.8-0.5-3.3-0.9-4.8-1.2c-1.1-0.2-2.1,0.4-2.4,1.5c-0.5,2.4-0.9,4.8-1.2,7.2
					c-0.9,8.9,1.3,17.6,1.6,26.4c0,0.5,0.1,1.1,0.3,1.5c1.1,2.3,1.1,4.7,1.2,7.1c0.1,1.7,0.3,3.5,0.6,5.1c1.5,8,2.6,16,4.3,24
					c1.4,6.7,4,12.6,9.3,16.8c4,3.2,8.4,6.1,13.4,7.7c4.4,1.4,8.9,2.8,13.3,4.3c7.7,2.6,15.3,5.6,23,8c5.1,1.6,9.9,4.2,15.4,4.5
					c1,0,1.9,0.7,2.9,1.1c1,0.4,1.9,1,2.9,1c4.7,0.1,8.5,2.6,12.6,4.2c3.7,1.4,7.4,2.8,11.1,4.2c4.4,1.6,8.8,3.1,13.2,4.5
					c1.5,0.5,3,0.9,4.5,1.3c5.9,1.4,11.8,2.6,17.3,5.2c5.8,2.8,11.9,4.7,18.1,6.2c2.2,0.5,4.3,1.3,6.4,1.9
					c15.7,4.7,31.1,10.4,47.2,14c1.2,0.3,2.4,0.7,3.3,1.3c3.5,2.4,7.8,2.8,11.7,4.1c0.6,0.2,1.3,0,2,0c1.1-2.4,0.8-4.5-0.2-6.7
					c-2.4-0.8-4.7-1.4-6.9-2.4c-7.5-3.1-15.1-5.9-22.9-8.1c-3.2-0.9-6.4-1.6-9.5-2.6c-10-2.9-19.9-5.7-29.7-9.1
					c-9.6-3.4-19.4-6.2-29.1-9.3c-5.8-1.8-11.5-3.7-17.3-5.4c-8.6-2.5-17.3-4.8-26-7.3c-9.5-2.7-18.9-5.6-28.4-8.1
					c-7-1.8-14-3.7-20.4-7.3c-4.5-2.5-9.4-4.5-13.6-7.4c-3.8-2.7-7.7-5.3-10.9-8.8c-1.6-1.8-3.2-3.8-4-6c-1.2-3.2-1.8-6.7-2.4-10.1
					c-1-5.8-2.1-11.5-2.5-17.4c-0.5-6.7-1.8-13.3-2.7-20C136.1,33,135.8,24.4,136.2,15.3z M136,107.6c-1.2-1.7-2.4-1.3-3.4-0.7
					c-1.9,1.2-3.7,2.5-5.5,3.9c-7.6,6-14.2,13.1-21.6,19.4c-6.3,5.4-12.3,11.1-18.5,16.6c-4.2,3.8-8.7,7.4-12.7,11.4
					c-4.6,4.5-9.5,8.5-14.8,12.2c-4.3,3-7.5,7.1-10.2,11.6c-1.2,2-1.8,4.2-1.6,6.5c0.1,1,0.3,2.2,0.9,2.8c2.6,2.8,5,5.8,8,8
					c7.4,5.4,15.4,9.8,23.7,13.8c9.7,4.6,19.5,8.9,29.1,13.7c4.7,2.3,9.3,4.5,14.3,6.2c2.4,0.8,4.9,1.8,7.3,2.8
					c3.5,1.5,6.9,3.1,10.5,4.5c4.8,1.9,9.4,4.5,14.5,5.3c0.3,0.1,0.6,0.3,0.9,0.4c9.6,3.5,19.2,7,28.7,10.4c1.3,0.5,2.6,0.9,4,1.3
					c11.2,3.5,22.4,7.2,33.3,11.6c9.6,3.8,19.4,7.3,29.1,11c1.3,0.5,2.7,0.7,4,1.1c1,0.3,2,0.5,3,0.9c3.4,1.4,6.8,2.5,10.5,2.8
					c1.2,0.1,2.3,0.6,3.4,1.1c4.6,2,9.1,1.9,13.5-0.3c4.2-2,8.4-4.1,12-7.2c2.4-2,5-3.7,7.4-5.6c2.1-1.6,4.2-3.1,6.1-4.8
					c7.7-7.1,16.2-13.5,23.1-21.5c0.9-1,2-1.9,3-2.8c1-1,2-1.9,2.9-3c3.7-4.3,7.3-8.8,11-13.1c5.9-7,11.6-14.2,16.1-22.2
					c1-1.8,2.1-3.6,3.1-5.4c1.3-2.4,1.4-5,0.9-7.6c-0.1-0.7-0.9-1.3-1.6-2.2c-1.3,2.2-2.1,4.1-2.8,6c-1.1,2.9-2.1,5.9-3.7,8.5
					c-5.1,8.3-10.6,16.2-17.8,22.8c-1,0.9-1.9,2-2.9,3c-4.3,4.8-8.5,9.5-12.8,14.3c-2.3,2.6-4.8,5-7,7.6
					c-5.1,5.9-11.1,10.9-16.7,16.3c-0.9,0.8-1.9,1.5-2.9,2.2c-1.2,0.7-2.6,1.1-3.6,2c-3.9,3.7-8.6,6.4-13.2,9.1
					c-1.9,1.1-3.6,1.9-5.8,1.7c-1.7-0.1-3.5-0.2-5.1-0.5c-7.7-1.4-14.9-4.4-22.2-6.9c-6.4-2.2-12.6-4.8-18.9-7
					c-4.6-1.6-9.3-2.7-13.8-4.4c-5-1.9-10-3.7-14.5-6.7c-3.1-2.1-6.7-3.6-10.6-3.8c-1.1-0.1-2.3-0.6-3.4-1c-1.6-0.6-3.2-1.4-4.8-1.9
					c-7.4-2.5-14.8-4.9-22.1-7.4c-6.2-2.2-12.4-4.4-18.5-6.7c-5.3-2-10.2-4.9-15.8-6.5c-4.8-1.4-9.3-3.7-13.9-5.6
					c-2.5-1.1-5-2.3-7.6-3.3c-6-2.2-11.8-4.8-17.5-7.9c-1.8-1-3.7-1.9-5.7-2.6c-8.9-3-17.1-7.4-25.2-12.1c-2.4-1.4-4.4-3.3-6.5-5.1
					c-1.5-1.4-2-3.1-1.3-5.2c1-3.1,2-6.2,4.4-8.7c2.4-2.4,4.5-5.2,7.2-7.4c5.1-4.2,9.7-8.8,14.2-13.6c2.5-2.6,5.2-5,8.2-7.1
					c2-1.4,3.7-3.1,5.3-4.8c1.2-1.2,2.2-2.7,3.6-3.7c2.2-1.5,3.7-3.6,5.5-5.5c1.4-1.5,2.8-3,4.3-4.4c1.1-1.1,2.3-2.1,3.4-3.2
					C117.8,122.2,126.1,114.1,136,107.6z M290.4,159.1c-2.3-0.9-4-1.5-5.8-2.2c-2.8-1-5.6-1.8-8.3-3c-6.1-3-12.6-4.6-19.2-6.1
					c-1.7-0.4-3.3-0.9-5-1.4c-3.8-1.3-7.4-2.8-11.2-4c-4.8-1.5-9.5-3.2-14-5.5c-1-0.5-2.1-0.9-3.3-1.4c-1.9,4.7-4,9-4.8,13.8
					c-0.7,4.7-3.5,9.1-2.3,14.2c2.2,2.1,4.9,3.5,7.6,4.4c5.3,1.7,10.3,4,15.5,5.8c4.2,1.5,8.4,3.1,12.6,4.7
					c5.2,1.9,10.4,3.6,15.6,5.4c1.8,0.6,2.9,0.1,4.1-1.3c5.2-6.4,10.5-12.8,15.7-19.3C288.6,162.2,289.2,161,290.4,159.1z
					 M354.7,212.2c1.5-2,3.2-4.2,4.6-6.5c1.4-2.2,3-4.4,3.7-6.8c0.9-3.1,1.6-6.3,2.7-9.4c0.7-1.8,0-3.2-1.6-4.5
					c-1.9-1.5-4.4-2.1-6.3-3.4c-3.6-2.5-7.6-3.9-11.7-5.2c-5.9-2-11.8-3.9-17.7-5.9c-7.5-2.5-15.1-4.9-22.7-7.3
					c-0.8-0.2-1.7-0.1-2.9-0.2c-1,9.9-3.8,19.4-3.5,29.5c1.4,0.6,2.6,1.4,3.9,1.6c5.6,1.2,11,2.8,16.1,5.6c0.6,0.3,1.3,0.5,1.9,0.7
					c8.4,3.3,17,5.7,25.2,9.5c1.1,0.5,2.3,0.7,3.5,1C351.5,211.3,352.9,211.7,354.7,212.2z M143.7,199.7c-1-0.6-1.7-1-2.4-1.4
					c-2.5-1.2-5-2.4-7.5-3.5c-0.8-0.4-1.6-0.6-2.4-0.9c-2.3-0.8-4.6-1.4-6.8-2.4c-4.7-2.1-9.8-3.2-14.4-5.6
					c-4.2-2.2-8.5-3.7-13.8-4.1c-2.4,1.8-5.3,3.7-8,5.8c-2.6,2-5.4,3.9-7.5,6.3c-2.2,2.5-4.5,5.1-5.5,8.5c1.7,2,3.6,3.1,5.7,4
					c6.6,2.9,13.3,5.7,19.9,8.8c7,3.3,14.5,5.4,21.7,8.4c0.1,0.1,0.3,0,0.9,0c2.4-2.2,4.9-4.8,7.1-7.7c0.9-1.2,1.9-2.4,3-3.6
					c2.5-2.7,5.1-5.2,7.4-7.9C142.1,203.1,142.7,201.4,143.7,199.7z M197.5,251.6c3.4,1.5,6.3,2.6,9.1,3.9c6,2.9,5.4,1.2,8.6-2.2
					c0.2-0.2,0.4-0.6,0.6-0.9c4-5.8,8.1-11.6,12-17.5c0.8-1.1,1.3-2.4,1.9-3.6c-2-2.2-4.3-3.1-6.8-3.9c-1.5-0.4-3-0.8-4.4-1.4
					c-7.1-3.1-14.1-6.5-21.3-9.5c-5.8-2.4-11.9-4.3-18-6.6c-4.7,6.1-9.2,12-13.6,17.9c-0.7,0.9-0.9,2.1-1.3,3.2
					c5.4,3.5,11.5,4.4,17.1,6.7c5.7,2.4,11.9,3.3,17.6,6.2C198.4,246.8,198,249.1,197.5,251.6z M242,268.8
					c5.9,2.2,11.5,4.7,17.3,6.3c6.3,1.8,12.5,4,18.9,5.3c3.2,0.7,5.7,0.4,8.3-1.4c1.9-1.3,3.7-2.7,5.7-3.6c6.2-2.7,10.6-7.6,15.4-12
					c0.3-0.3,0.4-0.9,0.6-1.1c-3.2-4.4-7.7-6.2-12.6-7.8c-6.1-2-11.9-4.5-17.9-6.8c-5.3-2-10.6-4.1-15.8-6.2
					C257.5,245.7,244.1,263.9,242,268.8z M99.2,152.4c-1,1.5-1.4,3.1-1.6,4.9c-0.4,5.1,0,10.3-0.7,15.4c-0.3,2,0.7,3.2,2.5,4
					c5.1,2.1,9.8,4.9,15,6.7c3.4,1.2,6.5,3.1,9.9,4.4c6.6,2.6,13.2,5,19.8,7.4c1.1,0.4,2.3,0.6,3.2,0.8c5.5-5.2,9.5-11.4,14.9-16.2
					c0.7-0.6,1-1.7,1.5-2.6c-3.2-1.6-6.2-3-9-4.7c-4.9-3-10.4-4.5-15.8-6c-1.3-0.4-2.7-0.7-3.9-1.3c-3.3-1.7-6.8-2.3-10.4-3.1
					c-1.8-0.4-3.7-0.9-5.5-1.4c-4.2-1.1-7.9-3.5-11.7-5.5C104.9,153.9,102.3,152.7,99.2,152.4z M183.4,154c2.3-1,3.7-2.3,5-3.7
					c4.9-5.1,9-10.9,14.5-15.4c1.3-1.1,2.5-2.4,2.4-4.6c-4.7-1.5-9.4-3.1-14.1-4.6c-5.9-1.9-11.9-3.6-17.8-5.6
					c-7.2-2.4-14.3-5.1-21.4-7.7c-0.2-0.1-0.3-0.1-0.5-0.2c-2.4-0.8-3.7-0.2-4.3,2.2c-0.5,1.8-0.8,3.7-1.1,5.6
					c-0.4,3.8-1.1,7.5-2.3,11.1c-0.6,1.9-1,4-1.4,6c4.1,3,8.3,5.2,12.8,6.2c4.3,0.9,8.2,2.7,12.2,4c2.9,1,5.7,2.7,8.7,3.1
					C179.1,150.8,181.6,151.2,183.4,154z M182.5,206.5c2.7,1.7,5,3,7.6,4c7.8,3.1,16.1,5.2,23.6,9.2c0.3,0.2,0.6,0.2,1,0.4
					c4.2,1.5,8.4,2.9,12.6,4.6c2.3,0.9,4.5,1.5,7.1,1.7c2.3-2.4,4.5-4.8,6.8-7.1c2.5-2.6,5.1-5.1,7.6-7.7c0.5-0.5,0.7-1.4,1-2
					c-5.8-2.2-11.3-4.2-16.7-6.3c-5.5-2-11-4-16.5-6.2c-6.4-2.5-12.8-4.9-19.6-6.8C191,194.5,186.8,200.2,182.5,206.5z M351.3,216.5
					c-1.5-0.8-2.6-1.7-3.9-2.1c-4.6-1.4-9-3.5-13.5-5.3c-1.8-0.7-3.4-1.6-5.2-2.2c-6.9-2.7-13.8-5.4-20.8-7.9
					c-2.6-0.9-5-2.4-8.2-2.4c-1.5,1.6-3.2,3.4-4.8,5.2c-1.7,1.8-3.5,3.4-4.9,5.3c-1.3,1.8-3.6,3.2-3.9,6c5.6,2.4,10.6,5.3,16.2,7.2
					c2,0.6,3.9,1.5,5.8,2.2c8.2,3.3,16.3,6.6,24.5,10c1.8,0.7,3.4,0.4,4.8-0.8c0.8-0.7,1.5-1.5,2.2-2.2c2.4-2.5,4.9-4.9,7.2-7.4
					C348.3,220.3,349.6,218.5,351.3,216.5z M327.8,243c-1.5-1-2.2-1.7-3.1-2.1c-15.1-6.4-30.1-12.9-45.5-19
					c-5.2,4.2-8.4,9.8-13,14.3c-0.5,0.5-0.7,1.5-1,2.2c0.6,0.5,0.9,1.1,1.3,1.2c4.6,1.2,8.7,3.4,12.9,5.3c3.8,1.7,7.6,3.5,11.5,4.6
					c6.4,1.7,12.4,4,18.2,7.3c2.4,1.4,4.5,1,6.5-0.9c1.6-1.5,3.3-3,4.9-4.6C322.9,248.6,325.2,246,327.8,243z M136.1,228.7
					c0.3,0.2,0.5,0.5,0.8,0.7c1.5-1.1,3.1-2.2,4.6-3.3c2-1.4,4-1.9,6.3-0.6c2.3,1.2,4.7,2.1,7,3.2c2.4,1.1,4.3,0.6,6-1.3
					c0.5-0.5,1-1,1.4-1.5c2.5-3.3,5-6.6,7.6-9.8c1.1-1.4,2.2-2.6,3.3-3.9c0.7-0.8,1.4-1.5,2-2.3c1.3-1.6,2.5-3.3,3.7-4.9
					c3.5-4.7,7-9.4,10.5-14.1c0.6-0.8,0.7-1.8,1-2.7c-3.5-1.9-13.2-5-17.6-5.7c-4,4.8-8,9.5-12,14.3c-2.9,3.4-5.8,6.8-8.6,10.3
					c-2.4,2.9-4.8,5.9-7.1,8.9c-2.5,3.3-4.9,6.6-7.3,10C137,226.7,136.6,227.7,136.1,228.7z M201.7,179.8c1,1.6,2.5,2,3.9,2.6
					c5.8,2.3,11.5,4.6,17.3,6.8c8.5,3.2,17.3,5.9,25.4,10.1c1.5,0.8,3.1,1.5,4.8,2c1.1,0.4,2.3,0.4,3.6,0.6c3.4-4.9,8.2-8.5,10.6-14
					c-17.8-6.7-35.3-13.4-53-20.1C209.9,171.4,205.6,175.4,201.7,179.8z M236.7,267.2c0.7-0.7,1.2-1,1.5-1.4
					c5.5-8,11.5-15.5,17.8-22.9c0.9-1.1,1.7-2.2,2.5-3.3c1.8-2.3,3.6-4.6,5.6-6.8c2.7-3.1,5.5-6.2,8.2-9.3c0.8-1,1.3-2.3,2.1-3.6
					c-2.7-1.1-5.1-2.2-7.5-3.2s-4.4-2.8-6.9-2.8c-0.5,0.3-0.9,0.5-1,0.7c-6.2,9.2-13.8,17.3-20.9,25.7c-4.9,5.8-9.7,11.7-13.9,18.1
					c-0.7,1.2-1.6,2.3-1.1,4.1C227.4,264.1,231.8,266,236.7,267.2z M143.9,110.9c-2-1.7-3.9-1.2-5.6-0.4c-3.1,1.5-6.4,2.7-8.6,5.6
					c-0.6,0.8-1.4,1.5-2.2,2.2c-5.6,4.9-10.9,10-16,15.5c-1.7,1.9-3.7,3.5-5.3,5c0.1,2.5,1.5,3.6,3.2,4.2c1.9,0.6,3.4,1.6,4.8,2.9
					c3,2.7,6.6,4.3,10.4,5.1c0.5-0.2,0.9-0.2,1.1-0.4c3.6-3.2,7.3-6.4,10.8-9.7c0.8-0.8,1.5-2,1.7-3.1c1.2-6.8,4.4-13.1,4.6-20.1
					c0-0.3,0.2-0.7,0.3-1C143.4,114.8,143.6,112.8,143.9,110.9z M94.1,152.6c-0.5-0.1-0.8-0.2-0.9-0.1c-4.2,3.6-8.4,7.1-12.4,10.8
					c-3.8,3.5-7.5,7.2-11.2,10.7c-4,3.8-7.8,7.7-10.7,12.5c-1.3,2.1-1.1,3.8,0.1,5.7c2.7,4.2,6.6,6.4,11.4,7.6
					c0.8-0.7,1.7-1.2,2.3-2.1c2.4-3.7,5.7-6.3,9.1-9.1c3-2.5,5.7-5.4,8.5-8.2c1.5-1.5,2.3-3.3,2.4-5.5c0.5-5.8,1.1-11.6,1.6-17.5
					C94.4,155.8,94.2,154.2,94.1,152.6z M129.7,153.7c4,3.4,8.8,5,13.6,6.3c6.7,1.8,13.3,3.7,19.7,6.4c2.7,1.1,5.6,1.5,8.6,1.9
					c2.9-3,5.7-6,8.5-9.1c0.5-0.6,1.2-1.3,0.6-2.3c-2-0.9-4-1.9-6.1-2.8c-1.9-0.8-3.8-1.6-5.8-2.2c-6.5-2.3-13.1-4.4-19.4-7
					c-2.4-1-4.6-1.1-7-0.8c-1.6,0.3-3.3,0.9-4.8,1.7C134.5,147.7,131.2,149.7,129.7,153.7z M297.4,164.1c-0.9,0.8-1.9,1.5-2.6,2.4
					c-4.6,5.8-9.1,11.7-13.6,17.6c-2.6,3.4-5.2,6.8-7.8,10.3c-2.2,3.1-4.4,6.2-6.5,9.3c-0.2,0.3-0.1,1-0.1,1.6
					c4.9,1.8,9.7,3.7,15,5.7c4.4-5.3,8.8-10.5,13.6-15.6c-0.1-5-0.2-10,1-15c0.9-3.9,1.4-7.8,2-11.7
					C298.7,167.2,298.8,165.7,297.4,164.1z M196.3,178.5c4.2-3.7,8.4-7,12.3-10.7c1.5-1.4,2.8-3.2,3.3-5.1
					c2.3-7.6,4.4-15.3,5.5-23.1c0.1-0.8,0.4-1.7-0.6-2.2c-0.4,0-0.8-0.1-1,0.1c-3.3,2.8-6.6,5.5-9.8,8.4c-4.5,4.2-8.7,8.8-13.4,12.9
					c-3.5,3.1-6.7,6.5-9.8,9.9c-0.9,1-1.6,2.1-1.5,3.8C186,175.3,191.3,176.9,196.3,178.5z M142.1,231.1c2.6,2.9,5.8,3.6,8.8,4.8
					c5.8,2.2,11.7,4.1,17.6,6.1c6.8,2.4,13.7,4.7,20.5,7.1c0.8,0.3,1.7,0.6,2.5,0.5c0.7-0.1,1.5-0.8,1.9-1.4
					c0.2-0.3-0.2-1.4-0.7-1.7c-1.6-0.9-3.3-1.9-5.1-2.4c-2.5-0.7-4.9-1.7-7.3-2.6c-6.1-2.5-12.2-4.8-18.5-6.6
					c-4.5-1.3-8.9-2.6-12.8-5.2C146.5,228,145.4,228.2,142.1,231.1z M100.9,145.7c1,1.4,2.1,3,3.9,3.6c6.1,2.1,11.1,7,17.7,8
					c0.5,0.1,0.9,0.4,1.3,0.7c2.7,1.8,5.7,1.6,8.7,1.5c-3.3-1.9-6.3-4.1-9.9-5.3c-4-1.3-7.7-3.1-11-5.5c-2.7-2-5.7-3.1-8.6-4.7
					C102.1,143.4,101.2,144.2,100.9,145.7z M290.5,166.6c0-0.1,0.1-0.3,0.1-0.4c-0.2,0.1-0.3,0.2-0.5,0.3
					C290.3,166.5,290.4,166.6,290.5,166.6z"/>
				<path class="st3" d="M363.2,165.7c-5.7,0.3-9.9-2.5-14.5-3.8s-9.1-3.2-13.7-4.5c-11.4-3.3-23-6.3-34.4-9.7
					c-7.9-2.4-15.7-5.3-23.6-7.9c-3.4-1.1-7-2-10.4-3.1c-5.4-1.7-10.8-3.5-16.3-5.2c-2.6-0.8-5.4-1.2-8-1.9
					c-5.2-1.4-10.3-2.8-15.5-4.3c-9.9-2.9-19.8-6-29.8-8.9c-4.1-1.2-8.3-2.2-12.4-3.5c-2.1-0.7-4.2-1.7-6.2-2.6
					c-8.1-3.9-16.2-7.6-23.3-13.4c-4-3.3-6.6-7.1-7.8-12.3c-1.9-8.1-2.4-16.4-4-24.5c-0.8-3.9-1.2-7.9-1.9-11.8
					c-1.9-9.6-1.6-19.2-1.3-28.9c0-0.5,0.3-1,0.5-1.8c1,0.1,2,0.1,2.9,0.4c4.4,1.6,8.7,3.2,13.1,4.8c1.1,0.4,2.3,0.7,3.5,0.8
					c6.8,0.4,13.2,2.4,19.7,4.2c6.2,1.7,12.4,3,18.6,4.5c4,1,8,2.1,12,3.3c11.4,3.6,22.7,7.4,34.1,10.9c8.2,2.5,16.7,4.3,24.9,6.9
					c8.4,2.6,17,4.7,24.8,8.9c3.3,1.8,6.9,3,10.7,3.9c6.4,1.5,12.7,3.3,18.9,5.2c7.3,2.2,14.4,4.7,21.7,6.9c4.7,1.4,7.6,4.4,9.2,9
					c1.6,4.3,2.2,8.6,2.3,13.2c0.1,8.6-0.2,17.3,2.1,25.8c0.1,0.3,0.2,0.7,0.2,1c0.8,7.6,1.5,15.1,2.3,22.7
					c0.4,3.6,0.9,7.2,1.3,10.8C363.2,162.4,363.1,163.9,363.2,165.7z"/>
				<path class="st3" d="M47.2,196.4c1.3,1,2.3,1.7,3.4,2.6c1.9,1.5,3.7,3.1,5.7,4.4c3.8,2.4,7.8,4.5,11.5,7
					c4.8,3.2,10.1,5.3,15.2,7.7c10.5,4.9,21,9.7,31.6,14.5c3.6,1.6,7.5,2.7,11.1,4.3c5.6,2.3,11.1,4.9,16.6,7.3
					c1.7,0.8,3.5,1.6,5.3,2.2c8,2.7,16.1,5.3,24.1,8c3,1,5.8,2.1,8.8,3.1c7.5,2.5,15.1,5,22.6,7.6c3.4,1.2,6.8,2.5,10.2,3.7
					c9.2,3.5,18.2,7.5,27.7,10.4c3.1,1,6,2.6,9.1,3.8c4.2,1.6,8.4,3.1,12.6,4.8c4.2,1.8,8.7,1.8,13.1,2.2c6.8,0.6,13.1-1.1,18.9-4.5
					c3.5-2.1,7-4.5,10.2-7c5.6-4.4,11.1-8.9,16.4-13.5c3.7-3.2,7.1-6.5,10.6-10c5.4-5.4,10.6-10.9,15.8-16.4
					c1.8-1.9,3.2-4.1,4.8-6.1c4.8-5.9,10-11.4,14.2-17.8c0.1-0.1,0.3-0.1,0.5-0.1c0.9,0.3,0.6,1.1,0.5,1.6c-1,5.3-2.5,10.4-5.1,15.2
					c-0.3,0.6-0.5,1.3-1,1.8c-2.4,2.3-3.8,5.3-5.8,7.9c-4.6,6-9.4,12-14.6,17.6c-5.3,5.7-11.2,10.8-16.9,16
					c-6.5,5.9-13.2,11.6-19.9,17.3c-3.3,2.8-6.8,5.3-10.2,8c-1,0.7-2,1.4-2.8,2.4c-3.4,4-8,6.6-12.2,9.6c-4.1,2.9-8.7,5-14.1,3.6
					c-4.5-1.2-9.1-1.9-13.6-3.1c-4.2-1.1-8.2-2.7-12.4-3.9c-3.8-1.1-7.8-1.7-11.5-2.9c-10.5-3.4-21-6.8-31.4-10.5
					c-7.2-2.5-14-5.8-21.5-7.6c-3-0.7-5.8-2.2-8.7-3.4c-1-0.4-1.9-0.9-2.9-1.2c-7.7-1.7-14.4-5.7-21.7-8.5
					c-5.5-2.1-10.9-4.3-16.4-6.6c-3-1.2-6-2.6-9-3.9c-2.7-1.1-5.4-2.2-8.2-3.2c-5.7-2.1-11.4-4-17-6.2c-9.3-3.7-18.5-7.7-27.1-12.9
					c-3.5-2.1-6.9-4.6-10.3-7c-2.5-1.8-3.8-4.4-5.1-7.1c-0.1-0.3-0.3-0.7-0.2-1c0.9-4.9-1.5-9.4-1.3-14.3c0.2-4.7-0.1-9.3-0.1-14
					C46.7,197.8,46.9,197.3,47.2,196.4z"/>
				<path class="st3" d="M125.6,11.3c0.4-1,0.4-1.8,0.8-2.1c1.8-1.3,3.9-2.2,5.7-3.6c4.4-3.4,9.3-3.1,14.4-2.2
					c2,0.4,4.1,0.6,6.2,0.9c3.2,0.6,6.4,1.4,9.5,2.5c4.9,1.7,9.9,3.2,15,4.1c6.8,1.3,13.3,3.7,19.9,5.7c10.7,3.2,21.5,6.5,32.2,9.7
					c1.3,0.4,2.7,0.6,4,0.9s2.7,0.5,3.9,1.1c5.8,2.9,11.9,4.5,18,6.7c14.8,5.3,30.2,8.7,45,14c3.1,1.1,6.3,1.9,9.4,2.9
					c1.2,0.4,2.3,0.7,3.4,1.1c7.1,3.1,14.6,5.2,22,7.6c4.9,1.6,9.5,4.1,14.3,6.1c1.1,0.5,2.2,1.2,3.3,1.5c3.6,0.8,5.9,3.3,8.4,5.8
					c4.1,4.1,6.4,8.8,7.2,14.6c0.8,5.7,1.9,11.2,1.8,17c-0.1,3.8,0.8,7.5,1.2,11.3c0.8,8.1,1.7,16.2,2.4,24.2
					c0.2,2.4,0.2,4.8,0.2,7.3c0.1,6.1,0.6,12.1,1.8,18.1c0.8,4.3-0.7,7.8-3.1,11.1c-0.8,1.1-1.9,1.4-3.4,1.1c-0.5-3-1.2-6-1.5-9
					c-0.9-8.4-3.2-16.7-2.5-25.2c0-0.5-0.2-1-0.2-1.5c-0.2-6.9-1.9-13.7-2.8-20.6c-0.6-5.3-1.4-10.6-1.6-16
					c-0.3-5.9-1.1-11.7-1.6-17.6c-0.2-1.6-0.7-3-1.8-4.2c-0.8-0.9-1.6-1.9-2.2-2.9c-1.2-2-2.8-3.5-5.1-4.1c-0.2,0-0.3-0.1-0.5-0.2
					c-7.6-4.6-16.2-7-24.7-9.1c-6.1-1.5-12-3.4-17.8-5.4c-2.1-0.7-4.1-1.7-6.2-2.5c-0.9-0.4-1.9-0.7-2.9-1c-1.3-0.4-2.7-0.7-3.9-1.2
					c-7.4-2.9-15-5.1-22.7-7.2c-5.5-1.5-10.9-3.3-16.3-4.9c-6.8-2-13.6-4-20.3-6.1c-6.6-2-13.1-4.3-19.7-6.3
					c-5.1-1.6-10.3-2.9-15.4-4.4c-11.6-3.4-23.5-5.8-35.3-8.4c-5.9-1.3-11.7-2.9-17.3-4.9c-1.3-0.5-2.6-0.7-3.9-1.2
					c-1.9-0.7-3.9-1.3-5.8-2.2C133.4,10.6,129.9,9.6,125.6,11.3z"/>
				<path class="st3" d="M136.2,15.3c-0.4,9.1-0.1,17.7,1,26.3c0.9,6.7,2.2,13.3,2.7,20c0.4,5.9,1.5,11.6,2.5,17.4
					c0.6,3.4,1.2,6.8,2.4,10.1c0.8,2.2,2.4,4.2,4,6c3.1,3.5,7,6.1,10.9,8.8c4.3,3,9.1,4.9,13.6,7.4c6.4,3.6,13.4,5.5,20.4,7.3
					c9.5,2.5,18.9,5.4,28.4,8.1c8.6,2.5,17.3,4.8,26,7.3c5.8,1.7,11.5,3.6,17.3,5.4c9.7,3.1,19.5,5.9,29.1,9.3
					c9.8,3.4,19.7,6.3,29.7,9.1c3.2,0.9,6.3,1.7,9.5,2.6c7.8,2.2,15.5,5,22.9,8.1c2.2,0.9,4.5,1.6,6.9,2.4c1,2.2,1.3,4.3,0.2,6.7
					c-0.7,0-1.4,0.2-2,0c-3.9-1.3-8.1-1.7-11.7-4.1c-1-0.7-2.2-1.1-3.3-1.3c-16-3.7-31.4-9.4-47.2-14c-2.1-0.6-4.3-1.4-6.4-1.9
					c-6.2-1.5-12.3-3.5-18.1-6.2c-5.5-2.6-11.5-3.8-17.3-5.2c-1.5-0.4-3-0.8-4.5-1.3c-4.4-1.5-8.9-3-13.2-4.5
					c-3.7-1.3-7.4-2.8-11.1-4.2c-4.2-1.6-8-4.1-12.6-4.2c-1,0-1.9-0.7-2.9-1c-1-0.4-1.9-1-2.9-1.1c-5.5-0.2-10.3-2.9-15.4-4.5
					c-7.8-2.4-15.3-5.4-23-8c-4.4-1.5-8.9-2.8-13.3-4.3c-5-1.6-9.4-4.5-13.4-7.7c-5.3-4.3-7.9-10.2-9.3-16.8c-1.7-8-2.8-16-4.3-24
					c-0.3-1.7-0.5-3.4-0.6-5.1c-0.1-2.4-0.1-4.8-1.2-7.1c-0.2-0.5-0.3-1-0.3-1.5c-0.4-8.8-2.6-17.5-1.6-26.4
					c0.3-2.4,0.7-4.8,1.2-7.2c0.2-1.1,1.3-1.7,2.4-1.5C132.9,14.3,134.4,14.8,136.2,15.3z"/>
				<path class="st3" d="M136,107.6c-9.9,6.6-18.2,14.6-26.1,23.1c-1.1,1.1-2.3,2.1-3.4,3.2c-1.5,1.5-2.9,2.9-4.3,4.4
					c-1.8,1.9-3.3,4-5.5,5.5c-1.4,1-2.4,2.4-3.6,3.7c-1.7,1.7-3.3,3.4-5.3,4.8c-2.9,2.1-5.7,4.5-8.2,7.1c-4.5,4.7-9.2,9.4-14.2,13.6
					c-2.6,2.2-4.7,5-7.2,7.4c-2.4,2.4-3.4,5.6-4.4,8.7c-0.7,2.1-0.2,3.8,1.3,5.2c2.1,1.8,4.1,3.7,6.5,5.1c8,4.8,16.2,9.2,25.2,12.1
					c2,0.6,3.8,1.6,5.7,2.6c5.6,3.1,11.4,5.7,17.5,7.9c2.6,0.9,5.1,2.2,7.6,3.3c4.6,1.9,9.1,4.2,13.9,5.6c5.5,1.6,10.4,4.5,15.8,6.5
					c6.2,2.3,12.3,4.6,18.5,6.7c7.3,2.5,14.7,4.9,22.1,7.4c1.6,0.6,3.2,1.3,4.8,1.9c1.1,0.4,2.2,0.9,3.4,1c3.9,0.2,7.5,1.7,10.6,3.8
					c4.5,3,9.6,4.8,14.5,6.7c4.5,1.7,9.2,2.8,13.8,4.4c6.3,2.2,12.6,4.8,18.9,7c7.3,2.5,14.6,5.5,22.2,6.9c1.7,0.3,3.4,0.4,5.1,0.5
					c2.2,0.2,3.9-0.6,5.8-1.7c4.6-2.8,9.2-5.4,13.2-9.1c1-0.9,2.4-1.3,3.6-2c1-0.6,2-1.3,2.9-2.2c5.6-5.4,11.6-10.3,16.7-16.3
					c2.2-2.6,4.7-5.1,7-7.6c4.3-4.7,8.5-9.5,12.8-14.3c0.9-1,1.8-2.1,2.9-3c7.2-6.6,12.8-14.5,17.8-22.8c1.6-2.6,2.6-5.6,3.7-8.5
					c0.7-1.9,1.5-3.8,2.8-6c0.7,1,1.4,1.6,1.6,2.2c0.5,2.6,0.5,5.2-0.9,7.6c-1,1.8-2.1,3.6-3.1,5.4c-4.5,8-10.2,15.2-16.1,22.2
					c-3.7,4.3-7.3,8.8-11,13.1c-0.9,1.1-1.9,2-2.9,3s-2.1,1.8-3,2.8c-6.9,8.1-15.4,14.4-23.1,21.5c-1.9,1.8-4,3.2-6.1,4.8
					c-2.5,1.9-5.1,3.6-7.4,5.6c-3.6,3.1-7.8,5.2-12,7.2c-4.4,2.1-9,2.2-13.5,0.3c-1.1-0.5-2.3-1-3.4-1.1c-3.7-0.3-7.1-1.4-10.5-2.8
					c-1-0.4-2-0.6-3-0.9c-1.3-0.4-2.7-0.6-4-1.1c-9.7-3.6-19.5-7.1-29.1-11c-10.9-4.4-22.1-8.1-33.3-11.6c-1.3-0.4-2.7-0.8-4-1.3
					c-9.6-3.5-19.2-6.9-28.7-10.4c-0.3-0.1-0.6-0.4-0.9-0.4c-5.2-0.9-9.8-3.4-14.5-5.3c-3.5-1.4-7-3.1-10.5-4.5
					c-2.4-1-4.8-1.9-7.3-2.8c-4.9-1.7-9.6-3.9-14.3-6.2c-9.6-4.7-19.4-9-29.1-13.7C72,208.9,64,204.4,56.6,199c-3-2.2-5.5-5.2-8-8
					c-0.6-0.7-0.9-1.9-0.9-2.8c-0.2-2.3,0.4-4.5,1.6-6.5c2.7-4.5,5.9-8.6,10.2-11.6c5.3-3.7,10.2-7.7,14.8-12.2
					c4-4,8.5-7.6,12.7-11.4c6.2-5.5,12.2-11.3,18.5-16.6c7.4-6.3,14-13.4,21.6-19.4c1.8-1.4,3.6-2.7,5.5-3.9
					C133.5,106.2,134.8,105.8,136,107.6z"/>
				<path class="st3" d="M290.4,159.1c-1.2,1.8-1.8,3.1-2.7,4.1c-5.2,6.4-10.5,12.8-15.7,19.3c-1.1,1.4-2.3,1.9-4.1,1.3
					c-5.2-1.8-10.5-3.4-15.6-5.4c-4.2-1.6-8.4-3.2-12.6-4.7c-5.2-1.8-10.2-4.1-15.5-5.8c-2.7-0.9-5.4-2.2-7.6-4.4
					c-1.2-5.1,1.6-9.5,2.3-14.2c0.8-4.9,2.9-9.1,4.8-13.8c1.2,0.5,2.3,0.9,3.3,1.4c4.5,2.3,9.2,4,14,5.5c3.8,1.2,7.5,2.7,11.2,4
					c1.6,0.6,3.3,1,5,1.4c6.6,1.5,13.1,3.1,19.2,6.1c2.6,1.3,5.5,2,8.3,3C286.4,157.6,288.1,158.3,290.4,159.1z"/>
				<path class="st3" d="M354.7,212.2c-1.8-0.5-3.2-0.9-4.7-1.3c-1.2-0.3-2.4-0.5-3.5-1c-8.2-3.8-16.8-6.2-25.2-9.5
					c-0.6-0.3-1.3-0.4-1.9-0.7c-5-2.8-10.5-4.4-16.1-5.6c-1.3-0.3-2.5-1-3.9-1.6c-0.3-10.1,2.5-19.5,3.5-29.5c1.2,0.1,2.1,0,2.9,0.2
					c7.6,2.4,15.1,4.8,22.7,7.3c5.9,1.9,11.8,3.9,17.7,5.9c4.1,1.4,8.1,2.7,11.7,5.2c1.9,1.3,4.3,1.9,6.3,3.4
					c1.6,1.2,2.2,2.7,1.6,4.5c-1.1,3.1-1.8,6.3-2.7,9.4c-0.7,2.4-2.3,4.6-3.7,6.8C357.9,208,356.2,210.2,354.7,212.2z"/>
				<path class="st3" d="M143.7,199.7c-1,1.7-1.6,3.4-2.7,4.6c-2.4,2.7-4.9,5.3-7.4,7.9c-1.1,1.1-2.1,2.3-3,3.6
					c-2.2,2.9-4.6,5.5-7.1,7.7c-0.6,0-0.8,0.1-0.9,0c-7.1-3-14.6-5.1-21.7-8.4c-6.6-3.1-13.2-5.9-19.9-8.8c-2.1-0.9-4-2-5.7-4
					c1-3.3,3.3-5.9,5.5-8.5c2.1-2.4,4.9-4.3,7.5-6.3c2.7-2.1,5.5-4,8-5.8c5.2,0.4,9.6,1.9,13.8,4.1c4.6,2.4,9.7,3.5,14.4,5.6
					c2.2,1,4.5,1.6,6.8,2.4c0.8,0.3,1.6,0.6,2.4,0.9c2.5,1.1,5,2.3,7.5,3.5C142,198.7,142.7,199.2,143.7,199.7z"/>
				<path class="st3" d="M197.5,251.6c0.5-2.5,0.9-4.9,1.4-7.5c-5.7-2.9-11.9-3.8-17.6-6.2c-5.6-2.3-11.6-3.3-17.1-6.7
					c0.4-1.1,0.6-2.3,1.3-3.2c4.4-5.9,9-11.8,13.6-17.9c6.1,2.2,12.2,4.1,18,6.6c7.2,3,14.2,6.3,21.3,9.5c1.4,0.6,2.9,1,4.4,1.4
					c2.5,0.7,4.9,1.7,6.8,3.9c-0.6,1.2-1.2,2.5-1.9,3.6c-4,5.9-8,11.7-12,17.5c-0.2,0.3-0.3,0.6-0.6,0.9c-3.1,3.3-2.6,5-8.6,2.2
					C203.8,254.2,200.9,253.1,197.5,251.6z"/>
				<path class="st3" d="M242,268.8c2.2-4.9,15.6-23.1,19.9-27.2c5.2,2,10.5,4.1,15.8,6.2c5.9,2.3,11.8,4.8,17.9,6.8
					c4.9,1.6,9.4,3.4,12.6,7.8c-0.1,0.3-0.2,0.8-0.6,1.1c-4.8,4.4-9.2,9.3-15.4,12c-2,0.9-3.8,2.3-5.7,3.6c-2.6,1.7-5.1,2-8.3,1.4
					c-6.4-1.3-12.6-3.5-18.9-5.3C253.4,273.4,247.9,271,242,268.8z"/>
				<path class="st3" d="M99.2,152.4c3.1,0.2,5.7,1.4,8.3,2.8c3.8,2,7.5,4.4,11.7,5.5c1.8,0.5,3.7,1,5.5,1.4
					c3.5,0.8,7.1,1.4,10.4,3.1c1.2,0.6,2.6,0.9,3.9,1.3c5.5,1.5,10.9,3,15.8,6c2.8,1.7,5.8,3,9,4.7c-0.5,1-0.8,2-1.5,2.6
					c-5.4,4.9-9.4,11-14.9,16.2c-1-0.2-2.2-0.4-3.2-0.8c-6.6-2.4-13.2-4.8-19.8-7.4c-3.3-1.3-6.5-3.2-9.9-4.4
					c-5.2-1.8-10-4.6-15-6.7c-1.9-0.8-2.8-2.1-2.5-4c0.7-5.1,0.3-10.3,0.7-15.4C97.8,155.6,98.2,154,99.2,152.4z"/>
				<path class="st3" d="M183.4,154c-1.9-2.8-4.4-3.2-7.2-3.7c-3-0.4-5.8-2.1-8.7-3.1c-4.1-1.4-8-3.1-12.2-4
					c-4.5-1-8.7-3.2-12.8-6.2c0.5-2,0.8-4.1,1.4-6c1.2-3.6,1.8-7.3,2.3-11.1c0.2-1.9,0.6-3.8,1.1-5.6c0.6-2.3,1.9-2.9,4.3-2.2
					c0.2,0.1,0.3,0.1,0.5,0.2c7.1,2.6,14.3,5.2,21.4,7.7c5.9,2,11.9,3.7,17.8,5.6c4.7,1.5,9.5,3.1,14.1,4.6c0.1,2.3-1.1,3.6-2.4,4.6
					c-5.5,4.5-9.7,10.3-14.5,15.4C187.1,151.7,185.8,153,183.4,154z"/>
				<path class="st3" d="M160.1,170.5c3.4-0.7,6.4,1.2,9.6,1.5c0.7,0.1,1.3,0.3,2.1,0.5c4.4-5.3,10.1-9.5,13.6-15.5
					c0.6-1,1.5-2,2.6-2.5c2.8-1.3,4.6-3.7,6.5-5.9c3.9-4.7,8.4-8.6,12.7-12.9c1.8-1.8,3.9-2.5,7.1-2.7c-2.1,2.3-3.4,4.4-5.2,5.8
					c-5.9,4.8-11.2,10.3-16.6,15.6c-1,1-1.9,2.1-3,2.9c-5.6,4.2-9.5,9.9-13.7,15.9c1,0.7,1.8,1.6,2.8,2.1c2.2,1,4.5,1.8,6.8,2.6
					c2.1,0.8,4.4,1.2,6.4,2.2c8.8,4.6,18.4,7,27.4,10.9c4.9,2.1,10,3.9,15.1,5.4c5.2,1.6,10,3.9,14.9,6c2.7,1.1,5.4,2.3,8.7,2.6
					c2.5-2.9,5.2-5.8,7.6-8.9c6.6-8.3,13-16.6,19.5-24.9c0.8-1,1.9-1.8,3-2.8c0.6,1.3-0.4,1.7-0.7,2.4c-0.4,0.8-0.9,1.5-1.4,2.2
					s-0.9,1.5-1.4,2.2c-3,4-6.2,7.9-9.2,11.9c-3.4,4.5-6.8,9.2-10.2,13.7c-0.7,1-1.6,1.8-2.3,2.8c-0.6,0.8-1,1.7-1.5,2.7
					c1.3,1.7,3.1,2.3,4.9,3c8.2,3.2,16.5,6.3,24.7,9.5c3.5,1.4,7,3,10.5,4.5c6.7,2.8,13.4,5.6,20.1,8.4c3.6,1.5,7.3,3.1,11.3,4.8
					c-1,1.4-1.8,2.5-2.4,3.3c-0.7-0.1-1.1,0-1.4-0.2c-5.3-3.1-11.1-4.8-16.7-7.1c-6.4-2.7-12.5-5.9-18.8-8.6
					c-9.8-4.2-19.8-8.3-29.7-12.4c-1.6-0.6-3.3-0.9-5.2-1.4c-2.5,2.4-4.3,5.3-6.1,8.3c-1,1.7-2.2,3.1-3.4,4.5
					c-4,4.5-7.8,9.2-11.8,13.7c-6.3,6.9-11.6,14.6-17.4,21.9c-1.3,1.6-1.5,1.7-4,0.8c0.3-0.6,0.4-1.3,0.8-1.9
					c4.9-7.3,10-14.5,14.8-21.9c1.4-2.2,3.6-3.5,5-5.6c1.5-2.3,3.4-4.3,5.3-6.3c1.7-1.9,3.5-3.9,5.4-5.6c3.2-2.7,5.6-6.1,7.8-9.9
					c-0.7-0.5-1.3-1-2-1.3c-6.4-2.5-12.9-5-19.3-7.5c-3.4-1.3-6.8-2.6-10.2-3.7c-7.6-2.4-14.7-6-22.5-7.7c-0.2,0-0.4-0.1-0.5-0.2
					c-4.3-3.1-9.7-3.6-14.4-5.6c-4.4-1.9-9.1-3.3-14.2-3.4c-2.8,3.2-5.7,6.4-8.5,9.7c-5.5,6.4-11,12.8-16.5,19.3
					c-1.6,1.8-3.2,3.7-4.4,5.7c-2.6,4.8-6.5,8.4-10.1,12.5c-1.1,1.3-2.4,1-3.7,0.1c-0.3-2,0.9-3.3,2-4.6c3.9-4.7,7.8-9.2,11.7-13.9
					c1.7-2,3.2-4.1,4.9-6c4.7-5.5,9.5-11,14.3-16.5c0.5-0.5,0.9-1,1.3-1.6c1.8-2.5,3.5-5.1,5.4-8c-0.5-0.4-1-1.3-1.9-1.7
					c-2.2-1-4.5-1.7-6.1-3.5L160.1,170.5z"/>
				<path class="st3" d="M351.3,216.5c-1.7,2-3,3.8-4.5,5.4c-2.3,2.5-4.8,4.9-7.2,7.4c-0.7,0.7-1.4,1.5-2.2,2.2
					c-1.4,1.3-3,1.6-4.8,0.8c-8.1-3.4-16.3-6.7-24.5-10c-1.9-0.8-3.8-1.6-5.8-2.2c-5.6-1.8-10.6-4.8-16.2-7.2c0.3-2.8,2.5-4.1,3.9-6
					s3.3-3.5,4.9-5.3c1.6-1.7,3.3-3.5,4.8-5.2c3.2,0,5.6,1.5,8.2,2.4c7,2.5,13.9,5.2,20.8,7.9c1.8,0.7,3.5,1.5,5.2,2.2
					c4.5,1.8,8.8,3.9,13.5,5.3C348.6,214.7,349.7,215.6,351.3,216.5z"/>
				<path class="st3" d="M233,203.3c-5.5-2-11-4-16.5-6.2c-6.4-2.5-12.8-4.9-19.6-6.8c-0.2,0.1-0.3,0.2-0.5,0.4
					c-1.8-1.3-4.2-2.5-6.7-3c-3.8-1.9-12.9-4.8-17.1-5.5c-4,4.8-8,9.5-12,14.3c-2.9,3.4-5.8,6.8-8.6,10.3c-2.4,2.9-4.8,5.9-7.1,8.9
					c-2.5,3.3-4.9,6.6-7.3,10c-0.6,0.9-1.1,2-1.6,2.9c0.3,0.2,0.5,0.5,0.8,0.7c1.5-1.1,3.1-2.2,4.6-3.3c2-1.4,4-1.9,6.3-0.6
					c2.3,1.2,4.7,2.1,7,3.2c2.4,1.1,4.3,0.6,6-1.3c0.5-0.5,1-1,1.4-1.5c2.5-3.3,5-6.6,7.6-9.8c1.1-1.4,2.2-2.6,3.3-3.9
					c0.7-0.8,1.4-1.5,2-2.3c1.1-1.4,2.2-2.9,3.3-4.4h0.1c1.5,0.8,2.9,1,4.2,0.8c0,0.1-0.1,0.1-0.1,0.2c2.7,1.7,5,3,7.6,4
					c7.8,3.1,16.1,5.2,23.6,9.2c0.3,0.2,0.6,0.2,1,0.4c4.2,1.5,8.4,2.9,12.6,4.6c2.3,0.9,4.5,1.5,7.1,1.7c2.3-2.4,4.5-4.8,6.8-7.1
					c2.5-2.6,5.1-5.1,7.6-7.7c0.5-0.5,0.7-1.4,1-2C244,207.4,238.5,205.4,233,203.3z"/>
				<path class="st3" d="M201.7,179.8c3.9-4.4,8.1-8.4,12.6-11.9c17.7,6.7,35.2,13.3,53,20.1c-2.4,5.5-7.3,9.1-10.6,14
					c-1.3-0.2-2.5-0.3-3.6-0.6c-1.6-0.6-3.2-1.3-4.8-2c-8.2-4.2-16.9-6.9-25.4-10.1c-5.8-2.2-11.6-4.5-17.3-6.8
					C204.3,181.8,202.7,181.4,201.7,179.8z"/>
				<path class="st3" d="M324.6,240.9c-15.1-6.4-30.1-12.9-45.5-19L279,222c-1-0.9-2.3-1.5-3.5-1.7c-0.4-0.1-0.8-0.1-1.1-0.1
					c0,0-0.1,0-0.1-0.1s0.1-0.1,0.1-0.2c-2.7-1.1-5.1-2.2-7.5-3.2s-4.4-2.8-6.9-2.8c-0.5,0.3-0.9,0.5-1,0.7
					c-6.2,9.2-13.8,17.3-20.9,25.7c-4.9,5.8-9.7,11.7-13.9,18.1c-0.7,1.2-1.6,2.3-1.1,4.1c4.3,1.6,8.7,3.5,13.7,4.6
					c0.7-0.7,1.2-1,1.5-1.4c5.5-8,11.5-15.5,17.8-22.9c0.9-1.1,1.7-2.2,2.5-3.3c1.2-1.5,2.4-3,3.7-4.5c0.2,2,1.9,3.7,3.9,4.2
					c0.2,0.1,0.3,0.3,0.5,0.3c4.6,1.2,8.7,3.4,12.9,5.3c3.8,1.7,7.6,3.5,11.5,4.6c6.4,1.7,12.4,4,18.2,7.3c2.4,1.4,4.5,1,6.5-0.9
					c1.6-1.5,3.3-3,4.9-4.6c2.4-2.5,4.6-5,7.2-8.1C326.3,242,325.6,241.3,324.6,240.9z"/>
				<path class="st3" d="M143.9,110.9c-0.3,1.9-0.5,3.9-0.8,5.9c0,0.3-0.3,0.7-0.3,1c-0.2,7-3.3,13.4-4.6,20.1
					c-0.2,1.1-0.8,2.3-1.7,3.1c-3.5,3.3-7.1,6.5-10.8,9.7c-0.2,0.2-0.6,0.2-1.1,0.4c-3.8-0.8-7.4-2.4-10.4-5.1
					c-1.4-1.3-3-2.3-4.8-2.9c-1.7-0.6-3-1.6-3.2-4.2c1.6-1.5,3.6-3.2,5.3-5c5.1-5.4,10.4-10.6,16-15.5c0.8-0.7,1.5-1.4,2.2-2.2
					c2.2-2.9,5.5-4.2,8.6-5.6C140,109.7,141.9,109.2,143.9,110.9z"/>
				<path class="st3" d="M94.1,152.6c0.1,1.5,0.3,3.2,0.2,4.8c-0.5,5.8-1.2,11.6-1.6,17.5c-0.2,2.2-0.9,4-2.4,5.5
					c-2.8,2.8-5.5,5.7-8.5,8.2c-3.3,2.7-6.7,5.4-9.1,9.1c-0.5,0.8-1.5,1.4-2.3,2.1c-4.8-1.2-8.7-3.4-11.4-7.6
					c-1.2-2-1.4-3.7-0.1-5.7c2.9-4.7,6.7-8.7,10.7-12.5c3.8-3.5,7.4-7.2,11.2-10.7c4.1-3.7,8.3-7.2,12.4-10.8
					C93.3,152.4,93.5,152.5,94.1,152.6z"/>
				<path class="st3" d="M129.7,153.7c1.5-4,4.8-5.9,8-7.9c1.4-0.9,3.1-1.5,4.8-1.7c2.3-0.4,4.6-0.2,7,0.8c6.4,2.6,12.9,4.7,19.4,7
					c1.9,0.7,3.9,1.4,5.8,2.2c2,0.9,4,1.8,6.1,2.8c0.5,0.9-0.1,1.7-0.6,2.3c-2.8,3-5.6,6-8.5,9.1c-3-0.4-5.9-0.8-8.6-1.9
					c-6.4-2.7-13-4.6-19.7-6.4C138.5,158.6,133.7,157.1,129.7,153.7z"/>
				<path class="st3" d="M297.4,164.1c1.4,1.5,1.3,3.1,1,4.6c-0.7,3.9-1.1,7.9-2,11.7c-1.2,4.9-1.2,9.9-1,15
					c-4.8,5-9.2,10.3-13.6,15.6c-5.3-2-10.1-3.8-15-5.7c0-0.6-0.1-1.2,0.1-1.6c2.1-3.1,4.3-6.3,6.5-9.3c2.5-3.5,5.2-6.9,7.8-10.3
					c4.5-5.9,9.1-11.8,13.6-17.6C295.6,165.6,296.5,165,297.4,164.1z"/>
				<path class="st3" d="M196.3,178.5c-5-1.6-10.3-3.2-15.1-6c-0.1-1.7,0.6-2.8,1.5-3.8c3.1-3.4,6.3-6.8,9.8-9.9
					c4.7-4.1,8.9-8.7,13.4-12.9c3.1-2.9,6.5-5.7,9.8-8.4c0.2-0.2,0.6-0.1,1-0.1c1,0.5,0.7,1.4,0.6,2.2c-1.1,7.9-3.2,15.5-5.5,23.1
					c-0.6,1.9-1.9,3.8-3.3,5.1C204.7,171.5,200.5,174.8,196.3,178.5z"/>
				<path class="st3" d="M142.1,231.1c3.3-2.8,4.4-3.1,7-1.4c4,2.5,8.3,3.9,12.8,5.2c6.3,1.8,12.4,4.2,18.5,6.6c2.4,1,4.7,2,7.3,2.6
					c1.8,0.5,3.5,1.4,5.1,2.4c0.4,0.2,0.9,1.4,0.7,1.7c-0.4,0.6-1.2,1.3-1.9,1.4c-0.8,0.1-1.7-0.2-2.5-0.5
					c-6.9-2.3-13.7-4.7-20.5-7.1c-5.9-2-11.8-4-17.6-6.1C147.9,234.7,144.6,234,142.1,231.1z"/>
				<path class="st3" d="M100.9,145.7c0.4-1.5,1.2-2.3,2.3-1.7c2.9,1.6,5.9,2.7,8.6,4.7c3.3,2.4,7,4.3,11,5.5
					c3.6,1.1,6.6,3.4,9.9,5.3c-3.1,0.1-6.1,0.3-8.7-1.5c-0.4-0.3-0.9-0.7-1.3-0.7c-6.7-1-11.6-5.8-17.7-8
					C102.9,148.7,101.9,147.1,100.9,145.7z"/>
				<path class="st3" d="M160.3,170.3c-3.2-0.7-6.1-2-9.4-4.5c3.2-0.3,5,1.2,7,1.9c0.9,0.3,1.5,1.8,2.2,2.7
					C160.1,170.5,160.3,170.3,160.3,170.3z"/>
				<path class="st3" d="M290.5,166.6c-0.1,0-0.2-0.1-0.3-0.1c0.2-0.1,0.3-0.2,0.5-0.3C290.6,166.3,290.5,166.5,290.5,166.6z"/>
			</g>
			<g>
				<path class="st4" d="M260.6,238.5c-0.8,0-1.5-0.6-1.5-1.5l-0.7-23.1c0-0.8,0.6-1.5,1.5-1.5l0,0c0.8,0,1.5,0.6,1.5,1.5l0.7,23.1
					C262.1,237.8,261.5,238.4,260.6,238.5L260.6,238.5z"/>
			</g>
		</g>
		<g>
			<path class="st5" d="M174.3,206.3c-0.8,0-1.5-0.6-1.5-1.5l-0.7-23.1c0-0.8,0.6-1.5,1.5-1.5l0,0c0.8,0,1.5,0.6,1.5,1.5l0.7,23.1
				C175.8,205.6,175.1,206.3,174.3,206.3L174.3,206.3z"/>
		</g>
	</g>
	<g>
		<path class="st0" d="M125.7,204.3c0.7,0.9,1.3,1.7,2,2.6c0,1.2,0.1,2.5,0,3.8c0,1.2-0.6,2.1-1.8,2.5c-1,0.3-2.1,0.7-3.1,0.7
			c-2.6,0-5.1,0.6-7.6,1.4c-0.7,0.2-1.5,0.4-2.2,0.6c-1.5,0.5-2.7,0.1-4-1.2c-0.4-2.1-0.8-4.6-1.3-7.1c-1.6-0.5-3.4-1.1-5.3-1.7
			c-0.8,0.2-0.6,1-0.8,1.6c-0.5,1.6-0.9,3.3-1.9,4.8c-0.5,0-0.9,0.1-1.3,0c-3.1-0.8-6.3-1.5-9.4-2.3c-2.5-0.7-4.8-1.9-6.7-3.8
			c-2.3-2.3-2.8-5.1-1.8-8.1c0.8-2.5,1.9-4.8,4.3-6.4c-0.6,0.1-1.1,0.1-1.7,0.3c-1.1,0.3-2.1,0-3.1-0.5c-2.3-1.2-3.2-3.1-2.8-5.6
			c0.3-2,0.9-4,1.7-5.9c0.7-1.6,1.4-3.2,2.3-4.7c1.6-2.7,3.6-4.9,7.1-4.6c0.2,0,0.4-0.1,0.8-0.2c0.1-0.6,0.4-1.3,0.5-2
			c0.1-2.2,1.6-3.4,3.2-4.6c1.6-1.1,3.2-1.2,4.9-0.4c0.2-0.1,0.5-0.1,0.6-0.3c2.6-2.3,3.7-2.5,6.4-1.3c2.4,1,3.5,3.3,3.3,6.1
			c-0.2,1.8-0.8,3.6-1.1,5.4c-0.3,1.3-1,2.6-0.4,4.2c1.6-1.4,2.3-3.4,3.3-5.1c1.2-2.2,2.7-3.8,5.3-4.4c1.2-0.3,2.3-1.2,3.6-1.9
			c5.4,2,8.4,6.2,10.2,11.5c0.4,1.1,0.3,2.3,0.1,3.5c-0.4,2.5-1.6,4.4-3.7,5.9c-0.6,0.4-1.2,0.8-2,1.3c0.3,1.2,0.7,2.4,1.4,3.7
			c0.4-0.8,0.8-1.4,1-2.1c1.6-4.2,4.9-6.5,9-7.6c1.2-0.3,2.6-0.5,3.8-0.6c1.1,0,2.1,0.1,3.2-0.3c1-0.4,1.9,0.1,2.4,1.1
			c0.1,0.3,0.3,0.6,0.3,0.9c0.4,3.6,1.7,7.1,1.9,10.8c0.1,2.6,0.2,5.2-0.9,7.6c-1.6,3.6-4.4,5.6-8.2,6c-1.6,0.2-3.2-0.1-4.8-0.4
			c-1.7-0.4-2.7-1.7-3.5-3.2C127.9,202.5,127.6,202.5,125.7,204.3z M142.1,184c-1.3,0.5-2.5,0.5-3.8,0c-0.7-0.3-1.7-0.2-2.5,0
			c-5.1,1.2-7.5,3.5-8.5,8.9c-0.4,2.1,0.9,3.4,3,3.2c0.7-0.1,1.5-0.3,2.2-0.3c0.9,0,1.6,0.8,1.4,1.8c-0.1,0.4-0.2,0.8-0.4,1.2
			c-0.4,1.4,0.2,2.5,1.2,3.4c0.9,0.8,2,0.6,3,0c1.8-0.9,3.2-2.1,4.4-3.7c0.8-1.2,1.6-2.3,1.5-3.8c-0.3-3.1-0.7-6.2-1.1-9.3
			C142.6,184.9,142.4,184.6,142.1,184z M108.8,191.9c0.8,0.6,1.6,1.1,2.3,1.8c0.4,0.3,0.2,1.2-0.3,1.4s-1,0.4-1.5,0.5
			c-0.6,0.1-1.3,0-1.9,0.1c-1.3,0.2-2.4,1.1-2.6,2.2c-0.2,1.2,0.3,2.2,1.6,2.9c2.5,1.3,5.1,2,7.8,1.5c3.1-0.5,6-1.5,8.9-2.9
			c0.1-3.1-0.6-5.9-1.6-8.6c-1-2.7-3.2-3.6-5.7-4.4c-0.4-0.1-0.9,0-1.3,0.1C111.6,187.2,109.8,189.1,108.8,191.9z M89.4,193
			c-1.5-0.1-2.5,0.5-3.5,1.1c-1.3,0.8-2.1,3.2-1.5,4.3c0.7,1.3,1.5,2.6,2.9,3.4c3,1.8,6.3,2.8,9.7,3.4c1.1,0.2,1.9-0.5,1.9-1.6
			c0.1-1.2-0.1-2.4,0.8-3.4c1.9-2.2,1.8-4.8,1.2-7.4c-0.3-1.5-1.3-2.7-2.5-3.7c-0.6-0.4-1.2-0.6-1.8-0.3c-1.3,0.6-2.7,1.2-3.6,2.4
			c0.4,1,0.7,1.9,1,2.8C91.7,195.6,91.6,195.6,89.4,193z M111.7,183.1c0.8-0.4,1.2-0.6,1.7-0.8c1.1-0.5,2.1-1.1,3.2-1.4
			c1.4-0.5,1.9-0.2,2.5,1.2c0.3,0.6,0.4,1.2,0.8,1.8c0.7,1.1,2.2,1.8,3.6,0.9c2.2-1.4,3.4-3.5,3.2-6c-0.4-4.4-2.6-7.8-6.4-9.9
			c-4.1,1.5-6.2,4.6-7.8,8.1C111.6,178.6,110.9,180.6,111.7,183.1z M88.5,190.3c1.8,0.4,1.9,0.5,2.3-0.2c1.2-1.9,3.2-2.5,5.1-3.2
			c1.4-0.5,2.8-0.2,3.9,0.8c1.5,1.3,2.6,2.9,3,4.8c0.2,0.7,0.5,1.3,0.8,2.3c0.9-0.9,1.8-1.4,2.3-2.2c0.9-1.7,1.5-3.5,2.4-5.4
			c-1.9-1.1-3-3-3.7-5c-1.9,0.9-1.9,0.9-3.3,0.4c-1-0.3-2-0.8-3-1.2s-1.9-0.9-3.2-1.5c-0.1,2.7-1.5,4.4-3.1,6
			C90.9,187.5,89.7,188.9,88.5,190.3z M99,166.3c-1.2-0.4-2-0.8-3-1c-0.6-0.1-1.4-0.1-1.8,0.3c-2,1.5-2,3.9-0.1,5.5
			c0.2,0.1,0.3,0.3,0.5,0.4c2,1.2,4.1,2.4,6.1,3.6c0.5,0.3,1.2,0.3,1.8,0.4c0.4-0.5,1-0.8,1.1-1.3c0.8-2.1,1.6-4.2,2.1-6.4
			c0.2-1-0.2-2.2-0.6-3.1c-1-2.1-3.7-2.2-5-0.3C99.7,164.9,99.4,165.5,99,166.3z M88.2,173.6c-1.2-0.8-2-1-2.8-0.1s-1.8,1.6-2.3,2.6
			c-1.2,2.4-2.2,4.9-3.2,7.4c-0.6,1.5-0.6,3.1,0.1,4.7c2-0.1,2.1-0.1,2.6-1.2c0.9-2,1.9-4.1,2.4-6.3c0.4-2.1,1.1-4.2,2.7-5.7
			C87.9,174.6,88,174.1,88.2,173.6z M84.5,188.7c2.2,0.1,3.4-1,4.4-2.3c0.9-1.2,1.9-2.4,2.7-3.6c0.9-1.5,1.4-3.2,0-4.8
			c-0.5-0.6-0.9-1.2-1.3-1.7c-2,0.8-2.7,2.3-3.2,4.2c-0.5,2.3-1.5,4.5-2.3,6.7C84.7,187.6,84.6,188,84.5,188.7z M103.1,178.7
			c-3.7-2-7.1-3.9-10.6-5.7c-0.1,0-0.3,0.2-0.5,0.3c0.8,2.1,0.9,2,2,3.1c2,2,4.8,2.4,7,3.8C101.7,180.5,102.1,180.2,103.1,178.7z
			 M82.5,200.9c-0.1,0.3-0.2,0.7-0.1,0.9c1,1.9,2.2,3.7,4.4,4.5c1.1,0.4,2.2,0.8,3.4,1.2c2.2,0.6,4.4,1.2,6.6,1.6
			c0.6,0.1,1.3,0.1,1.3-1c-0.3-0.1-0.5-0.4-0.8-0.4c-2.7-0.3-5.2-1.3-7.8-2.3c-2.4-0.9-4.8-2-6.3-4.3C83.1,201,82.8,201,82.5,200.9z
			 M125.2,209.6c-5,0.7-9.6,1.4-14.2,2.1c0,0.5,0,0.8,0,1.1c0,0.2,0.2,0.4,0.4,0.5c0.3,0.2,0.6,0.3,0.9,0.3c0.8-0.1,1.7-0.2,2.5-0.6
			c2.1-0.8,4.3-1.3,6.6-1.3c1,0,2.1-0.4,3.1-0.7C124.8,210.8,124.9,210.3,125.2,209.6z M110.6,207.8c0.9,0.5,1.4,0.9,2,1
			c3.7,0.1,7.3-0.6,10.8-1.7c0.3-0.1,0.6-0.7,0.6-1c0-0.6-0.6-0.9-1.1-0.9c-0.9,0.1-1.9,0.3-2.8,0.7c-2.7,0.9-5.3,1.7-8.2,1.6
			C111.7,207.4,111.5,207.5,110.6,207.8z M104,202.7c0.3,1.4,1.3,2.1,2.6,2.2c2,0.1,4,0,6,0c-2.6-1-5.2-1.7-7.9-2.3
			C104.5,202.5,104.3,202.6,104,202.7z M109.4,184.7c0-2,0-3.3,0-4.5c0-0.4,0-0.8-0.6-0.8C107.4,182,107.4,182,109.4,184.7z
			 M126.7,197.8c-0.5,0.6-0.4,1.2,0.1,1.5c0.4,0.2,1,0.3,1.4,0.2c0.4-0.1,0.2-0.9-0.4-1.2C127.4,198.1,127,198,126.7,197.8z
			 M132.6,203.8c-0.2,0-0.5,0.9,0.5,0.4C132.7,204,132.5,203.7,132.6,203.8z M139.4,204.2c-0.1,0-0.2,0-0.3,0.1c0,0.1,0,0.2,0.1,0.2
			s0.2,0,0.3-0.1C139.4,204.3,139.4,204.2,139.4,204.2z M109.8,177.5c0-0.1-0.1-0.2-0.1-0.2c-0.1,0.1-0.2,0.2-0.2,0.2
			c0,0.1,0.1,0.2,0.2,0.3C109.7,177.7,109.8,177.6,109.8,177.5z"/>
		<path class="st1" d="M142.1,184c0.2,0.6,0.5,0.9,0.5,1.3c0.4,3.1,0.8,6.2,1.1,9.3c0.2,1.5-0.6,2.7-1.5,3.8
			c-1.2,1.6-2.6,2.8-4.4,3.7c-1.1,0.5-2.1,0.7-3,0c-1-0.9-1.7-2-1.2-3.4c0.1-0.4,0.3-0.8,0.4-1.2c0.2-0.9-0.5-1.8-1.4-1.8
			c-0.7,0-1.5,0.3-2.2,0.3c-2.1,0.2-3.3-1.1-3-3.2c0.9-5.4,3.3-7.7,8.5-8.9c0.8-0.2,1.8-0.3,2.5,0
			C139.7,184.5,140.9,184.5,142.1,184z"/>
		<path class="st1" d="M108.8,191.9c1-2.8,2.8-4.8,5.8-5.5c0.4-0.1,0.9-0.2,1.3-0.1c2.4,0.7,4.7,1.7,5.7,4.4s1.7,5.5,1.6,8.6
			c-2.8,1.4-5.8,2.4-8.9,2.9c-2.7,0.4-5.4-0.2-7.8-1.5c-1.3-0.7-1.9-1.7-1.6-2.9c0.2-1,1.3-2,2.6-2.2c0.6-0.1,1.3,0,1.9-0.1
			c0.5-0.1,1-0.3,1.5-0.5s0.7-1,0.3-1.4C110.4,193.1,109.6,192.6,108.8,191.9z"/>
		<path class="st1" d="M89.4,193c2.2,2.6,2.4,2.6,4.6,1.2c-0.3-0.8-0.6-1.7-1-2.8c0.8-1.2,2.2-1.8,3.6-2.4c0.6-0.3,1.3-0.1,1.8,0.3
			c1.3,0.9,2.2,2.2,2.5,3.7c0.6,2.6,0.7,5.2-1.2,7.4c-0.9,1-0.8,2.2-0.8,3.4c-0.1,1.2-0.8,1.8-1.9,1.6c-3.4-0.6-6.7-1.6-9.7-3.4
			c-1.4-0.8-2.1-2.1-2.9-3.4c-0.6-1.1,0.3-3.4,1.5-4.3C86.9,193.5,87.9,192.9,89.4,193z"/>
		<path class="st1" d="M111.7,183.1c-0.8-2.5-0.1-4.5,0.8-6.3c1.7-3.4,3.7-6.6,7.8-8.1c3.8,2.1,6,5.5,6.4,9.9c0.2,2.4-1,4.5-3.2,6
			c-1.4,0.9-2.9,0.2-3.6-0.9c-0.3-0.5-0.5-1.2-0.8-1.8c-0.6-1.3-1.2-1.6-2.5-1.2c-1.1,0.4-2.2,0.9-3.2,1.4
			C113,182.5,112.5,182.7,111.7,183.1z"/>
		<path class="st1" d="M99,166.3c0.5-0.8,0.8-1.4,1.1-1.9c1.4-1.9,4-1.8,5,0.3c0.4,0.9,0.8,2.1,0.6,3.1c-0.5,2.2-1.3,4.3-2.1,6.4
			c-0.2,0.5-0.7,0.8-1.1,1.3c-0.6-0.1-1.3-0.1-1.8-0.4c-2.1-1.1-4.1-2.4-6.1-3.6c-0.2-0.1-0.4-0.2-0.5-0.4c-1.8-1.6-1.8-4,0.1-5.5
			c0.4-0.3,1.2-0.4,1.8-0.3C96.9,165.5,97.8,165.9,99,166.3z"/>
		<path class="st1" d="M88.2,173.6c-0.2,0.5-0.3,1-0.6,1.3c-1.6,1.6-2.3,3.6-2.7,5.7c-0.4,2.2-1.4,4.3-2.4,6.3
			c-0.5,1.2-0.6,1.1-2.6,1.2c-0.7-1.5-0.7-3.1-0.1-4.7c1-2.5,2-5,3.2-7.4c0.5-1,1.5-1.8,2.3-2.6C86.2,172.6,87.1,172.7,88.2,173.6z"
			/>
		<path class="st1" d="M84.5,188.7c0.1-0.7,0.2-1.1,0.3-1.5c0.8-2.2,1.7-4.4,2.3-6.7c0.5-1.9,1.2-3.4,3.2-4.2
			c0.4,0.5,0.8,1.1,1.3,1.7c1.4,1.6,0.9,3.2,0,4.8c-0.8,1.3-1.7,2.5-2.7,3.6C87.8,187.7,86.7,188.9,84.5,188.7z"/>
		<path class="st1" d="M103.1,178.7c-1,1.5-1.4,1.8-2,1.5c-2.3-1.4-5.1-1.8-7-3.8c-1.1-1.1-1.2-1-2-3.1c0.2-0.1,0.4-0.3,0.5-0.3
			C95.9,174.8,99.4,176.7,103.1,178.7z"/>
		<path class="st1" d="M82.5,200.9c0.3,0.1,0.6,0.1,0.7,0.2c1.5,2.3,3.8,3.4,6.3,4.3c2.5,1,5,2,7.8,2.3c0.3,0,0.6,0.3,0.8,0.4
			c0.1,1.1-0.7,1.1-1.3,1c-2.2-0.5-4.4-1-6.6-1.6c-1.1-0.3-2.2-0.8-3.4-1.2c-2.2-0.8-3.4-2.6-4.4-4.5
			C82.3,201.6,82.5,201.2,82.5,200.9z"/>
		<path class="st1" d="M125.2,209.6c-0.4,0.7-0.5,1.2-0.7,1.3c-1,0.3-2,0.7-3.1,0.7c-2.3,0.1-4.5,0.5-6.6,1.3
			c-0.8,0.3-1.7,0.4-2.5,0.6c-0.3,0-0.6-0.1-0.9-0.3c-0.2-0.1-0.3-0.3-0.4-0.5c-0.1-0.3,0-0.6,0-1.1
			C115.6,211,120.2,210.3,125.2,209.6z"/>
		<path class="st1" d="M110.6,207.8c0.8-0.3,1-0.4,1.2-0.4c2.9,0.1,5.5-0.6,8.2-1.6c0.9-0.3,1.9-0.5,2.8-0.7
			c0.6-0.1,1.1,0.2,1.1,0.9c0,0.3-0.3,0.9-0.6,1c-3.5,1.1-7.1,1.9-10.8,1.7C112.1,208.8,111.6,208.3,110.6,207.8z"/>
		<path class="st1" d="M104,202.7c0.4-0.1,0.6-0.2,0.8-0.2c2.6,0.7,5.3,1.3,7.9,2.3c-2,0-4,0.1-6,0
			C105.3,204.8,104.3,204.1,104,202.7z"/>
		<path class="st1" d="M109.4,184.7c-2-2.7-2-2.7-0.7-5.4c0.6,0,0.6,0.4,0.6,0.8C109.4,181.4,109.4,182.7,109.4,184.7z"/>
		<path class="st1" d="M126.7,197.8c0.3,0.2,0.7,0.3,1.1,0.5c0.6,0.4,0.8,1.1,0.4,1.2c-0.4,0.1-1,0-1.4-0.2
			C126.3,199,126.2,198.5,126.7,197.8z"/>
		<path class="st1" d="M132.6,203.8c-0.1-0.1,0.1,0.1,0.5,0.4C132.1,204.7,132.4,203.8,132.6,203.8z"/>
		<path class="st1" d="M139.4,204.2c0,0.1,0,0.1,0.1,0.2c-0.1,0-0.2,0.1-0.3,0.1c0,0,0-0.1-0.1-0.2
			C139.2,204.2,139.3,204.2,139.4,204.2z"/>
		<path class="st1" d="M109.8,177.5c0,0.1-0.1,0.2-0.1,0.3c-0.1-0.1-0.2-0.2-0.2-0.3c0,0,0.1-0.1,0.2-0.2
			C109.7,177.3,109.7,177.4,109.8,177.5z"/>
	</g>
	<g>
		<path class="st0" d="M206.9,163.5c0.2-0.5,0.2-0.6,0.2-0.7c0.2-5.1,3-9,6.2-12.6c0.6-0.7,1.2-1.4,1.8-2c0.9-0.9,1.9-1.4,3.3-0.9
			c0.5,0.2,1.2,0.1,1.8,0.2c0.9,0.2,1.6,0,2.2-0.5c1.6-1.4,3.6-1.9,5.7-2.4c3.8-0.8,6.9,0.4,9.4,3.3c0.6,0.7,1.1,1.4,1.8,2.3
			c0.7-0.7,1.3-1.3,2-2.1c2.1,0.3,4.2,0.5,6.4,0.9c2.4,0.4,3.7,1.9,4,4.2c0.3,2.1,0.5,4.2,0.2,6.3c-0.2,1.3-0.2,2.6-0.3,4.2
			c0.6-0.3,1-0.5,1.4-0.8s0.7-0.7,1.1-1c3.2-2.4,6.7-2.5,10-0.4c0.7,0.4,1.3,1,1.8,1.6c2,2.9,3.4,8.1,0.7,12.1c-0.6,0.9-1,1.9-1.4,3
			c-2.1,5.2-7.6,7-12.3,4c-2.2-1.4-2.4-1.6-4.1-5.1c-0.4,0.3-0.8,0.5-1.1,0.8c-1.3,1.2-2.5,2.5-3.9,3.7c-0.7,0.6-1,1.2-1.1,2
			c-0.2,1.8-1.1,3.4-2.3,4.8c-0.8,0.9-1.6,1.5-2.8,1.5c-3.7,0-7.4,0.3-11-0.8c-0.5-0.1-1-0.3-1.4-0.4c-2.1-0.7-3.3-2.1-3.6-4.3
			c-0.3-2.5-0.5-4.9-0.8-7.6c-0.4,0.2-0.7,0.4-0.9,0.6c-0.8,1.4-1.4,2.9-2.3,4.2c-0.8,1.1-1.9,2.1-2.9,2.9c-0.9,0.7-1.9,0.9-3.1,0.6
			c-1.3-0.3-2.7-0.3-4.1-0.4c-2-0.1-3.4-1-4.4-2.6c-0.9-1.4-1.9-2.8-2.8-4.3c-0.9-1.6-1.5-3.2-1.7-5.1c-0.1-1.3,0.1-2.6,0.7-3.8
			c0.6-1,1.2-2.1,2-3c1-1.1,2.1-2.1,3.8-1.9C205.6,164,206.2,163.6,206.9,163.5z M252.3,166.1c-0.4,1.5-0.7,2.6-1.1,3.8
			c-0.6,2-0.1,3.8,1.4,5.2c3.5,3.3,7.9,2.6,10.6,0.3c1.2-1,1.6-2.5,2.2-3.8c1-2.4,0.1-6-1.7-7.8c-0.4-0.3-0.8-0.6-1.2-0.8
			c-2.3-1.1-4.6-1.2-6.8,0.4C254.5,164.2,253.3,165.2,252.3,166.1z M203,166.7c-0.6,0.9-1.3,1.8-1.8,2.7c-0.9,1.6-0.9,3.2-0.1,4.8
			c0.4,0.7,0.8,1.4,1.1,2.1c0.5,1.1,1.3,1.7,2.4,2c2.3,0.6,4.7,0.6,7.1,0.1c1.3-0.3,1.9-1.4,2.8-2.2c0.5-0.4,0.4-1,0.2-1.6
			c-0.2-0.7,0.2-1.1,0.7-1.5c0.6-0.4,0.6-1,0.4-1.6c-1.2-4.2-5.9-7.1-9.9-5.5C205.1,166.4,204.2,166.4,203,166.7z M222.5,170.5
			c4.1-0.4,7.6-1.1,10-4.5c1.1-1.6,1.2-3.5-0.2-4.9c-0.6-0.6-1.4-1.1-2.2-1.6c-3.5-1.8-10-0.5-12.7,2.6c-0.4,0.4-0.7,0.9-1.1,1.4
			c-1.2,1.3-1.3,1.9-0.6,3.4c0.6,1.2,1.5,2.1,2.8,2.5C219.9,169.9,221.4,170.2,222.5,170.5z M240,176.8c-1.4-2.2-2.7-3.6-4.3-4.3
			c-3.5-1.5-6.6-0.5-9.6,1.4c-0.3,0.2-0.4,0.6-0.6,1c-0.2,0.4-0.4,0.8-0.7,1.2c-1.3,2-0.6,4.5,1.6,5.4c1,0.4,2,0.8,3.1,1.1
			c2.9,1.1,5.7,0.8,8.4-0.5c1.3-0.6,2.1-1.7,1.9-3.4C239.6,178.2,239.9,177.5,240,176.8z M246.7,150.8c-2,3-3.2,6-3.9,9.3
			c-0.4,2.1,0.2,3.8,0.8,5.5c0.5,1.8,2.6,2,3.9,0.6c0.7-0.8,1.3-1.8,1.6-2.8c1-3.1,1.1-6.2,0.7-9.4
			C249.5,152.2,248.7,151.2,246.7,150.8z M222.7,151.9c-0.1,0.7-0.1,1.5-0.2,2.3c-0.1,2.1,0.4,2.9,2.8,2.7c2.9-0.3,5.5,0.5,7.8,2.5
			c0.4,0.3,0.8,0.5,1.2,0.9c0.7-0.6,1.3-1.1,1.8-1.7c0.3-0.3,0.4-1.1,0.2-1.4c-0.8-1.1-1.1-2.6-1.8-3.7c-0.6-0.9-1.5-1.8-2.4-2.1
			c-1.9-0.6-3.9-0.8-5.9-1C224.9,150.2,223.7,150.8,222.7,151.9z M232.2,169.8c5,1.2,9.2,3.2,10.5,8.9c0.7-0.3,1.3-0.6,1.9-1
			c2.4-1.6,2.7-2.7,1.7-5.5c-0.7-1.9-1.8-3-3.9-3c-1,0-2-0.2-2.8-0.9c-1.6-1.3-3.4-1.5-5.5-1.2c-0.5,0.5-1,1.1-1.5,1.7
			C232.4,169,232.4,169.3,232.2,169.8z M223.7,182.7c0.5,2.7,1.5,4.3,4.1,4.9c2.8,0.6,5.5,0.5,8.3,0.4c1.7-0.1,2.9-1.1,3.7-2.6
			c0.2-0.5,0.3-0.9-0.3-1.3c-2.5,1-5.1,1.3-7.8,1.2C228.9,185,226.7,183.3,223.7,182.7z M240.7,165c0.1-0.1,0.2-0.2,0.2-0.3
			c0-0.3,0-0.6-0.1-0.9c-0.4-2.7-0.1-5.3,1-7.9c0.5-1.3,1-2.6,1.4-3.9c0.1-0.3,0-0.7,0-1.1c-0.5,0-0.8-0.1-1,0
			c-2.2,1.4-3.3,3.5-3.2,6c0,1,0,1.8-0.4,2.8c-0.8,1.6-0.8,3.3,0.4,4.8C239.4,165,239.9,165.5,240.7,165z M219.2,151.6
			c-1.7,1.6-2.8,2.8-3.4,4.2c-1.1,2.6-2.3,5.1-3.4,7.6c-0.1,0.2,0.1,0.5,0.1,0.8c1.1-1.3,2-2.8,3.2-3.9c1.2-1.1,2.8-1.8,4.3-2.7
			C219.2,156,219.2,154.1,219.2,151.6z M217,150.9c-2.8,0.7-4.4,2.8-5.9,5c-1.2,1.7-1.9,3.6-1.6,5.7c1,0.4,1.7,0.3,2.1-0.6
			c0.4-1,0.9-2,1.2-3c0.8-2.4,1.9-4.5,3.7-6.4C216.8,151.4,216.9,151.1,217,150.9z M237,152.7c0.5-1.1,0.3-2.1-0.3-2.9
			c-1-1.3-2.2-2.3-3.7-3c-1.6-0.7-3.3-0.6-5-0.2c-0.8,0.2-1.8,0.2-2.2,1.4c1.2,0.6,2.6,0.3,3.8,0.5
			C232.5,149.1,235.3,149.7,237,152.7z M216.3,177.6c-1.4,1-2.6,1.9-3.8,2.7c-1.5,1-3.2,1.5-5.1,0.7c-0.7-0.3-1.7-0.5-2.5,0
			c0,0.9,0.7,1.3,1.3,1.4c1.2,0.3,2.3,0.3,3.5-0.2c1.1-0.4,2.2-0.9,3.4-0.2c0.6,0.3,1.2-0.1,1.6-0.5
			C215.8,180.5,216.6,179.4,216.3,177.6z M251.4,177.3c0.4,0.8,0.5,1.5,0.9,1.9c0.8,0.9,1.8,1.5,3.1,1.7c2.5,0.4,4.9,0.4,6.7-2
			C256.1,179.2,257.2,179.9,251.4,177.3z M223.3,172.7c-1.6-0.4-3.1-0.9-4.8-0.9c0,0.8,0,1.6,0,2.6
			C220.3,174.4,222.2,175.1,223.3,172.7z M249,168.1c-2,0.9-2,0.9-0.9,2.4C248.4,169.8,248.6,169.2,249,168.1z M235.7,164
			c0.3-0.6,0.4-0.8,0.4-0.9c-0.1-0.2-0.3-0.4-0.5-0.6c-0.1,0.2-0.2,0.4-0.2,0.6C235.3,163.3,235.5,163.6,235.7,164z"/>
		<path class="st1" d="M252.3,166.1c1.1-0.9,2.2-1.9,3.4-2.8c2.1-1.6,4.4-1.6,6.8-0.4c0.4,0.2,0.9,0.5,1.2,0.8
			c1.8,1.7,2.7,5.4,1.7,7.8c-0.6,1.4-1,2.8-2.2,3.8c-2.7,2.3-7.1,3-10.6-0.3c-1.5-1.4-2-3.2-1.4-5.2
			C251.5,168.7,251.8,167.6,252.3,166.1z"/>
		<path class="st1" d="M203,166.7c1.2-0.3,2.1-0.3,2.9-0.6c4.1-1.6,8.8,1.3,9.9,5.5c0.2,0.6,0.2,1.2-0.4,1.6
			c-0.5,0.3-0.9,0.8-0.7,1.5c0.2,0.6,0.3,1.2-0.2,1.6c-0.9,0.7-1.5,1.9-2.8,2.2c-2.4,0.6-4.7,0.6-7.1-0.1c-1.1-0.3-2-0.9-2.4-2
			c-0.3-0.7-0.7-1.4-1.1-2.1c-0.8-1.6-0.8-3.3,0.1-4.8C201.7,168.5,202.4,167.6,203,166.7z"/>
		<path class="st1" d="M222.5,170.5c-1.2-0.3-2.6-0.6-4-1c-1.3-0.4-2.2-1.3-2.8-2.5c-0.7-1.5-0.6-2.1,0.6-3.4
			c0.4-0.4,0.8-0.9,1.1-1.4c2.7-3.1,9.3-4.5,12.7-2.6c0.8,0.4,1.6,0.9,2.2,1.6c1.3,1.4,1.3,3.3,0.2,4.9
			C230.1,169.3,226.6,170.1,222.5,170.5z"/>
		<path class="st1" d="M240,176.8c-0.1,0.7-0.4,1.4-0.3,2c0.3,1.7-0.5,2.7-1.9,3.4c-2.7,1.2-5.5,1.6-8.4,0.5c-1-0.4-2.1-0.7-3.1-1.1
			c-2.2-0.9-2.9-3.4-1.6-5.4c0.3-0.4,0.5-0.8,0.7-1.2c0.2-0.3,0.3-0.8,0.6-1c3-1.9,6.1-2.9,9.6-1.4
			C237.2,173.2,238.6,174.6,240,176.8z"/>
		<path class="st1" d="M246.7,150.8c2,0.4,2.9,1.4,3.1,3.1c0.4,3.2,0.3,6.4-0.7,9.4c-0.3,1-0.9,2-1.6,2.8c-1.3,1.4-3.3,1.2-3.9-0.6
			c-0.5-1.7-1.2-3.4-0.8-5.5C243.5,156.8,244.7,153.8,246.7,150.8z"/>
		<path class="st1" d="M222.7,151.9c1-1.1,2.2-1.7,3.5-1.6c2,0.2,4,0.4,5.9,1c0.9,0.3,1.9,1.2,2.4,2.1c0.7,1.1,1,2.6,1.8,3.7
			c0.2,0.3,0.1,1-0.2,1.4c-0.5,0.6-1.1,1.1-1.8,1.7c-0.5-0.3-0.9-0.6-1.2-0.9c-2.3-1.9-4.9-2.7-7.8-2.5c-2.3,0.2-2.9-0.6-2.8-2.7
			C222.6,153.4,222.6,152.6,222.7,151.9z"/>
		<path class="st1" d="M232.2,169.8c0.2-0.4,0.2-0.8,0.4-1c0.5-0.6,1.1-1.2,1.5-1.7c2.1-0.3,3.9-0.2,5.5,1.2
			c0.8,0.7,1.7,0.9,2.8,0.9c2.1-0.1,3.3,1.1,3.9,3c1,2.8,0.7,3.9-1.7,5.5c-0.6,0.4-1.2,0.6-1.9,1C241.4,173,237.2,171,232.2,169.8z"
			/>
		<path class="st1" d="M223.7,182.7c3,0.7,5.3,2.3,8,2.5c2.7,0.1,5.4-0.2,7.8-1.2c0.7,0.4,0.5,0.9,0.3,1.3c-0.8,1.5-2,2.5-3.7,2.6
			c-2.8,0.2-5.5,0.2-8.3-0.4C225.2,186.9,224.2,185.4,223.7,182.7z"/>
		<path class="st1" d="M240.7,165c-0.8,0.4-1.3,0-1.8-0.5c-1.1-1.5-1.2-3.1-0.4-4.8c0.4-0.9,0.4-1.8,0.4-2.8c-0.1-2.5,1-4.6,3.2-6
			c0.2-0.1,0.6,0,1,0c0,0.4,0.1,0.8,0,1.1c-0.4,1.3-0.9,2.6-1.4,3.9c-1.1,2.5-1.4,5.1-1,7.9c0,0.3,0.1,0.6,0.1,0.9
			C240.9,164.8,240.8,164.9,240.7,165z"/>
		<path class="st1" d="M219.2,151.6c0,2.6,0,4.4,0.9,6.1c-1.5,0.9-3.1,1.6-4.3,2.7c-1.2,1.1-2.1,2.5-3.2,3.9c0-0.3-0.2-0.6-0.1-0.8
			c1.1-2.6,2.2-5.1,3.4-7.6C216.4,154.3,217.5,153.2,219.2,151.6z"/>
		<path class="st1" d="M217,150.9c-0.1,0.3-0.2,0.6-0.4,0.8c-1.8,1.8-2.9,4-3.7,6.4c-0.3,1-0.8,2-1.2,3s-1.1,1-2.1,0.6
			c-0.2-2.1,0.5-4,1.6-5.7C212.6,153.7,214.2,151.5,217,150.9z"/>
		<path class="st1" d="M237,152.7c-1.7-3-4.5-3.6-7.4-4.2c-1.2-0.3-2.6,0.1-3.8-0.5c0.4-1.2,1.4-1.2,2.2-1.4c1.7-0.4,3.3-0.5,5,0.2
			c1.5,0.7,2.7,1.7,3.7,3C237.3,150.5,237.5,151.5,237,152.7z"/>
		<path class="st1" d="M216.3,177.6c0.2,1.8-0.6,3-1.5,4c-0.4,0.4-1,0.9-1.6,0.5c-1.2-0.7-2.3-0.2-3.4,0.2c-1.2,0.5-2.3,0.4-3.5,0.2
			c-0.7-0.2-1.3-0.5-1.3-1.4c0.8-0.6,1.7-0.4,2.5,0c1.9,0.8,3.5,0.2,5.1-0.7C213.8,179.5,214.9,178.6,216.3,177.6z"/>
		<path class="st1" d="M251.4,177.3c5.8,2.6,4.7,1.9,10.7,1.5c-1.8,2.5-4.2,2.4-6.7,2c-1.3-0.2-2.3-0.8-3.1-1.7
			C251.9,178.8,251.7,178.1,251.4,177.3z"/>
		<path class="st1" d="M223.3,172.7c-1.1,2.4-3,1.7-4.8,1.7c0-1,0-1.7,0-2.6C220.2,171.8,221.7,172.3,223.3,172.7z"/>
		<path class="st1" d="M249,168.1c-0.4,1.1-0.6,1.7-0.9,2.4C247,169,247,169,249,168.1z"/>
		<path class="st1" d="M235.7,164c-0.2-0.4-0.3-0.6-0.4-0.9c0-0.2,0.1-0.4,0.2-0.6c0.2,0.2,0.4,0.4,0.5,0.6
			C236.1,163.2,235.9,163.4,235.7,164z"/>
	</g>
	<g>
		<path class="st0" d="M248.9,247.8c-0.1-0.7-0.1-1.2-0.1-1.7c2.1-3,4.8-5.3,8.2-6.6c0.9-0.3,1.7-0.8,2.5-1.2c2-1,4.1-1.8,6.4-2.1
			c0.6-0.1,1.1-0.3,1.7-0.4c3.5-0.9,7-1.6,10.6-1.5c0.8,0,1.7,0,2.5,0.1c1.5,0.2,2.9,0.7,3.8,2.1c0.1,0.2,0.3,0.4,0.5,0.6
			c1.5,1.7,1.8,3.7,0.9,5.8c-0.6,1.5-1.2,3.1-1.9,4.6c-0.2,0.5-0.5,0.9-0.8,1.2c-2.2,2.4-4.4,4.9-7.6,5.8c-1.6,0.5-1.8,1.8-2.1,3.1
			c-0.5,2.5-2.1,4.4-4.2,5.7c-1.4,0.9-3,1.6-4.5,2c-3.6,1.1-7.3,2-11,2.4c-2.7,0.3-5.5,0-8.3,0.1c-1.8,0-3.4-0.5-5-1.3
			c-1.1-0.5-1.8-1.3-2.1-2.3c-0.8-2.3-1.5-4.6-1.6-7c-0.1-1.3,0.3-2.4,1.2-3.4c1.4-1.5,3-2.6,4.9-3.4
			C244.7,249.5,246.7,248.7,248.9,247.8z M250.1,261.9c3.2-0.3,6.5-0.6,9.7-1.1c3.5-0.5,6.7-1.9,9.8-3.5c1-0.5,1.8-1.1,2-2.4
			c0.1-0.4,0.4-0.7,0.7-1c1-1.1,1.2-1.7,0.4-2.8c-1.3-2-2.9-3.5-5.6-3.5c-2,0-4.2,0.3-6.1-0.6c-0.3-0.2-0.8,0-1.2,0
			c-2,0.3-4,0.6-5.9,1.1c-3.4,0.8-6.7,1.9-9.8,3.6c-1.4,0.7-2.7,1.6-4,2.5c-0.4,0.3-0.7,0.7-0.9,1.1c-0.6,1.7-0.2,4.1,1.7,4.9
			c0.7,0.3,1.4,0.7,2.1,0.8C245.3,261.5,247.7,261.9,250.1,261.9z M273.8,249.6c0.9,0.1,1.8,0,2.6-0.5c1.2-0.6,2.4-1.1,3.6-1.7
			c0.6-0.3,1.3-0.6,1.7-1.1c1.3-1.6,2.1-3.4,2.6-5.4c0.1-0.3,0-0.7-0.1-1c-0.6-2.4-1.7-3.4-4.1-3.7c-0.7-0.1-1.3-0.1-2-0.2
			c-2.4-0.2-4.8,0.2-7.2,0.7c-3.6,0.7-7.2,1.5-10.5,3.1c-1.5,0.7-3.1,1.3-4.5,2.1c-1.1,0.6-2.1,1.3-3.1,2.1c-0.5,0.4-0.9,1-1.2,1.6
			c-0.1,0.2-0.1,0.7,0.1,0.9c0.2,0.2,0.6,0.3,0.9,0.2c2.2-0.7,4.6-1,6.9-1.3c3.4-0.4,6.8-0.1,10.2,0.8c0.6,0.2,1.2,0.5,1.7,1
			C272,247.9,272.9,248.8,273.8,249.6z M271,258.3c-1.2,0.6-2.5,1.3-3.7,1.9c-2.5,1.2-5.1,2.1-7.9,2.2c-0.6,0-1.2,0.1-1.7,0.2
			c-2.9,0.5-5.8,0.8-8.7,0.8s-5.7-0.3-8.3-1.4c-0.1,0-0.3,0.1-0.6,0.1c-0.1,1,0,2,0.9,2.6c0.8,0.5,1.8,1,2.7,1.1
			c3.8,0.6,7.6,0.5,11.5-0.3c2.2-0.5,4.4-0.9,6.6-1.3c2-0.4,3.9-0.8,5.7-1.9C269,261.5,270.5,260.4,271,258.3z M278.9,250.5
			c-0.2-0.1-0.4-0.2-0.5-0.2c-1.1,0.5-2.2,1-3.3,1.6c-0.1,0.1-0.1,0.4-0.1,0.6c0,0.1,0.3,0.2,0.4,0.2
			C276.9,252.5,278,251.7,278.9,250.5z"/>
		<path class="st0" d="M304.7,247.4c-0.2,1.8-0.3,3.4-0.5,4.9c-0.4,2.6-1.7,4.9-3,7.1c-1.1,1.8-2.4,3.4-3.7,5.1
			c-0.5,0.6-1.2,1.2-1.8,1.7c-4,3-8.5,4.6-13.5,4.3c-0.5,0-1-0.1-1.5-0.3c-1.8-0.5-2.8-1.6-3-3.5c-0.2-1.6-0.5-3.1-0.9-4.7
			c-0.4-1.8-0.1-3.3,1.3-4.5c1-0.9,1.9-1.9,2.8-2.9c0.6-0.6,1.1-1.2,1.7-1.9c2.1-2.5,4.1-5,6.3-7.4c1-1.1,2.3-1.9,3.6-2.7
			c1.6-1,3.6-1.3,5.3-1c2.2,0.3,4.4,1.1,5.5,3.4C303.7,245.9,304.3,246.7,304.7,247.4z M302.1,253.1c-0.2,0.1-0.6,0-0.7,0.2
			c-0.6,0.7-1.2,1.4-1.8,2.1c-1.2,1.4-2.3,2.8-3.7,4.1c-1.2,1.2-2.6,2.3-4,3.4c-3.4,2.6-7.2,3.8-11.5,2.6c-0.1,0-0.3,0.1-0.4,0.1
			c-0.2,1.5,0,1.7,0.8,2.3c1.4,0.9,2.9,0.6,4.4,0.5c3.7-0.2,6.9-1.8,9.7-4.1c3.1-2.6,4.9-6.2,6.7-9.8
			C301.9,254.1,301.9,253.5,302.1,253.1c0-0.2,0-0.4,0-0.5l-0.1-0.1C302,252.7,302,252.9,302.1,253.1z M279.5,262.9
			c2.3,1.5,4.9,1.7,7.6,0.7c1.4-0.5,2.7-1.4,3.9-2.3c1.5-1.1,2.8-2.4,4.1-3.6c2.1-2,4.1-4.2,5.5-6.8c0.4-0.7,0.8-1.5,1-2.3
			c0.6-2,0.1-3.3-1.9-4.3c-0.2-0.1-0.5-0.2-0.7-0.3c-1.1-1.1-2.5-0.9-3.8-0.6c-0.7,0.2-1.4,0.5-2.1,0.8c-2.2,1-3.8,2.7-5.3,4.5
			c-2.2,2.6-4.4,5.2-6.6,7.8c-0.5,0.6-1,1.1-1.5,1.7C280.2,259.8,278.7,261.1,279.5,262.9z"/>
		<path class="st1" d="M250.1,261.9c-2.4,0-4.8-0.3-7.2-0.8c-0.7-0.1-1.4-0.5-2.1-0.8c-1.9-0.8-2.3-3.2-1.7-4.9
			c0.2-0.4,0.5-0.9,0.9-1.1c1.3-0.9,2.6-1.8,4-2.5c3.1-1.7,6.4-2.8,9.8-3.6c1.9-0.5,3.9-0.7,5.9-1.1c0.4-0.1,0.9-0.2,1.2,0
			c2,0.9,4.1,0.7,6.1,0.6c2.7,0,4.3,1.5,5.6,3.5c0.7,1.2,0.6,1.7-0.4,2.8c-0.3,0.3-0.6,0.6-0.7,1c-0.2,1.2-1.1,1.9-2,2.4
			c-3.1,1.7-6.3,3-9.8,3.5C256.6,261.3,253.4,261.5,250.1,261.9z M259,258.2c-0.2-0.5-0.4-1.1-0.7-1.5c-1-1.5-2.1-3-2.4-4.9
			c-0.1-0.4-0.5-0.8-0.9-1.1s-1-0.1-1.2,0.4c-0.2,0.6,0,1.1,0.3,1.7c0.7,1.2,1.4,2.5,2.1,3.7c0.5,0.8,1,1.5,1.6,2.2
			c0.1,0.1,0.5,0.2,0.7,0.1C258.6,258.7,258.8,258.5,259,258.2z"/>
		<path class="st1" d="M273.8,249.6c-0.9-0.8-1.7-1.6-2.6-2.3c-0.5-0.4-1.1-0.8-1.7-1c-3.3-0.9-6.7-1.2-10.2-0.8
			c-2.3,0.3-4.6,0.6-6.9,1.3c-0.3,0.1-0.7,0-0.9-0.2s-0.2-0.7-0.1-0.9c0.3-0.6,0.7-1.2,1.2-1.6c1-0.8,2-1.5,3.1-2.1
			c1.5-0.8,3-1.4,4.5-2.1c3.4-1.5,6.9-2.4,10.5-3.1c2.4-0.5,4.8-0.9,7.2-0.7c0.7,0.1,1.3,0.1,2,0.2c2.5,0.3,3.6,1.3,4.1,3.7
			c0.1,0.3,0.1,0.7,0.1,1c-0.4,2-1.3,3.8-2.6,5.4c-0.4,0.5-1.1,0.8-1.7,1.1c-1.2,0.6-2.5,1-3.6,1.7
			C275.5,249.5,274.7,249.6,273.8,249.6z M268.1,243.4c-0.2-1.4-0.3-2.4-0.4-3.4c0-0.6-0.2-1-0.8-1.1c-0.4-0.1-0.8,0-1.1,0.2
			c-0.5,0.3-0.4,0.8-0.1,1.3c0.4,0.8,0.8,1.6,1.3,2.4C267.2,243.1,267.6,243.1,268.1,243.4z"/>
		<path class="st1" d="M271,258.3c-0.6,2.1-2,3.2-3.6,4.1c-1.7,1-3.7,1.5-5.7,1.9c-2.2,0.4-4.4,0.8-6.6,1.3
			c-3.8,0.8-7.6,0.8-11.5,0.3c-1-0.1-1.9-0.6-2.7-1.1c-0.9-0.6-1-1.6-0.9-2.6c0.3-0.1,0.5-0.2,0.6-0.1c2.7,1.2,5.5,1.4,8.3,1.4
			c2.9,0,5.8-0.3,8.7-0.8c0.6-0.1,1.2-0.2,1.7-0.2c2.8-0.1,5.4-1,7.9-2.2C268.6,259.6,269.8,259,271,258.3z"/>
		<path class="st1" d="M278.9,250.5c-0.9,1.2-2,1.9-3.5,2.2c-0.1,0-0.4-0.1-0.4-0.2c0-0.2,0-0.6,0.1-0.6c1.1-0.6,2.2-1.1,3.3-1.6
			C278.5,250.3,278.7,250.4,278.9,250.5z"/>
		<path class="st1" d="M279.5,262.9c-0.8-1.8,0.7-3.1,0.3-4.7c0.5-0.6,1-1.1,1.5-1.7c2.2-2.6,4.4-5.2,6.6-7.8
			c1.5-1.8,3.1-3.5,5.3-4.5c0.7-0.3,1.4-0.6,2.1-0.8c1.3-0.3,2.7-0.5,3.8,0.6c0.2,0.2,0.5,0.2,0.7,0.3c1.9,1,2.5,2.2,1.9,4.3
			c-0.2,0.8-0.6,1.6-1,2.3c-1.4,2.6-3.4,4.8-5.5,6.8c-1.3,1.3-2.7,2.5-4.1,3.6c-1.2,0.9-2.5,1.8-3.9,2.3
			C284.4,264.7,281.8,264.4,279.5,262.9z M295,256.8c0.6-0.8,0.5-1.4-0.1-1.7c-0.5-0.4-1.2-0.6-1.8-0.8c-1.6-0.6-3.4-0.9-4.7-2.1
			c-0.3-0.3-0.8-0.2-1.1,0.2c-0.3,0.4-0.3,1.1,0.1,1.4c0.3,0.2,0.7,0.5,1.1,0.6c1.8,0.5,3.5,1.1,5.1,2.1
			C293.9,256.7,294.5,256.7,295,256.8z"/>
		<path class="st1" d="M302,253.1c-0.1,0.5-0.1,1-0.4,1.5c-1.8,3.6-3.6,7.2-6.7,9.8c-2.8,2.3-6,3.9-9.7,4.1c-1.5,0.1-3,0.4-4.4-0.5
			c-0.8-0.5-1-0.8-0.8-2.3c0.2,0,0.3-0.2,0.4-0.1c4.3,1.2,8.1-0.1,11.5-2.6c1.4-1,2.8-2.2,4-3.4c1.3-1.3,2.5-2.7,3.7-4.1
			c0.6-0.7,1.1-1.4,1.8-2.1C301.5,253.1,301.8,253.2,302,253.1L302,253.1z"/>
		<path class="st1" d="M302.1,253.1c0-0.2-0.1-0.4-0.1-0.6l0.1,0.1C302.1,252.7,302,252.9,302.1,253.1
			C302,253.1,302.1,253.1,302.1,253.1z"/>
		<path class="st0" d="M259,258.2c-0.2,0.3-0.4,0.5-0.6,0.6s-0.6,0-0.7-0.1c-0.6-0.7-1.1-1.5-1.6-2.2c-0.7-1.2-1.4-2.4-2.1-3.7
			c-0.3-0.5-0.5-1.1-0.3-1.7c0.2-0.5,0.8-0.8,1.2-0.4c0.4,0.3,0.8,0.7,0.9,1.1c0.4,1.9,1.5,3.3,2.4,4.9
			C258.6,257.1,258.8,257.7,259,258.2z"/>
		<path class="st0" d="M268.1,243.4c-0.5-0.2-0.9-0.3-1.1-0.5c-0.5-0.8-0.8-1.6-1.3-2.4c-0.3-0.5-0.4-1,0.1-1.3
			c0.3-0.2,0.8-0.3,1.1-0.2c0.5,0.1,0.7,0.6,0.8,1.1C267.8,241,267.9,241.9,268.1,243.4z"/>
		<path class="st0" d="M295,256.8c-0.5-0.1-1.1-0.1-1.5-0.4c-1.6-1-3.3-1.6-5.1-2.1c-0.4-0.1-0.8-0.3-1.1-0.6
			c-0.4-0.3-0.4-0.9-0.1-1.4c0.3-0.4,0.8-0.5,1.1-0.2c1.4,1.3,3.1,1.5,4.7,2.1c0.6,0.2,1.3,0.4,1.8,0.8
			C295.5,255.5,295.6,256,295,256.8z"/>
	</g>
	<g>
		<path class="st0" d="M210.3,235.9c-2.6,0.1-4.7-0.2-6.7-1.2c-1.6-0.8-2.7-2-3.3-3.7c-0.9-2.8-1.3-5.7-0.2-8.5s3.1-4.9,5.4-6.7
			c1.9-1.4,4.2-1.3,6.5-1c2.6,0.4,4.9,1.6,7,3.1c1.7,1.2,2.9,2.9,3.4,5c0.3,1.5,0.6,3,0.7,4.5c0.2,2.6-0.7,4.6-3.1,5.9
			C216.9,234.9,213.6,236.3,210.3,235.9z M212.9,230.9c0.6-0.1,1.9-0.1,2.9-0.6c5.7-2.6,5.5-7.9,2.1-10.9c-1.6-1.4-3.4-2.2-5.4-2.8
			c-0.4-0.1-0.9-0.2-1.2,0c-0.8,0.5-1.6,0.4-2.5,0.4c-1.9,0-2.9,0.9-3.3,2.8c-0.2,0.8-0.5,1.3-0.9,2c-1.1,1.6-1,3.3,0.1,4.8
			C206.6,229.3,209.1,230.8,212.9,230.9z M213.2,234c0-0.2,0-0.4,0-0.6c-1.4-0.4-2.9-0.6-4.3-1.1c-1.4-0.5-2.8-1.2-4-2.1
			c-1.1-0.9-2-2.1-3-3.2c-0.2,0.4-0.4,0.6-0.3,0.8c0.6,4.1,1.7,5.5,5.8,6.1C209.2,234.3,211.2,234,213.2,234z M215.8,233
			c-0.1,0-0.2-0.1-0.3-0.1c0,0-0.1,0.1-0.1,0.2c0.1,0,0.2,0.1,0.3,0.1C215.7,233.2,215.7,233.1,215.8,233z M218.1,231.7l0.2,0.1
			v-0.2L218.1,231.7z"/>
		<path class="st1" d="M212.9,230.9c-3.8-0.1-6.3-1.6-8.2-4.2c-1.1-1.5-1.2-3.2-0.1-4.8c0.4-0.6,0.7-1.2,0.9-2
			c0.4-1.9,1.4-2.8,3.3-2.8c0.9,0,1.7,0.1,2.5-0.4c0.3-0.2,0.8-0.1,1.2,0c2,0.5,3.8,1.3,5.4,2.8c3.4,3,3.6,8.3-2.1,10.9
			C214.8,230.8,213.5,230.8,212.9,230.9z"/>
	</g>
	<g>
		<path class="st0" d="M203.6,225c0.2,0.3,0.7,1.1,1.1,1.8c2.5,4.2,1.5,9.3-3.2,12.3c-1.7,1.1-3.6,2-5.6,2.6
			c-2.2,0.7-4.5,0.6-6.7-0.2c-2.4-0.8-4.5-2.1-6.3-3.8c-1.7-1.6-2.4-3.6-1.9-5.9c1-5,3.8-8.4,8.7-9.9c1.9-0.6,4-0.6,6-0.7
			c1.4-0.1,2.7,0.7,3.9,1.5C200.8,223.4,202,224.1,203.6,225z M192.9,234.8c3,0.2,5.7-1,8.3-2.2c1.8-0.9,2.6-3.9,1-5.5
			c-1-1-2-2-3.1-2.8c-2.2-1.5-4.7-1.7-7-0.3c-1.5,0.9-2.8,1.9-4.5,2.3c-1.6,0.3-3.1,2.7-3,4.2c0,1.8,1.4,2.5,2.8,3.2
			c0.6,0.3,1.2,0.5,1.8,0.6C190.4,234.5,191.7,234.6,192.9,234.8z M183.8,234.8c2.2,3.5,5.5,5.3,9.4,5.2c3.6-0.1,6.8-1.9,9.3-4.6
			c0,0,0-0.2,0-0.6c-3,1.3-6,2.4-9.3,2.2C190,236.8,186.8,236.3,183.8,234.8z"/>
		<path class="st1" d="M192.9,234.8c-1.3-0.2-2.6-0.3-3.8-0.5c-0.6-0.1-1.3-0.3-1.8-0.6c-1.3-0.7-2.7-1.4-2.8-3.2
			c0-1.5,1.4-3.9,3-4.2c1.8-0.4,3.1-1.4,4.5-2.3c2.3-1.4,4.8-1.2,7,0.3c1.1,0.8,2.1,1.8,3.1,2.8c1.7,1.6,0.8,4.7-1,5.5
			C198.7,233.8,196,235,192.9,234.8z"/>
		<path class="st1" d="M183.8,234.8c3,1.5,6.1,2,9.4,2.1c3.3,0.1,6.3-0.9,9.3-2.2c0,0.5,0,0.6,0,0.6c-2.5,2.8-5.7,4.5-9.3,4.6
			C189.3,240.1,186,238.3,183.8,234.8z"/>
	</g>
	<g>
		<path class="st0" d="M152,160.2c-3,0.1-6.1-0.5-8.8-2.5c-1.6-1.2-2.9-2.8-2.9-4.8c0.1-2.5-0.2-5.1,2.3-7c4.1-3.1,8.3-4.9,13.5-3.6
			c1,0.3,2,0.5,3,0.8c3.9,1.2,6.7,4.7,7,8.7c0.2,1.8-0.4,3.3-1.9,4.3c-0.2,0.1-0.5,0.2-0.6,0.4C160.4,159.8,156.5,160.4,152,160.2z
			 M153.4,153.3c2.3,0.1,4-1.2,5.8-2c1.2-0.5,2-1.5,1.8-2.7s-0.6-2.4-2.1-2.9c-2.7-0.9-5.4-1.6-8.2-0.2c-0.8,0.4-1.7,0.4-2.6,0.6
			c-0.7,0.2-1.5,0.4-2.1,0.9c-1.9,1.4-1.5,4.2,0.6,4.9C148.8,152.4,151.1,152.8,153.4,153.3z M163,151.9c-1,0.6-1.7,1.1-2.5,1.5
			c-1.4,0.7-2.7,1.4-4.2,1.8c-3.9,1.2-7.5,0-11.2-1.1c-0.5-0.1-1-0.2-1.8-0.4c0.7,1.5,1.4,2.5,2.7,3c4,1.5,8,1.6,12,0.3
			c2.1-0.7,3.7-2.2,5.1-3.9C163.2,153,163.1,152.7,163,151.9z"/>
		<path class="st1" d="M153.4,153.3c-2.2-0.5-4.5-0.8-6.7-1.5s-2.5-3.5-0.6-4.9c0.6-0.4,1.3-0.6,2.1-0.9c0.8-0.3,1.8-0.2,2.6-0.6
			c2.8-1.4,5.5-0.7,8.2,0.2c1.5,0.5,1.9,1.7,2.1,2.9c0.2,1.2-0.6,2.2-1.8,2.7C157.3,152.1,155.6,153.4,153.4,153.3z"/>
		<path class="st1" d="M163,151.9c0.1,0.8,0.2,1.1,0.1,1.2c-1.3,1.7-2.9,3.2-5.1,3.9c-4,1.3-8,1.2-12-0.3c-1.3-0.5-2.1-1.4-2.7-3
			c0.7,0.2,1.3,0.2,1.8,0.4c3.7,1,7.4,2.3,11.2,1.1c1.4-0.4,2.8-1.2,4.2-1.8C161.3,153,162,152.5,163,151.9z"/>
	</g>
	<g>
		<path class="st0" d="M210.7,205.9c0.4,1,0.7,1.9,1,2.8c-0.3,0.5-0.5,1-0.9,1.3c-1,1-1.6,2.3-1.9,3.7c-0.4,2-1.4,3.3-3.4,3.9
			c-1.8,0.6-3.2,1.6-4.4,3.2c-0.7,1-1.8,1.8-2.8,2.7c-0.9,0.8-2,0.7-3,0.1c-2.3-1.5-4.1-3.4-5.4-5.9c-1.5-2.9-0.8-7,1.5-9.3
			c1.7-1.7,3.8-2.9,6.2-3.2c1.2-0.2,2.4-0.3,3.5-0.3c0.6,0,1.3,0.1,1.9,0.1C205.7,205.4,208.2,205.7,210.7,205.9z M202.2,216.5
			c-0.5,0.2-1,0.3-1.6,0.5c-0.3,0.6-0.6,1.1-0.9,1.9c1-0.5,1.4-1,0.9-1.9C201.1,216.8,201.6,216.6,202.2,216.5c0.6,0,1.3,0,1.9,0
			c0.2-1,1.3-1,1.9-1.6c1.1-1,1.5-2.1,1.4-4c-0.5,1-0.6,1.6-1,2.1s-0.9,0.9-1.5,1.2c-0.8,0.6-1.1,1.2-0.8,2.2
			C203.5,216,202.8,216,202.2,216.5z M193.3,218.8c2.4-0.2,3.9-1.3,5.4-2.6c0.7-0.6,1.6-1.1,2.3-1.7c1.1-0.9,2.3-1.7,3.1-2.8
			c1-1.4,2.1-2.7,3.7-3.5c0.4-0.2,0.7-0.5,0.4-1.2c-1.8-0.5-3.7-0.2-5.6-0.5c-2.5-0.5-4.7,0.2-6.9,1.1c-1.5,0.6-3,1.5-3.6,3.1
			C191,213.7,190.9,216.4,193.3,218.8z"/>
		<path class="st1" d="M193.3,218.8c-2.4-2.4-2.4-5.2-1.2-8.1c0.7-1.6,2.2-2.5,3.6-3.1c2.2-1,4.4-1.6,6.9-1.1c1.9,0.4,3.8,0,5.6,0.5
			c0.4,0.7,0,1-0.4,1.2c-1.6,0.8-2.7,2-3.7,3.5c-0.8,1.1-2,1.9-3.1,2.8c-0.8,0.6-1.6,1.1-2.3,1.7
			C197.2,217.5,195.7,218.7,193.3,218.8z"/>
		<path class="st1" d="M204.1,216.5c-0.3-0.9,0-1.6,0.8-2.2c0.5-0.4,1.1-0.7,1.5-1.2s0.5-1.1,1-2.1c0.1,1.9-0.3,3-1.4,4
			C205.4,215.5,204.3,215.5,204.1,216.5L204.1,216.5z"/>
		<path class="st1" d="M200.6,217c0.4,0.8,0.1,1.4-0.9,1.9C200.1,218.2,200.3,217.6,200.6,217L200.6,217z"/>
		<path class="st1" d="M202.1,216.4c-0.5,0.2-1,0.4-1.5,0.6l0,0C201.1,216.8,201.7,216.7,202.1,216.4L202.1,216.4z"/>
		<path class="st1" d="M202.2,216.5c0.6-0.5,1.3-0.5,1.9,0l0,0C203.4,216.5,202.8,216.5,202.2,216.5
			C202.1,216.4,202.2,216.5,202.2,216.5z"/>
	</g>
	<g>
		<path class="st0" d="M193.5,205.2c-0.8,4.9-3.9,8-8.1,10.2c-0.5,0.2-1,0.5-1.5,0.5c-3.5,0.1-7-0.1-10.1-1.6
			c-2.9-1.5-5.2-3.8-5.5-7.4c-0.2-2.5-0.6-4.9-0.3-7.4c0.2-1.6,0.7-2.8,1.8-4c2.3-2.4,4.6-4.8,7.2-6.9c1.6-1.2,3.3-1.7,5.1-1.3
			c2.5,0.5,5,1.3,7.5,2.1c1.6,0.5,2.7,1.7,3.4,3.2c1.4,2.9,2,5.9,1.2,9.1C194,202.9,193.7,204.1,193.5,205.2z M174.1,195
			c-1.5,0.9-1.9,2.6-2.4,4.1c-1.7,5,0.1,8.8,5.1,10.5c3.8,1.2,7.4,0.4,11-1.2c2.1-0.9,3.1-2.6,3.7-4.6c0.5-1.8,0.3-3.9,1.3-5.6
			c0.2-0.4,0-1.1-0.2-1.6c-0.3-0.9-0.6-1.8-1-2.7c-0.5-1.4-1.5-2.3-2.9-2.8c-0.8-0.3-1.6-0.6-2.5-0.8c-3.1-0.6-6-0.3-8.8,1.3
			c-0.9,0.5-1.8,1.2-2.1,2.3c0.9,0.5,1.8,0.6,2.3,1.7c0.5,1.2,1.6,2,3.2,2.1c0.6-0.8,1.4-1.6,1.9-2.5c0.3-0.5-0.1-1.3-0.2-2.3
			c1.8,0.6,3.6,0.6,4.2,2.8c-1.5,0.9-3.2,1.5-4,3.3c0.9,1.4,3.1,1.9,3.5,4.1c-2.3,0-3.4-2.5-5.7-2.3c-1.6,1.1-3,2.5-4,4.3
			c-0.3,0.5-0.9,0.7-1.4,0.3c-0.5-0.3-0.7-0.9-0.4-1.4c0.7-0.9,1.4-1.9,2.3-2.7c0.6-0.6,1.2-1.2,1.5-2.2c-0.8-0.6-1.6-1.2-2.3-1.8
			C175.5,196.5,174.9,195.7,174.1,195z M187.3,210.7c-0.9,0.2-1.9,0.4-2.8,0.7c-4.1,1-7.9,0.8-11.5-1.6c-0.3-0.2-0.7-0.6-1.1,0.1
			c1.9,2.6,4.6,3.7,7.8,3.9C182.7,214,185.5,213.7,187.3,210.7z"/>
		<path class="st1" d="M174.1,195c0.7,0.8,1.4,1.6,2.2,2.3c0.7,0.6,1.5,1.2,2.3,1.8c-0.3,1-0.9,1.6-1.5,2.2
			c-0.8,0.8-1.6,1.7-2.3,2.7c-0.4,0.5-0.2,1.1,0.4,1.4c0.5,0.3,1.1,0.2,1.4-0.3c1-1.9,2.4-3.3,4-4.3c2.3-0.2,3.4,2.4,5.7,2.3
			c-0.4-2.2-2.5-2.7-3.5-4.1c0.8-1.9,2.5-2.4,4-3.3c-0.6-2.2-2.4-2.2-4.2-2.8c0.1,0.9,0.4,1.7,0.2,2.3c-0.4,0.9-1.2,1.7-1.9,2.5
			c-1.6-0.1-2.7-0.8-3.2-2.1c-0.4-1.1-1.4-1.2-2.3-1.7c0.3-1.2,1.2-1.8,2.1-2.3c2.8-1.5,5.7-1.9,8.8-1.3c0.8,0.2,1.7,0.5,2.5,0.8
			c1.4,0.5,2.4,1.4,2.9,2.8c0.3,0.9,0.7,1.8,1,2.7c0.1,0.5,0.4,1.2,0.2,1.6c-0.9,1.8-0.7,3.8-1.3,5.6c-0.6,2-1.7,3.7-3.7,4.6
			c-3.5,1.6-7.2,2.4-11,1.2c-5-1.6-6.8-5.5-5.1-10.5C172.2,197.6,172.6,195.9,174.1,195z"/>
		<path class="st1" d="M187.3,210.7c-1.8,3-4.7,3.3-7.6,3.1c-3.1-0.2-5.9-1.3-7.8-3.9c0.4-0.7,0.8-0.3,1.1-0.1
			c3.6,2.4,7.5,2.6,11.5,1.6C185.5,211.2,186.4,211,187.3,210.7z"/>
	</g>
	<g>
		<path class="st0" d="M180.2,218.4c-0.2,1.8-0.4,3.6-0.7,5.4c-0.5,3.2-2.6,4.8-5.5,5.6c-5.1,1.4-9.8,0.4-14.4-1.9
			c-1.8-0.9-3-2.4-3.6-4.4c-0.7-2.3-0.8-4.7,0.1-7c0.3-0.8,0.7-1.6,0.9-2.4c0.6-1.8,1.8-3.2,3.4-4.2c2.2-1.4,4.4-2.7,6.7-3.9
			c1.8-0.9,3.7-0.7,5.3,0.3c2.3,1.4,4.4,3.1,6,5.3C180,213.5,180.3,215.9,180.2,218.4z M160.9,212.3c1.4,1.5,3,2,4.7,2.5
			c0.3,0.1,0.6-0.1,0.9-0.1c0.3-0.8,0.6-1.6,0.8-2.4c1.6,0.2,1.8,0.4,1.8,1.3c0,0.6-0.1,1.2-0.2,1.8c1.1,0.8,2.3,1,3.5,1.2
			c1.3,0.3,1.8,0.7,1.5,1.2c-0.6,0.9-1.3,0.4-2,0.3c-0.5-0.1-1-0.4-1.6-0.4c-1-0.2-2.1-0.2-3.2-0.4c-0.5,1.1-0.9,2-1.4,3.1
			c-2.4-1.2-0.1-2.7-0.6-4.1c-0.9-0.2-1.8-0.5-2.7-0.8s-1.7-0.7-2.6-1c-1.4,5.8,1.6,10.1,7.3,10.4c3.3,0.2,6.2-0.6,8.7-2.8
			c1.3-1.1,2.3-2.2,2.1-4.1c-0.1-0.5,0.3-1,0.3-1.6c0-0.7,0.1-1.5-0.1-2.2c-1-3.1-3.2-5-6-6.4c-0.3-0.1-0.6-0.2-0.9-0.2
			c-2.2,0.5-4.5,0.8-6.6,1.6C163.1,209.8,161.5,210.5,160.9,212.3z M157.9,222.2c0.4,1.2,0.5,1.8,0.8,2.1c0.6,0.6,1.3,1.1,2.1,1.5
			c2.2,1.3,4.6,1.7,7.1,2.1c2.7,0.4,5.1-0.2,7.5-1.3c1.1-0.6,1.9-1.4,2.5-2.5c0.2-0.4,0.4-0.8-0.5-1c-2.3,3.1-5.8,3.8-9.4,3.8
			C164.2,226.9,161.2,225,157.9,222.2z"/>
		<path class="st1" d="M160.9,212.3c0.6-1.9,2.2-2.6,3.6-3.1c2.1-0.8,4.4-1.1,6.6-1.6c0.3-0.1,0.7,0,0.9,0.2c2.8,1.4,5,3.3,6,6.4
			c0.2,0.7,0.1,1.5,0.1,2.2c0,0.5-0.4,1.1-0.3,1.6c0.3,1.9-0.8,3-2.1,4.1c-2.5,2.2-5.4,3-8.7,2.8c-5.7-0.4-8.7-4.6-7.3-10.4
			c0.9,0.3,1.7,0.7,2.6,1c0.9,0.3,1.8,0.5,2.7,0.8c0.5,1.4-1.9,2.9,0.6,4.1c0.5-1,0.9-2,1.4-3.1c1.1,0.1,2.2,0.2,3.2,0.4
			c0.5,0.1,1,0.3,1.6,0.4c0.7,0.2,1.5,0.6,2-0.3c0.3-0.5-0.2-0.9-1.5-1.2c-1.2-0.2-2.3-0.4-3.5-1.2c0.1-0.6,0.2-1.2,0.2-1.8
			c0-0.9-0.2-1.1-1.8-1.3c-0.3,0.8-0.5,1.6-0.8,2.4c-0.3,0.1-0.7,0.2-0.9,0.1C163.9,214.4,162.3,213.8,160.9,212.3z"/>
		<path class="st1" d="M157.9,222.2c3.4,2.7,6.3,4.7,10,4.7c3.6,0,7.1-0.7,9.4-3.8c0.8,0.2,0.7,0.6,0.5,1c-0.6,1.1-1.4,1.9-2.5,2.5
			c-2.4,1.2-4.8,1.7-7.5,1.3c-2.5-0.4-4.9-0.8-7.1-2.1c-0.7-0.4-1.5-0.9-2.1-1.5C158.3,224,158.3,223.4,157.9,222.2z"/>
	</g>
	<g>
		<path class="st0" d="M182.8,225.8c-1.6-0.5-3.3-1-4.9-1.7c-0.9-0.4-1.9-1.1-2.5-2c-1.6-2.2-2.7-4.7-2.7-7.5c0-3.9,1.9-6.9,5.5-8.3
			c1.3-0.5,2.7-0.8,4.1-1.1c1.9-0.3,3.6-0.1,5.3,0.9s3.4,1.9,5.1,2.9c1.2,0.7,1.9,1.8,2.3,3c1.1,2.8,0.8,5.5,0,8.3
			c-0.1,0.3-0.2,0.6-0.4,0.9c-3,3.2-6.3,5.7-11.1,4.5c-0.2-0.1-0.4-0.1-0.6-0.1C182.8,225.6,182.8,225.7,182.8,225.8z M183.3,223.7
			C183.3,223.6,183.3,223.6,183.3,223.7c0.4,0,0.9,0,1.3,0.1c3.4,0.6,6.1-0.8,8.3-3.3c2.4-2.7,1.9-7.6-0.9-9.9
			c-1.2-1-2.4-2.2-4.2-2.4c-0.4,0-0.8-0.4-1-0.7c-0.6-1.1-1.6-1.2-2.5-1.1c-1.5,0.2-3,0.6-4.4,1.1c-3.1,1.2-5.1,4.1-5,7.2
			c0.1,3.6,1.4,6.5,5,7.9C181,223.1,182.1,223.3,183.3,223.7z"/>
		<path class="st1" d="M183.3,223.7c-1.1-0.3-2.3-0.5-3.4-0.9c-3.6-1.4-4.9-4.4-5-7.9c-0.1-3.1,1.9-6,5-7.2c1.4-0.5,2.9-0.9,4.4-1.1
			c0.9-0.1,1.9,0,2.5,1.1c0.2,0.3,0.7,0.6,1,0.7c1.7,0.2,2.9,1.4,4.2,2.4c2.9,2.3,3.3,7.2,0.9,9.9c-2.2,2.5-4.9,3.9-8.3,3.3
			C184.1,223.7,183.7,223.6,183.3,223.7C183.3,223.6,183.3,223.6,183.3,223.7z M183.3,214.3c-0.7-0.3-1.1-1.4-2.2-0.5
			c0.3,0.6,0.7,1.2,0.9,1.9c0.2,0.8,0.3,1.6,0.5,2.6c0.6-0.4,1-0.8,1.6-1c0.7-0.3,1.4-0.4,2.2-0.7c-0.3-0.6-0.5-1.2-0.7-1.7
			c0.6-0.6,1.2-1,1.6-1.6c0.1-0.2,0.1-0.6,0-0.9c-0.2-0.5-0.7-0.5-1.1-0.3C185.2,212.8,184.4,213.5,183.3,214.3z"/>
		<path class="st0" d="M183.3,214.3c1-0.8,1.8-1.5,2.7-2.1c0.4-0.3,0.9-0.2,1.1,0.3c0.1,0.2,0.2,0.7,0,0.9c-0.5,0.6-1.1,1.1-1.6,1.6
			c0.2,0.5,0.5,1,0.7,1.7c-0.8,0.2-1.5,0.4-2.2,0.7c-0.5,0.2-1,0.6-1.6,1c-0.2-1-0.2-1.9-0.5-2.6c-0.2-0.7-0.6-1.3-0.9-1.9
			C182.2,212.9,182.6,214,183.3,214.3z"/>
	</g>
</g>
</svg>
