<?xml version="1.0" encoding="utf-8"?>
<!-- Generator: Adobe Illustrator 19.2.1, SVG Export Plug-In . SVG Version: 6.00 Build 0)  -->
<svg version="1.1" id="Layer_1" xmlns="http://www.w3.org/2000/svg" xmlns:xlink="http://www.w3.org/1999/xlink" x="0px" y="0px"
	 viewBox="0 0 250.9 175.7" style="enable-background:new 0 0 250.9 175.7;" xml:space="preserve">
<style type="text/css">
	.st0{fill:#F69FAD;}
</style>
<g>
	<path class="st0" d="M35.4,77.9c-0.5-1.1-0.5-2.4-1.3-3.4c-0.6-1.2-1.4-2.9-2.5-3.8c-1-0.8-2.1-1.4-3.2-2.1
		c-1.2-0.8-2.3-1.5-3.7-1.6c-1.2-0.1-2.5-0.2-3.8-0.2c-0.7,0-1.4,0.1-2.1,0.2c-0.7,0.1-1.4,0.5-2.2,0.5c-0.7,0-1.1,0-1.8,0.3
		c-0.6,0.3-1.2,0.5-1.8,0.7c-1.2,0.5-2.4,1.2-3.5,2c-1.1,0.8-2.1,1.4-3,2.5c-0.9,1.1-1.5,2.3-2.3,3.4c-0.4,0.5-0.8,1-0.9,1.7
		c-0.1,0.6-0.3,1.2-0.5,1.8c-0.4,1.2-0.7,2.5-0.3,3.8c0.4,1,0.4,2.4,1.1,3.2c0.3,0.4,0.8,0.2,1.1,0.5c0.4,0.5,0.4,1.2,0.7,1.8
		c0.4,1.1,1.5,1,2.4,1.2c1.1,0.2,2,1,3,1.4c0.6,0.2,1.3,0.2,1.9,0.2c0.8,0,1.5,0.2,2.2,0.4c1.5,0.3,2.9-0.1,4.4-0.2
		c1.6-0.4,3.1-0.7,4.6-1.4c0.7-0.2,1.4-0.6,2-1c0.8-0.3,1.6-0.5,2.3-1c0.8-0.5,2.3-1.3,3.3-1.1c0.4,0.1,0.8,0.4,1.3,0.2
		c0.6-0.2,0.8-1.2,1-1.7c0.8-1.1,1.2-2.5,1.5-3.8C35.8,80.9,35.6,79.5,35.4,77.9z M34.1,83.2c-0.4,0.4-0.6,0.9-1,1.4
		c-0.8,1.2-2.1,2.1-3.4,2.5c-1.3,0.4-2.5,1.1-3.8,1.6c-0.6,0.2-1,0.7-1.6,0.9c-0.7,0.3-1.4,0.6-2.1,1c-1.4,0.3-2.7,0.6-4.1,0.8
		c-1.4,0.2-2.6,0-4-0.2c-1.3-0.2-2.7-0.1-3.9-0.8c-0.5-0.3-1-0.6-1.5-1c-0.6-0.4-1.2-0.7-1.7-1.2c-0.8-0.8-1.4-1.8-1.8-2.8
		C4.9,84.3,5,83,5.2,81.7C5.4,80.3,5.7,79,6,77.6c0.2-0.7,0.5-1.2,0.9-1.8c0.4-0.6,0.7-1.4,1.2-1.9c0.9-0.9,2.2-1.4,3.2-2.2
		c1.2-0.9,2.4-1.7,3.8-2.2c0.6-0.3,1.2-0.8,1.8-1c0.7-0.2,1.3-0.2,2-0.3c0.6-0.1,1.2-0.2,1.9-0.4c0.8,0.1,1.5,0.1,2.3,0.1
		c1.9,0,3.2,0.5,4.8,1.5c1.3,0.9,3.2,1.7,4.1,3.1c1.5,2.6,3.5,5.7,2.9,8.9C34.6,82.1,34.5,82.8,34.1,83.2z"/>
	<path class="st0" d="M171,65.5c0.4-0.1,0.5-0.5,0.8-0.8c0.8-0.5,1.5-0.8,2.5-1c0.4-0.1,0.8-0.2,1.2-0.3c0.3-0.1,0.8-0.4,1.2-0.4
		c0.5,0.1,0.6,0.6,1.2,0.4c0.3-0.6-0.4-1.4-1-1.5c-0.7-0.2-1.5,0.5-2.2,0.6c-1,0.1-1.9,0.6-2.9,0.7c-1,0.2-1.2,0.5-1.3,1.4
		C170.5,65.1,170.5,65.6,171,65.5z"/>
	<path class="st0" d="M53.3,84.7c-0.5,0.1-0.9,0.3-1.5,0.3c-0.5,0-1.1,0-1.6,0.1c-1.1,0.4-2,0.7-3.1,0.9c-0.9,0.1-2.1-0.1-2.9,0.3
		c-1.2,0.5-0.3,1.1,0.5,1c0.8-0.1,1.5-0.1,2.3-0.2c1.2-0.1,2.2-0.6,3.4-1c1-0.3,2.3-0.3,3.4-0.3C54.9,85.9,54,84.7,53.3,84.7z"/>
	<path class="st0" d="M33.8,165.8c0.7,0.9,1.4,1.6,2.4,2.2c0.9,0.5,1.8,1,2.8,1.1c0.7,0.1,1.3,0.2,2,0.4c0.9,0.2,1.6,0.3,2.5,0.2
		c1.4,0,2.7-0.3,4.1-0.6c0.7-0.1,1.3,0,1.9-0.3c0.6-0.3,1.2-0.6,1.9-0.8c0.7-0.1,1.2-0.1,1.8-0.4c0.6-0.3,1.2-0.5,1.9-0.6
		c0.7-0.2,1.1-0.5,1.7-0.9c0.7-0.4,1.5-0.6,2.1-1.1c1.1-0.8,2.3-1.7,3.4-2.5c0.5-0.4,0.9-0.8,1.3-1.3c0.5-0.6,1.2-1.1,1.8-1.7
		c0.9-1,1.4-2.2,2.1-3.3c0.7-1.1,1.4-2.1,1.4-3.4c0-1.2,0.7-2.3,0.5-3.5c-0.2-1.3,0-2.5-0.4-3.8c-0.6-2.4-0.7-5.4-2.5-7.2
		c-0.5-0.5-0.7-0.9-1-1.5c-0.2-0.6-0.8-1-1.1-1.6c-0.7-1.3-1.6-2.2-1.5-3.8c0.1-2.6,2.7-4.2,4.5-5.9c1-0.9,2-1.7,3-2.5
		c0.5-0.4,1.1-0.7,1.7-1.1c0.6-0.4,1.1-0.8,1.7-1c0.6-0.2,1.1-0.5,1.7-0.8c0.6-0.4,1.2-0.6,1.8-0.9c1.2-0.7,2.4-1.6,3.6-2.3
		c1.2-0.7,2.3-1.4,3.5-2.1c1.2-0.7,2.4-1.6,3.6-2.3c2.6-1.4,5.1-2.8,7.6-4.3c1.2-0.8,2.4-1.4,3.7-2.1c0.5-0.4,1.1-0.6,1.6-1
		c0.7-0.5,1.4-0.9,2.1-1.3c1.1-0.6,2.2-1.4,3.3-2.1c0.9-0.5,1.8-0.7,2.7-1.2c1.8-0.9,3.7-1.9,5.4-2.9c1.1-0.8,2.3-1.5,3.5-2.1
		c1.3-0.8,2.5-1.6,4-2.1c1-0.4,2.1-1,2.9-1.7c0.7-0.3,1.3-0.6,2-1c1.3-0.4,2.6-1.1,3.8-1.9c1.3-0.6,2.4-1.5,3.7-2.1
		c0.7-0.3,1.2-0.7,1.9-1c0.6-0.3,1.2-0.5,1.8-0.8c1.3-0.7,2.7-1.3,4-2c1.2-0.7,2.5-1.1,3.7-1.7c0.6-0.3,1.3-0.5,1.9-0.8
		c0.7-0.3,1.4-0.8,2.1-1.1c1.2-0.5,2.4-1.2,3.6-1.7c0.6-0.3,1.1-0.3,1.7-0.4c0.8-0.4,1.6-0.8,2.3-1.3c1-0.5,2.1-1.2,3.3-1.3
		c0.5,0,0.8-0.3,1.2-0.6c0.5-0.4,1.2-0.3,1.7-0.6c0.9-0.5,2.5-0.3,3.2-1.2c0.6-0.9,2.3-0.9,3.3-1.4c1.3-0.6,2.6-1,4-1.4
		c1.5-0.4,3-1.2,4.6-1.4c1.4-0.2,2.7-0.7,4-1c1.6-0.4,3.1-0.9,4.7-1.1c1.4-0.2,2.9-0.4,4.2-0.8c1.4-0.5,2.9-0.6,4.4-0.9
		c1.3-0.3,2.6-0.2,3.9-0.5c1.4-0.4,2.8-0.8,4.3-1.1c2.5-0.5,5.2-0.9,7.7-1.6c1.2-0.4,2.4-0.8,3.7-1.1c0.3-0.1,0.6,0,0.9,0
		c0.6,0,1.3-0.3,1.9-0.5c1.4-0.4,2.8-0.6,4.2-0.8c1.1-0.4,2.4-0.7,3.6-0.8c0.9-0.1,1.8-0.5,2.6-0.7c1.1-0.3,2.2-0.8,3.3-1.1
		c0.6-0.2,1.2-0.2,1.7-0.4c0.3-0.1,0.4-0.3,0.6-0.5c0.2-0.4,0.7-0.6,1-0.9c0.9-1.1,2-2.1,3-3c1.1-1,2.3-1.9,3.3-3
		c1.5-1.4,3.3-2.6,4.6-4.2c0.5-0.6,1.5-0.9,1.8-1.6c0.2-0.4-0.2-0.9-0.2-1.3c-0.1-0.7,0.1-1.5,0.1-2.2c0-1.3,0.6-5.5-1.8-4.9
		c-0.4,0.1-1,0.1-1.4,0.3c-0.4,0.2-0.4,1-0.4,1.4c-0.1,1.4-0.6,2.8-0.8,4.2c-0.2,1.3-1.1,1.9-2,2.7c-1.1,1.1-2.5,2-3.7,3
		c-1.1,0.9-2.3,1.8-3.3,2.9c-0.9,0.9-1.8,2.1-3.1,2.4c-1,0.3-2,0.3-3,0.6c-0.7,0.2-1.3,0.4-2,0.6c-0.7,0.2-1.4,0.6-2.1,0.7
		c-2.7,0.4-5.3,1-8,1.6c-1.3,0.3-2.6,0.7-3.9,1c-1.4,0.4-2.8,0.9-4.3,1.1c-0.7,0.1-1.3,0.3-2,0.6c-0.7,0.2-1.4,0.2-2.1,0.3
		c-1.5,0.2-2.9,0.7-4.4,1c-2.7,0.6-5.4,1.1-8.1,1.8c-0.4-0.1-0.7-0.2-1-0.2c-0.3,0-0.3,0-0.5-0.1c-0.4-0.2-0.7-0.5-1-0.7
		c-0.3-0.2-0.6-0.5-0.6-0.8c0.5-0.4,1.5-0.6,2.1-0.7c1.3-0.2,2.7,0.3,4,0.1c1.1-0.1,2.3-0.3,3.3-0.8c0.8-0.4,1.7-0.6,2.4-0.9
		c0.8-0.4,1.6-0.7,2.5-1c1.3-0.5,2.5-1.1,3.7-1.6c1.4-0.6,2.8-1,4.1-1.7c2-1,4.2-1.7,6.2-2.6c2.7-0.9,5.2-2.2,7.9-3.4
		c1.3-0.6,2.5-1.2,3.7-1.8c0.5-0.4,0.8-0.9,1.2-1.3c0.5-0.5,1.1-0.9,1.7-1.3c2.4-1.4,4.4-3.6,6.4-5.6c0.6-0.6,1.1-1.2,1.8-1.7
		c0.8-0.7,1.3-1.6,2.1-2.2c0.9-0.7,0.9-1.7,1.1-2.7c0.1-0.9,0.3-1.7,0.4-2.6c0.3-1.8,0.2-3.8-2.1-3.9c-1.1-0.1-1.6,0.8-1.7,1.8
		c-0.1,0.6-0.1,1.1-0.2,1.7c-0.1,0.7-0.3,1.2-0.5,1.8c-0.4,1.2-0.7,1.8-1.8,2.6c-1.2,0.9-2.3,1.9-3.4,2.9c-1,0.9-1.9,1.9-2.9,2.9
		c-0.5,0.5-0.9,1-1.5,1.4c-0.6,0.3-1.2,0.6-1.7,1.1c-0.9,0.9-1.9,1.1-3.1,1.5c-1.4,0.5-2.7,1.4-4.1,1.8c-0.7,0.2-1.3,0.4-2,0.8
		c-0.6,0.3-1.2,0.4-1.8,0.7c-1.4,0.7-2.9,1.2-4.4,1.9c-1.3,0.6-2.6,1.1-3.9,1.6c-0.7,0.3-1.2,0.4-1.9,0.4c-0.8,0-1.6,0.4-2.3,0.7
		c-1.3,0.5-2.6,0.6-3.9,0.9c-1.6,0.4-3.1,0.8-4.7,1.2c-3,0.8-6,1.6-9,2.4c-0.9,0.3-1.9,0.5-2.3,1.5c-0.6,1.3-1.8,1.8-3.1,2.2
		c-1.4,0.6-2.6,1-4.1,1.4c-1.3,0.3-2.7,0.8-4,1.2c-1.3,0.5-2.7,0.5-4.1,0.9c-1.5,0.5-3.1,0.7-4.6,1c-1.4,0.3-2.8,1-4.2,1.1
		c-0.8,0-1.4,0.3-2.1,0.5c-0.8,0.2-1.6,0.3-2.4,0.5c-0.6,0.1-1.2-0.1-1.8-0.1c-0.7,0.1-1.3,0.3-2,0.4c-1.6,0-3.2,0.3-4.7,0.6
		c-1.4,0.3-2.8,0.4-4.2,0.6c-0.7,0.1-1.3,0.2-2,0.2c-0.8,0-1.6,0.3-2.4,0.5c-2.9,0.7-5.8,1.1-8.8,1.2c-1.4,0-2.7,0.4-4.1,0.6
		c-1.5,0.3-3,0.4-4.5,0.6c-1.3,0.2-2.6,0.3-3.9,0.5c-1.5,0.2-2.9,0.8-4.4,0.7c-3-0.1-5.7,1-8.6,1.7c-1.4,0.4-2.7,0.8-4.1,1.1
		c-1.5,0.3-3,0.6-4.6,1.1c-2.5,0.7-5.2,0.7-7.7,1.3c-1.1,0.3-2.1,0.5-3.2,0.6c-2.2,0.2-4.4,0.9-6.6,1.4c-1.4,0.3-2.7,0.6-4.1,0.9
		c-1.5,0.3-3,0.9-4.6,1.2c-2.9,0.6-6,1.1-8.9,1.9c-2.9,0.8-5.7,1.8-8.7,2.1c-2.6,0.2-5,1-7.6,0.7c-1-0.1-2.2-0.3-2.5-1.4
		c-0.2-0.5-0.3-1-0.4-1.5c-0.1-0.8-0.6-1.3-0.9-2c-0.6-1.2-1.2-2.5-1.9-3.7c-0.7-1.2-1.4-2.5-2.1-3.8c-0.7-1.1-1.6-2.1-2.4-3.1
		c-1.1-0.8-1.9-1.9-3.1-2.5c-2.4-1.2-4.9-1.2-7.4-1.7c-1.4-0.3-2.9-0.1-4.3,0.1c-1.4,0.1-2.6,0.1-3.9,0.7c-2.6,0.7-5.1,1.9-7.4,3.5
		c-1,0.7-2,1.5-2.7,2.4c-0.8,1.1-1.3,2.3-2,3.4c-0.8,1.1-1.6,2.2-2.1,3.5c-0.4,1.3-0.9,2.6-1.1,3.9c-0.2,1.2-0.1,2.5,0.1,3.8
		c0.2,1.3,0.4,3,1,4.1c0.3,0.5,0.7,0.8,0.7,1.5c0.1,0.5,0.3,0.9,0.6,1.3c0.7,0.8,1.5,1.6,2.4,2.2c1,0.7,2,1.2,3.1,1.6
		c0.6,0.2,1.2,0.2,1.7,0.5c0.7,0.3,1.4,0.5,2.1,0.7c1.3,0.3,2.5,0.3,3.8,0.1c1.4-0.2,2.6,0.2,4,0.1c2.8-0.3,5.4-1.6,8.1-2.1
		c0.6-0.1,1.2-0.4,1.8-0.7c0.6-0.2,1.2-0.4,1.7-0.6c1.3-0.4,2.7-0.8,3.9-1.4c1.2-0.6,2.5-0.9,3.7-1.5c0.9-0.4,2.1-1.2,3.1-0.8
		c0.9,0.3,1.6,1.1,2.3,1.7c0.3,0.3,0.6,0.5,1,0.6c0.7,0.3,0.5,1,0.4,1.6c-0.3,2.2,0.7,4.1,1.4,6c0.5,1.3,1.1,2.7,1.8,4
		c0.3,0.6,0.7,1.1,1,1.8c0.2,0.5,0.9,1,1.3,1.4c0.9,0.8,1.5,0.9,2.6,0.5c0.8-0.3,1.5-0.7,2.2-1.2c0.6-0.4,0.7-1.1,0-1.5
		c-0.3-0.2-0.7-0.3-1-0.6c-0.4-0.5-0.5-1.3-0.7-1.9c-0.4-1.2-1-2.3-1.3-3.6c-0.3-1.4-0.5-2.9-0.7-4.4c-0.1-1.3-0.4-2.5,0-3.7
		c0.1-0.4,0.1-1,0.3-1.4c0.4-0.5,1.3-0.7,1.9-0.8c2.8-0.7,5.4-1.7,8.3-2.1c1.3-0.2,2.5-0.7,3.8-1.1c1.4-0.5,2.9-0.6,4.3-0.8
		c2.9-0.4,5.6-1.2,8.4-2.1c1.3-0.4,2.7-0.4,4.1-0.7c0.7-0.1,1.5-0.1,2.2-0.3c0.7-0.2,1.4-0.5,2.1-0.7c3-0.7,6-1.2,9-1.7
		c3-0.4,5.9-0.9,8.8-1.7c2.8-0.8,5.6-1.3,8.5-1.6c1.4-0.1,2.8-0.4,4.2-0.6c0.7-0.1,1.4-0.3,2-0.4c0.7-0.3,1.2-0.5,2-0.3
		c0.6,0.2,1.3-0.1,1.9-0.2c0.7-0.1,1.3-0.2,2-0.3c1.5-0.2,3-0.5,4.5-0.7c2.8-0.4,5.5-1.2,8.4-1.2c1.5,0,2.8-0.2,4.3-0.5
		c1.5-0.3,2.9-0.4,4.4-0.4c1.2,0,2.5-0.2,3.7-0.4c0.3-0.1,3.2-1,2.5-0.1c-0.6,0.9-2.1,1.3-3,1.7c-1.4,0.6-2.6,1.5-4,2.2
		c-1.3,0.7-2.7,1.3-4,2c-1.3,0.7-2.6,1.2-3.8,1.9c-1.2,0.7-2.4,1.3-3.6,1.9c-1.3,0.7-2.8,1.2-4.1,2c-1.1,0.7-2.3,1.3-3.4,1.9
		c-1.1,0.6-2.3,1.2-3.5,1.8c-1.2,0.6-2.3,1.5-3.5,2.2c-1.3,0.8-2.4,1.5-3.8,2.2c-4,2-7.8,4.2-11.8,6.2c-1.6,0.8-3.2,1.6-4.6,2.6
		c-0.5,0.3-1.1,0.5-1.7,0.8c-1,0.5-2,1.2-3,1.7c-4.4,2.2-8.9,4.3-13,7c-2.5,1.6-5.1,2.9-7.6,4.5c-1.2,0.7-2.3,1.5-3.5,2.1
		c-0.5,0.2-1,0.2-1.4,0.6c-0.5,0.5-1.2,0.9-1.8,1.4c-1.2,0.7-2.4,1.5-3.6,2.2c-0.8,0.5-1.7,0.7-2.6,0.4c-1.7-0.5-2.9-1.9-4-3.2
		c-0.8-0.9-2-3.1-3.3-1.5c-0.3,0.4-0.6,0.8-0.8,1.3c-0.2,0.6,0,0.8,0.3,1.3c0.3,0.6,0.3,1.4,0.5,2.1c0.2,0.7,0.5,1.4,0.6,2.2
		c0.7,5.4-4,8.8-8.3,11c-0.7,0.4-1.4,1-2,1.5c-0.7,0.5-1.5,0.9-2.3,1.4c-1.5,0.9-2.8,2.1-4.2,3.1c-1.4,1.1-2.9,2.2-4.4,3.3
		c-1.2,0.8-2.2,2.3-2.9,3.5c-1.4,2.4-2.4,5.4-2.6,8.2c-0.1,1.5,0,3.1,0.4,4.6c0.2,0.8,0.2,1.6,0.5,2.3c0.2,0.7,0.9,1.4,1.2,2
		C32.2,163.9,33,164.8,33.8,165.8z M243.7,42.7c0.3-0.4,0.6-0.8,0.7-1.3c0.2-1,0.3-2,0.6-3.1c0.2-0.8,0.3-1.5,0.4-2.2
		c0.2-0.8,0.9-1.2,0.9-0.1c0,1.8,0,3.7-0.6,5.4c-0.3,0.9-0.7,1.7-1,2.6c-0.1,0.2-0.7,0.7-0.9,0.6c-0.3-0.1-0.1-0.6-0.1-0.8
		C243.4,43.2,243.3,43.2,243.7,42.7z M240.9,28.6c0.2-1,0.2-2.1,0.4-3.1c0.3-1.3,0.9-0.5,0.8,0.4c-0.1,1,0,2-0.3,2.9
		c-0.1,0.3-0.3,1.1-0.7,0.6C241,29.2,240.9,28.9,240.9,28.6z M241.2,29.9c0.9,0.6-1.2,2.4-1.5,2.8c-0.6,0.7-1.3,1.3-1.9,2
		c-0.6,0.6-1.2,1.4-2,1.7c-0.8-0.6,1.1-2.2,1.5-2.6c0.7-0.7,1.4-1.4,2.1-2.1C239.9,31.1,240.4,30.3,241.2,29.9z M214.2,47.3
		c1-0.7,2.1-1.3,3.2-1.7c1.3-0.5,2.6-1.1,3.9-1.7c0.9-0.4,1.9-1,2.5-1.8c0.8-1,2.2-1.2,3.4-1.7c2.3-1,4.1-3.1,5.7-5
		c0.9-1.1,2.3-2,3.4-3c0.3-0.3,2.7-2.6,3.1-2.3c-0.1,0.4-0.7,1-1,1.3c-0.5,0.6-1.1,1.1-1.6,1.6c-1.1,1.1-2,2.4-3.1,3.4
		c-1.1,1.1-2.2,2-3.1,3.2c-0.5,0.6-1.2,1.2-1.8,1.7c-0.5,0.7-0.8,1.3-1.6,1.7c-1.4,0.7-2.8,1-4.2,1.7c-1.1,0.5-2.2,0.8-3.3,1.3
		c-0.9,0.4-1.8,0.7-2.7,1.1c-1.5,0.5-3.1,1.3-4.6,1.6C212.2,48.1,213.8,47.6,214.2,47.3z M59.9,129.2c-0.7,0.3,0.1-1.4,0.5-1.6
		C60.8,128.1,60.1,128.8,59.9,129.2z M162.3,71.9c-0.5,0.3-1.1,0.5-1.7,0.5c-0.4,0-1.1,0.1-0.5-0.3C160.4,72,162.7,71.1,162.3,71.9z
		 M170,70.1c-1.1,0.4-2.2,0.6-3.2,1c-0.9,0.3-1.2-0.2-0.2-0.5c0.6-0.2,1.3-0.4,1.9-0.6c0.6-0.2,1.6-0.7,2.2-0.4
		C170.5,69.9,170.2,70,170,70.1z M178.1,66.6c0.3-0.3,2.2-0.5,2.1-0.4C179.8,66.4,178.5,67,178.1,66.6z M204.3,61.5
		c-0.2,0.1-0.3,0.2-0.5,0C203.9,61.5,204.4,61.3,204.3,61.5z M212.4,59.9c-0.7,0.2-1.3,0.5-2,0.7c-0.8,0-1.4,0.3-2.1,0.4
		c-0.6,0.1-1.2,0.3-1.8,0.4c-0.2,0-1.2,0.1-0.9-0.3c0.3-0.4,1-0.4,1.5-0.5c0.8-0.2,1.5-0.3,2.3-0.5
		C209.6,60.2,212.6,59.3,212.4,59.9z M191.6,62.8c-0.1-0.5-0.1-1.5,0.5-1.7c1.8-0.3,3.5-0.8,5.3-1.2c2-0.4,4-0.9,6-1.3
		c1.9-0.4,3.8-0.7,5.6-1.2c1.9-0.6,3.8-1.2,5.7-1.7c1.7-0.5,3.4-0.7,5.1-1.3c0.9-0.3,1.8-0.4,2.8-0.5c1-0.2,2-0.1,3-0.6
		c0.8-0.4,1.8-0.4,2.7-0.8c0.6-0.3,2.2-0.9,2.9-0.6c0.3,0.1,0.5,0.4,0.8,0.4c0.4,0.1,0.7-0.2,1.1-0.1c1,0.1,1.5-0.7,2.3-0.9
		c0.1,0.7-1,0.9-1,1.5c0,0.2,0,0.3,0.1,0.5c0.1,0.4-0.1,0.4-0.3,0.7c-0.5,0.2-0.9,0.4-1.4,0.5c-2,0.4-4.1,0.1-6,0.4
		c-2.1,0.3-4.3,0.4-6.4,0.9c-0.4,0.1-0.7,0.5-1.2,0.6c-0.5,0.2-1.1,0.3-1.6,0.5c-1.1,0.4-2.2,0.7-3.3,1c-1.2,0.3-2.4,0.5-3.6,0.7
		c-1.1,0.3-2.2,0.6-3.4,0.9c-2.2,0.5-4.5,0.7-6.7,1.4c-2.2,0.7-4.5,1.3-6.8,2C192.8,63.3,191.8,63.8,191.6,62.8z M197.6,55.7
		c0-0.6,2.8-1.2,2.8-1C200,55,198,56.1,197.6,55.7z M204,53.4c-0.5,0.3-1.3,0.8-1.9,0.6c0-0.4,1.9-1.2,2.2-1
		C204.3,53.2,204.2,53.3,204,53.4z M184.9,55.2c-0.3-1.5,4.3-2.1,5.1-2.3c1.4-0.4,2.8-0.9,4.3-1.3c0.8-0.2,1.5-0.4,2.3-0.5
		c0.5-0.1,1.6-0.5,2-0.3c-0.3,0.3-1.1,0.8-0.7,1.3c0.3,0.4,0.8,0.1,1.2-0.1c0.6-0.3,1.3-0.6,2-0.6c0.7,0,1.2-0.4,1.9-0.6
		c0.3-0.1,1.1,0,0.7,0.4c-0.4,0.4-1.1,0.4-1.7,0.5c-0.5,0.1-1,0.2-1.3,0.7c-0.2,0.3,0.2,0.6,0,0.9c-0.2,0.3-0.8,0.4-1.2,0.5
		c-0.7,0.2-1.5,0.4-2.1,0.8c-0.6,0.3-1.1,0.8-1.8,0.9c-0.7,0.2-1.5,0-2.2,0c-0.9,0-1.6-0.2-2.5,0c-0.5,0-0.8-0.2-1.3,0
		c-0.6,0.2-1.2,0.5-1.8,0.7c-0.4,0.2-0.9,0.4-1.3,0.3C186,56.4,185,55.7,184.9,55.2z M37.5,89.1c-0.8,0.2-1.7,0.2-2.5,0.4
		c-0.5,0.1-1,0.4-1.4,0.7c-0.5,0.4-1.2,0.6-1.8,0.8c-0.5,0.2-1.1,0.4-1.6,0.5c-1.7,0.6-3.6,0.6-5.2,1.4c-0.6,0.3-1.3,0.5-1.9,0.7
		c-0.7,0.2-1.2,0.5-1.8,0.8c-0.5,0.3-1.2,0.2-1.7,0.3c-0.8,0.2-1.6,0.1-2.4,0c-1.2,0-2.2,0.7-3.4,0.8c-1.2,0.1-2.8-0.5-3.9-0.9
		c-2.1-0.7-4.5-1.8-5.9-3.6C2.7,89.7,2,87.9,1.6,86c-0.3-1.3-0.5-2.5-0.4-3.9c0.1-1.4,0.3-2.7,0.8-4c0.2-0.6,0.4-1.2,0.7-1.8
		c0.3-0.5,0.8-0.9,1.1-1.4c0.4-0.6,0.7-1.2,1.2-1.6c0.4-0.4,1.1-1.1,1.2-1.6c0.1-1.2,1.2-1.7,2.1-2.4c0.5-0.4,1-0.8,1.5-1.2
		c0.5-0.4,1.2-1.1,1.8-1.3c0.2-0.1,0.5-0.1,0.8-0.2c0.3-0.2,0.5-0.3,0.9-0.4c0.7-0.2,1.2-0.6,1.8-0.7c0.6-0.1,1.1-0.5,1.7-0.6
		c0.8-0.2,1.6-0.2,2.4-0.2c1.4-0.2,2.7-0.1,4.1-0.2c0.7,0,1.4,0.1,2,0.2c0.8,0,1.5,0,2.2,0.2c2.5,0.7,4.6,2.1,6.4,4
		c0.8,0.9,1.5,2,2.1,3.2c0.3,0.6,0.5,1.2,0.8,1.7c0.4,0.7,0.6,1.5,0.9,2.4c0.2,0.6,0.3,1.3,0.5,2c0.1,0.5,0.4,1.1,0.2,1.5
		c-0.6,1.2-0.5,2.8-0.7,4.1c-0.1,0.6-0.2,1.2-0.5,1.7c-0.3,0.6,0,0.9,0.1,1.5c0.1,0.7,0.6,0.3,0.8-0.1c0.3-0.5,0.5-1,0.6-1.6
		c0.1-0.5,0.3-2.6,1-2.6c0.6,0,0.7,1.2,0.6,1.6c-0.3,1-0.6,2.1-1,3.1C38.8,88.4,38.4,88.9,37.5,89.1z M39.9,80.1
		c0.1,0.3,0.3,0.6,0.3,0.9C40,81,39.8,80.2,39.9,80.1z M41.1,88.3c-0.3,0.2-1.1,0.5-1.4,0.1c0-0.7,0.3-1.4,0.5-2
		c0.2-0.5,0.4-1.9,1.2-1.9c1,0,0.5,1.8,0.4,2.3C41.6,87.3,41.4,87.8,41.1,88.3z M54,106.2c-0.6,0.3-1,0.4-1.6,0
		c-0.6-0.3-0.7-0.8-0.1-1.1c0.4-0.3,1.1-0.6,1.6-0.4C54.5,105,54.3,105.8,54,106.2z M53.1,102.4c-0.5,0.2-1,0-1.5,0.2
		c-0.4,0.1-0.7,0.3-1.1,0.4c-0.7,0.2-1.5-1-0.8-1.4c0.7-0.4,1.5-0.7,2.3-0.8C52.7,100.7,53.6,101.7,53.1,102.4z M52,99.6
		c-0.9,0.3-1.8,0.9-2.8,0.9c-0.8,0.1-1.2-0.9-0.6-1.4C49.4,98.6,52.9,97.8,52,99.6z M51.6,97.2c-0.9,0.4-2,0.1-2.9,0.6
		c-0.3,0.2-0.7,0.5-1,0.1c-0.3-0.4-0.1-0.6,0.3-0.8c0.7-0.4,1.5-0.6,2.2-0.7C50.8,96.3,52.1,96.3,51.6,97.2z M51.3,94.2
		c0,0.6,0.1,1.1-0.6,1.1c-0.6,0-1.2,0.2-1.8,0.4c-0.5,0.1-1,0.3-1.5,0.3c-0.5,0-0.6-0.9-0.6-1.4c0.1-1,1.7-1.1,2.5-1.3
		C50.2,93.2,51.2,93.1,51.3,94.2z M50.9,92.1c-0.5,0.2-1,0.1-1.5,0.1c-0.5,0-1,0.3-1.5,0.3c-0.4,0-1-0.4-0.4-0.7
		c0.2-0.1,0.5-0.1,0.8-0.2C49,91.6,51.6,90.7,50.9,92.1z M121.8,71.5c-0.7,0.1-1.3,0.2-1.9,0c-0.5-0.1-1.4,0.3-1.9,0.4
		c-1.6,0.3-3.1,0.6-4.7,0.9c-1.4,0.2-2.9,0.4-4.3,0.6c-1.5,0.2-2.8,0.6-4.3,0.9c-2.9,0.6-5.9,0.9-8.8,1.5c-2.9,0.6-5.7,1.6-8.7,2.2
		c-3,0.6-5.8,1.5-8.7,2.2c-1.3,0.3-2.5,0.8-3.7,1.1c-1.4,0.3-2.9,0.6-4.3,0.9c-2.7,0.6-5.3,1.7-8,2.5c-2.9,0.9-5.9,1.8-8.8,2.6
		c-0.8,0.2-2.2,0.3-2.2,1.4c0,0.9,0,1.5-1.1,1.4c-1.2-0.1-2.2,0.7-3.5,0.6c-0.4,0-0.8,0.6-1.1,0.4c-0.3-0.2-0.6-0.5-0.9-0.7
		c-0.3-0.2-0.6-0.5-0.8-0.8c-0.3-0.3-0.3-0.8-0.6-1.1c-0.3-0.3-0.9,0-1.2-0.3c-0.3-0.3,0.1-0.8,0.2-1.1c0.2-0.7,0.2-1.6,0.6-2.2
		c0.3-0.4,0.9-0.2,1.3-0.2c0.8,0,1.5,0,2.3-0.2c1.3-0.3,2.5-0.7,3.8-1c1.5-0.3,3-0.4,4.4-0.8c2.8-0.7,5.6-1.7,8.4-2.3
		c1.4-0.3,2.9-0.6,4.3-0.8c0.7-0.2,1.4-0.4,2.1-0.5c0.8-0.1,1.4-0.5,2.2-0.6c1.4-0.2,2.7-0.6,4-0.9c1.5-0.3,2.9-0.7,4.4-1.1
		c2.9-0.7,5.9-1,8.9-1.5c1.5-0.3,2.9-0.5,4.3-0.8c1.5-0.3,2.9-0.7,4.4-1.1c1.4-0.3,2.9-0.4,4.3-0.9c1.4-0.5,2.7-0.8,4.2-1.1
		c0.7-0.1,1.2-0.4,1.9-0.5c0.6-0.1,1.3-0.3,1.9-0.5c0.6-0.2,1.2-0.2,1.8-0.2c2-0.2,4-0.6,6-1c2.9-0.5,5.9-0.7,8.8-1.3
		c1.4-0.3,2.6-0.2,4-0.3c1.5-0.1,2.9-0.3,4.4-0.5c1.4-0.2,2.7-0.7,4-1c1.4-0.3,2.9-0.3,4.3-0.5c0.7-0.1,1.4-0.2,2.1-0.3
		c0.4-0.1,0.9-0.3,1.4-0.3c0.8,0,1.5-0.1,2.2-0.2c1-0.2,1.9,0.2,2.8,0c0.6-0.1,1.3-0.3,1.9-0.4c0.5-0.1,1.1,0,1.6,0
		c0.7-0.1,1.3-0.3,2-0.4c1.5-0.3,3-0.5,4.4-1.1c1.3-0.5,2.8-0.7,4.2-1c1.4-0.3,2.8-0.8,4.3-1.1c1.8-0.3,3.6-0.9,5.4-1.5
		c1.3-0.3,2.9-0.5,4.1-1.1c0.7-0.3,1.3-0.6,2-0.7c0.6-0.1,1.3-0.6,1.8-0.5c0.5,0.1,1,0.4,1.4,0.7c0.5,0.3,0.8,0.8,1.3,1
		c1.2,0.3,2.3,1.5,3.4,2.2c1.1,0.7,1,1.6-0.3,1.9c-1.4,0.3-2.8,0.7-4.2,1c-0.7,0.1-1.3,0.2-2,0.5c-0.4,0.2-0.9,0.4-1.4,0.5
		c-0.6,0.1-1.3,0.2-1.9,0.3c-1.4,0.3-2.7,0.9-4.1,1.2c-1.4,0.3-2.8,0.6-4.1,1c-1.3,0.4-2.6,0.7-3.8,1.2c-0.6,0.2-1.3,0.4-1.9,0.7
		c-0.5,0.3-1.1,0.7-1.8,0.6c-1-0.1-1.8-1-2.5-1.6c-0.5-0.4-1-0.7-1.6-1c-0.5-0.2-1.3-1-1.9-0.7c-0.2,0.1-0.5,0.7-0.8,0.6
		c-0.5,0-0.7-0.6-1.3-0.6c-1.5,0-2.9,0.5-4.4,0.6c-3,0.2-5.9,0.6-8.8,1.3c-2.9,0.7-5.8,0.6-8.7,1.1c-1.4,0.2-2.7,0.3-4.1,0.4
		c-1.2,0.1-2.3,0.5-3.5,0.7C125.2,71,123.5,71.2,121.8,71.5z M153.2,68.8c-1,0.3-2.1,0.8-3.2,0.8c-0.7,0-1.4,0.1-2.1,0.2
		c-0.7,0.1-1.5-0.1-2.2,0.1c-1.5,0.2-3,0.6-4.5,0.7c-2.9,0.3-5.7,0.4-8.5,0.9c-0.7,0.2-2.1,0.7-2.9,0.4c-0.3-0.1-0.5-0.6-0.2-0.8
		c0.4-0.3,1-0.2,1.5-0.3c1.4-0.1,2.6-0.2,3.9-0.5c1.3-0.3,3-0.6,4.4-0.5c0.7,0,1.3,0.1,2-0.1c0.7-0.1,1.4-0.4,2.1-0.5
		c0.7-0.1,1.3-0.1,2-0.4c0.5-0.2,1-0.1,1.5-0.2c1.8-0.4,3.7-0.6,5.5-0.8c0.6-0.1,1.2-0.1,1.8-0.2c0.4-0.1,0.8-0.2,1.2-0.1
		C156.3,68.2,153.4,68.8,153.2,68.8z M31.8,159.5c-0.2-0.6-0.4-1.3-0.5-1.9c-0.1-0.5-0.4-0.6-0.7-1c-0.3-0.4-0.2-1.2-0.2-1.7
		c0-0.8,0.1-1.5,0.3-2.2c0.5-2.6,1.4-5.2,2.9-7.4c0.8-1.1,1.6-2,2.8-2.7c1.3-0.8,2.4-1.8,3.5-2.8c2.2-1.9,4.9-3.3,7.1-5.1
		c1-0.8,2.2-1.3,3.4-1.9c0.6-0.3,1.1-0.7,1.7-1.1c0.6-0.4,1-1.1,1.6-1.5c0.6-0.4,0.7-0.9,1.1-1.3c0.5-0.6,0.9-1.2,1.4-1.8
		c0.7-1,0.9-1.6,0.9-2.8c0.1-1,0-1.9-0.2-2.9c-0.3-1.4-0.6-2.9-1.2-4.2c-0.1-0.5,0.3-1,0.8-1.1c0.3,0,0.6,0.3,0.8,0.5
		c0.7,0.6,1.2,1.5,1.8,2.1c0.7,0.7,1.6,1.4,2.5,1.8c0.8,0.4,2.3,0.9,3.1,0.3c0.9-0.6,1.7-1.6,2.8-1.6c0.6,0,0.9-0.4,1.4-0.7
		c0.6-0.5,1.2-0.9,1.9-1.4c3.7-1.8,7-4.3,10.5-6.4c1.2-0.7,2.3-1.4,3.4-2.1c1.3-0.8,2.7-1.4,4-2.1c0.9-0.5,1.8-1,2.8-1.6
		c1-0.6,2.1-0.9,3.2-1.5c1.2-0.6,2.3-1.3,3.5-1.9c1.4-0.8,2.8-1.3,4.2-2.1c1.8-1.1,3.6-2.1,5.4-3c1.1-0.6,2.3-1,3.3-1.7
		c1.1-0.8,2.3-1.2,3.5-1.9c1.3-0.7,2.6-1.5,3.9-2.1c1.4-0.6,2.7-1.6,4.1-2.4c1.3-0.7,2.5-1.5,3.8-2.2c0.6-0.2,1.1-0.6,1.6-0.9
		c0.6-0.5,1.3-0.8,2-1.1c1.2-0.8,2.5-1.5,3.8-2.1c1.4-0.7,2.6-1.5,3.9-2.2c1.2-0.6,2.4-1.2,3.6-1.6c1.4-0.5,2.5-1.5,3.9-2
		c1.3-0.4,2.5-1.1,3.6-1.8c0.8-0.5,1.5-1,2.4-1.4c0.6-0.2,1.3-0.5,1.9-0.8c0.5-0.3,1-0.7,1.4-1c0.6-0.5,1.3-0.8,2-1.1
		c0.4-0.2,0.6-0.2,0.8-0.6c0.2-0.3,0.2-0.3,0.5-0.3c0.4,0,0.9,0.2,1.3,0.3c0.3,0.1,2.3,1.1,1.3,1.3c-1.3,0.2-2.5,1.2-3.6,1.8
		c-1.3,0.7-2.5,1.4-3.8,2.1c-2.7,1.5-5.3,3.2-8.1,4.5c-2,0.9-4,1.8-6,2.8c-1.2,0.6-2.4,1.4-3.7,2.1c-0.6,0.4-1.2,0.8-1.9,1.1
		c-0.7,0.4-1.4,0.6-2,1c-1.9,0.9-3.8,1.9-5.7,2.9c-1.3,0.7-2.5,1.4-3.7,2.2c-0.5,0.4-1,0.8-1.6,1c-0.6,0.2-0.9,0.6-1.5,0.8
		c-0.3,0.1-0.6,0.2-0.8,0.4c-0.1,0.2-0.3,0.4-0.5,0.5c-0.5,0.2-0.7-0.1-1,0.4c-0.6,1.1-2.1,1.6-3.2,2.1c-1.1,0.5-2.3,0.8-3.2,1.5
		c-1.1,0.7-2.3,1.5-3.5,2.1c-2.6,1.2-5.2,2.5-7.6,4c-2.1,1.3-4.4,2.4-6.6,3.6c-0.6,0.3-1.1,0.6-1.7,0.9c-1.3,0.6-2.3,1.4-3.5,2.1
		c-2.3,1.5-4.8,2.7-7.2,4.1c-1.1,0.7-2.2,1.4-3.3,2.1c-0.6,0.4-1.2,0.7-1.8,1c-0.6,0.3-1.3,0.9-2,0.9c-1.2,0.1-2.3,1.6-3,2.3
		c-0.5,0.5-1,0.9-1.6,1.4c-1.2,0.9-2.7,1.9-3.6,3c-0.5,0.7-1.3,1.4-2.1,1.8c-1,0.4-1.1-1.7-1.2-2.3c-0.1-0.2-0.5-1-0.8-0.6
		c-0.2,0.3-0.1,0.7,0,0.9c0.1,0.3,0.2,0.7,0.1,1c-0.2,0.3-0.6,0.4-0.7,0.1c-0.2-0.4-0.2-1.5-0.9-1.2c-1.1,0.5-0.8,2.2-1.1,3.2
		c-0.2,1-0.3,2.2-1,3.1c-0.4,0.5-1.4,1.4-1.4,2.1c0.1,0.6,1-0.4,1.1-0.6c0.3-0.4,0.6-0.9,1-1.4c0.2-0.2,0.6-0.8,0.8-0.4
		c0.2,0.3,0,0.6-0.1,0.9c-0.3,0.6-0.9,1-1.1,1.7c-0.1,0.2-0.1,0.5,0.2,0.6c0.4,0.1,0.6-0.6,1-0.7c0.4,0,0.6,0.4,1,0.1
		c0.3-0.2,0.4-0.6,0.6-0.9c0.1-0.2,0.9-2.1,1.2-1.3c0.2,0.6,0.4,0.9,0.9,1.3c0.4,0.5,0.3,1.2,0.5,1.7c0.7,1.4,1.3,2.7,2.2,4
		c0.5,1.2,1.2,2.1,1.6,3.3c0.2,0.6,0.3,1.2,0.7,1.7c0.5,0.6,0.5,1.3,0.6,2c0.1,0.5,0.4,1,0.4,1.5c-0.1,0.7-0.1,1.4-0.2,2.1
		c-0.1,1.2-0.1,2.5-0.3,3.7c-0.3,2.1-1.6,4.4-3,6.1c-0.8,0.9-1.6,1.7-2.5,2.5c-0.8,0.7-1.8,1.6-2.7,2.1c-1.6,0.8-3.2,2.1-5,2.5
		c-2.3,0.6-4.4,1.4-6.7,1.9c-1.1,0.2-2.3,0.5-3.4,0.6c-1.2,0.1-2.2-0.2-3.4-0.4c-0.5-0.1-0.9-0.3-1.4-0.5c-0.5-0.3-1.1-0.4-1.7-0.6
		c-1-0.4-1.6-1.3-2.3-2.1c-0.7-0.9-1.7-1.8-2.2-2.8c-0.2-0.4-0.3-0.8-0.5-1.2C32.4,160.5,32,160.1,31.8,159.5z"/>
	<path class="st0" d="M35.1,162.5c0.7,1.1,1.6,2.1,2.8,2.6c1.2,0.5,2.6,0.6,3.9,0.9c1.3,0.2,2.7,0.4,4,0.2c0.7-0.1,1.3-0.3,2-0.3
		c0.7,0,1.4-0.3,2.1-0.4c0.7-0.1,1.4-0.3,2-0.5c0.6-0.3,1.3-0.6,1.9-0.7c1.1-0.2,2.4-0.9,3.2-1.6c1-0.9,2.4-1.1,3.4-2
		c0.9-0.9,2.2-1.6,2.9-2.6c1.1-1.6,2.5-2.9,2.7-4.9c0.1-1.1,1-2.3,0.7-3.4c-0.3-1.3-0.2-2.5-0.6-3.7c-0.4-1.2-0.4-2.2-1.1-3.2
		c-0.5-0.7-1-1.3-1.3-2c-0.8-1.9-2.5-3.6-4.3-4.5c-0.9-0.4-2-0.4-2.9-0.6c-1-0.2-2-0.4-3-0.3c-1.4,0.1-2.6,0.4-3.9,1
		c-1.2,0.5-2.1,0.8-3.4,1c-1.1,0.2-1.9,0.9-2.7,1.6c-0.9,0.8-1.9,1.3-3,1.8c-2,1-3.7,2.8-5.2,4.4c-1.5,1.6-2.4,3.4-3,5.5
		c-0.5,1.9-0.8,4-0.6,6C32.2,158.8,34.2,160.4,35.1,162.5z M33.1,156.5c-0.2-1.3,0.1-2.8,0.2-4.1c0.1-1.4,1-2.7,1.7-3.9
		c0.7-1.2,1.8-1.9,2.7-2.9c0.5-0.5,1-0.9,1.6-1.2c0.3-0.2,0.5-0.4,0.7-0.6c0.4-0.3,0.8-0.4,1.2-0.6c0.6-0.3,1.2-0.6,1.7-1
		c0.5-0.4,0.9-0.8,1.5-1c1.2-0.4,2.1-1.2,3.3-1.5c0.6-0.1,1.3-0.2,1.9-0.5c0.6-0.3,1.2-0.6,1.9-0.8c1.3-0.4,2.6-0.8,4-1
		c2.6-0.5,4.9,0.3,6.4,2.4c1,1.5,2,3.1,2.4,4.9c0.3,1.3,0.3,2.6,0.3,3.9c-0.1,1.4-0.1,3-0.4,4.4c-0.6,2.4-2.3,4.6-4.3,6.1
		c-1.9,1.4-3.9,2.5-6,3.6c-1.3,0.7-2.6,1.1-4.1,1.5c-0.8,0.2-1.6,0.3-2.4,0.3c-0.3,0.1-0.6,0.3-0.9,0.4c-0.4,0.1-0.9,0.1-1.3,0.1
		c-2.4,0-5.5-0.2-7.5-1.6c-1.3-0.9-1.4-2.1-2.2-3.3C34.5,159.1,33.3,158,33.1,156.5z"/>
</g>
<g>
	<path class="st0" d="M101.2,39.8c0.3,0.4,0.5,0.8,0.9,1c0.5,0.2,0.7,0.5,1,0.9c0.1,0.1,0.5,0.7,0.7,0.6c0.2-0.2-0.5-1-0.6-1.1
		c-0.6-0.7-1.4-1.3-2-1.9c-0.1-0.1-0.5-0.6-0.8-0.4C100.4,39.4,100.9,39.5,101.2,39.8z"/>
	<path class="st0" d="M138.4,40.7c-0.3-0.2-0.5-0.3-0.8-0.2C137.7,40.7,138.1,40.9,138.4,40.7z"/>
	<path class="st0" d="M101.8,38.6c-0.2-0.7-1.1-1.4-1.7-1.7C100.1,37.6,101.1,38.4,101.8,38.6z"/>
	<path class="st0" d="M136.6,40.3c-0.4-0.2-1.1-0.5-1.6-0.3C135.1,40.3,136.4,40.6,136.6,40.3z"/>
	<path class="st0" d="M131.7,39.4c-0.2,0.4,2.1,0.6,2.4,0.4C133.6,39.6,132.1,38.8,131.7,39.4z"/>
	<path class="st0" d="M139.8,41.2c-0.3-0.2-0.8-0.3-1.3-0.4C138.6,41,139.5,41.5,139.8,41.2z"/>
	<path class="st0" d="M36.2,29.4c0-0.5-0.6-1.3-1.1-1.6C34.8,28.3,35.8,29.3,36.2,29.4z"/>
	<path class="st0" d="M143.5,45.7c-0.5-0.4-1.5-0.9-2.1-0.7C141.5,45.3,143.2,46,143.5,45.7z"/>
	<path class="st0" d="M140.1,42.8c-0.2-0.1-0.5-0.3-0.6-0.1C139.6,42.8,139.9,43,140.1,42.8z"/>
	<path class="st0" d="M137.8,42.1c0.2,0.3,0.7,0.4,1,0.3C138.7,42.2,138,41.8,137.8,42.1z"/>
	<path class="st0" d="M136.5,41.6c0.1,0.1,0.2,0.2,0.3,0.1C136.7,41.6,136.6,41.5,136.5,41.6z"/>
	<path class="st0" d="M96.5,33.6c0-0.4-0.3-0.7-0.7-0.8C95.7,33.2,96.2,33.6,96.5,33.6z"/>
	<path class="st0" d="M92.9,31.6c-0.6,0-0.9-0.8-1.5-0.6c-0.6,0.2-0.2,0.9,0,1.2c0.4,0.5,0.7,0.6,1.2,0.2c0.3-0.2,0.9,0.2,1.1,0.4
		c0.3,0.2,0.7,0.3,0.8,0.6c0.4,0.7,1.1,1.1,1.7,1.6c0.8,0.6,1.2,1.4,2.1,1.9c0.5,0.4,0.8,1.2,1.5,1.3c0.2-0.3-1-1.2-1.2-1.4
		c-0.6-0.7-1.4-1.3-2-1.9c-0.5-0.5-0.9-1-1.5-1.3c-0.3-0.2-0.7-0.2-0.6-0.7c0.1-0.4,0.4-0.4,0.8-0.4c0-0.4-0.6-0.8-0.9-1.1
		c-0.2-0.1-0.4-0.3-0.6-0.4C93.4,31.2,93.2,31.6,92.9,31.6z"/>
	<path class="st0" d="M35.8,24.6c0,0.2,0.6,0.9,0.7,0.9C36.3,25.2,36.1,24.7,35.8,24.6z"/>
	<path class="st0" d="M34.5,26.8c0,0.3,0.2,0.5,0.4,0.7C34.9,27.2,34.7,26.9,34.5,26.8z"/>
	<path class="st0" d="M36.8,25.9c0,0.2,0.2,0.5,0.4,0.6c0-0.1,0-0.1,0-0.1C37,26.2,36.9,26.1,36.8,25.9z"/>
	<path class="st0" d="M101.4,35.2c-0.2-0.2-0.3-0.3-0.5-0.4C100.9,35,101.2,35.3,101.4,35.2z"/>
	<path class="st0" d="M101.6,35.5c0,0.4,1.2,1.9,1.7,1.6C103,36.5,102.4,35.8,101.6,35.5z"/>
	<path class="st0" d="M99.8,36.6c-0.2-0.7-1.4-1.8-2.2-2.1C97.9,35.3,99,36.3,99.8,36.6z"/>
	<path class="st0" d="M97.4,34.4c-0.1-0.3-0.3-0.5-0.6-0.5C96.9,34.2,97.2,34.3,97.4,34.4z"/>
	<path class="st0" d="M107.8,37.5c0.2,0.4,0.4,0.7,0.8,0.9c0.1-0.6-2.9-4-3.1-3.8c0.2,0.8,0.9,1.4,1.5,2
		C107.2,36.8,107.6,37.1,107.8,37.5z"/>
	<path class="st0" d="M130.8,42.8c0.3,0.3,1.1,0,1.3-0.3C131.7,42.3,130.9,42.2,130.8,42.8z"/>
	<path class="st0" d="M81.1,39.7c-0.1-0.3-0.2-0.5-0.6-0.5C80.5,39.5,80.9,40.2,81.1,39.7z"/>
	<path class="st0" d="M20.7,33.9c1.1-0.2,2.4-0.1,3.5,0.1c0.4,0.1,0.8,0.1,1.3,0.1c0.8,0,1.8,0.4,2.6,0.1c0.7-0.2,1.4,0,2.1,0.1
		c0.8,0.1,1.5,0,2.3,0.1c1.6,0.1,3.3,0.1,4.9,0.4c0.6,0.1,1.2,0.1,1.7,0.4c0.2,0.2,0.6,0.5,0.9,0.4c1.1-0.2,1.8,0.1,2.9,0.2
		c0.6,0.1,1.2,0,1.8,0.1c0.7,0,1.4,0.2,2.1,0.3c1.5,0.2,3,0.7,4.5,1c3,0.7,6.1,1.3,9.2,1.8c1.4,0.2,2.9,0.7,4.3,1.1
		c1.3,0.4,2.6,0.5,4,0.8c2.1,0.4,4.3,0.4,6.4,0.7c1.6,0.2,3.1,0.6,4.6,0.9c1.6,0.3,3.3,0.3,4.9,0.6c1.4,0.3,2.9,0.3,4.3,0.5
		c1.7,0.3,3.3,0.4,5,0.5c3.1,0.3,6.2,0.5,9.3,0.8c1.5,0.1,3.1,0.2,4.6,0.3c1.4,0.1,3.1,0.4,4.5-0.2c0.6-0.3,1.3-0.3,1.9-0.6
		c0.5-0.2,1-0.5,1.5-0.6c0.6-0.2,1.2,0,1.9,0c0.8,0,1.7,0,2.5,0.2c0.8,0.2,1.5,0.6,2.2,0.8c0.6,0.2,1,0.5,1.6,0.7
		c0.8,0.3,1.8,0.8,2.7,0.8c1.4-0.2,2.9-0.2,4.3,0.1c0.7,0.2,1.3,0.2,2.1,0.1c0.8-0.2,1.4,0.2,2.2,0.5c2.1,0.8,4.5,1.3,6.7,1.6
		c1.3,0.2,2.6,0.7,3.9,0.7c1.4,0,2.8,0.5,4.1,0.8c0.8,0.2,1.5,0.2,2.3,0.4c0.6,0.2,1.3,0.2,1.9,0.3c0.6,0,1.3,0.2,1.8,0.4
		c0.7,0.2,1.5,0.3,2.3,0.4c0.6,0.1,1.1-0.2,1.7,0c0.6,0.2,1.3,0.3,1.9,0.4c1.4,0.1,2.9-0.1,4.3-0.3c3-0.5,6-0.8,8.9-1.6
		c2.4-0.7,4.9-1.6,6.9-3c0.9-0.6,1.7-1.3,1.9-2.4c0.3-1.1-2.1-1.1-2.7-1.3c-1.4-0.4-2.8-0.7-4.2-1c-1.4-0.3-2.8-0.4-4.2-0.9
		c-1.1-0.4-2.1-0.4-3.2-0.6c-0.9-0.2-1.8-0.6-2.7-0.8c-2.3-0.4-4.5-1.3-6.9-1.4c-1.4-0.3-2.8-0.4-4.3-0.6c-0.7-0.1-1.3-0.4-2-0.5
		c-0.8-0.1-1.5-0.1-2.3-0.4c-2.3-0.1-4.5-0.4-6.8-0.6c-3.2-0.2-6.4-0.5-9.7-0.6c-1.4,0-2.8-0.7-4.1-0.5c-0.8,0.1-1.5,0.1-2.3,0
		c-2.1-0.2-4.2,0-6.3-0.1c-1.2,0-2.3-0.2-3.4-0.6c-0.7-0.3-1.4-0.5-2.2-0.6c-0.6-0.3-1.1-0.8-1.7-1c-0.6-0.2-1.1-0.6-1.6-0.9
		c-0.7-0.2-1.3-0.4-1.9-0.7c-0.6-0.3-1.4-0.4-2-0.5c-1-0.2-1.9-0.5-2.8-0.7c-0.7-0.2-1.4-0.3-2.1-0.5c-0.7-0.2-1.4-0.3-2.1-0.4
		c-1.5-0.3-3.1-0.3-4.6-0.7c-0.9-0.2-1.8-0.2-2.7-0.2c-0.9,0-1.8-0.2-2.6-0.3c-1.5-0.1-3-0.4-4.5-0.6c-0.8-0.1-1.5-0.1-2.3-0.3
		c-0.4-0.1-0.8-0.2-1.2-0.3c-0.5,0.1-1,0.1-1.5,0.1c-2.5-0.4-5.2-0.5-7.7-0.9c-2.5-0.4-5,0-7.5-0.2c-1.4-0.1-2.9,0-4.4,0
		c-1.5,0-2.7-0.5-4.2-0.5c-1.4,0-2.9-0.3-4.3-0.5c-0.7-0.1-1.5,0-2.2,0c-0.9-0.2-1.8-0.3-2.8-0.5c-1.3-0.2-2.7-0.4-4-0.6
		c-0.8-0.2-1.9-0.3-2.7-0.7c-0.8-0.4-1.8-0.5-2.7-0.8c-0.4-0.2-0.8-0.5-1.2-0.8c-0.5-0.4-0.8-0.1-1.3,0c-0.4,0.1-0.9-0.1-1.3-0.2
		c-0.6-0.1-1.1-0.2-1.6-0.3c-0.5-0.1-0.9-0.3-1.4-0.4c-0.5-0.2-0.9-0.6-1.4-0.7c-0.9-0.2-1.6-0.3-2.5-0.6c-1-0.4-2-0.7-3-0.9
		c-1-0.2-2-0.4-2.9-0.7c-0.9-0.2-1.7-0.4-2.6-0.2c-0.7,0.2-1.3,0.7-1.9,1c-0.5,0.3-0.7,0.4-0.9,0.9c-0.2,0.5-0.4,1-0.6,1.5
		c-0.4,0.9-0.7,1.9-0.7,2.9c-0.2,1.1-0.4,2.1-0.4,3.1c0,1-0.1,1.9-0.3,2.9c-0.1,0.7,0.1,1.2,0.6,1.7c0.4,0.3,0.8,0.8,1.2,1
		c0.4,0.1,0.9,0.1,1.3,0.2C20,33.4,20.2,33.9,20.7,33.9z M97.4,42.5c-0.2,0.7-0.4,0.8-1.1,0.8c-0.6,0-0.8-0.4-1.4-0.6
		c-0.4-0.1-0.8,0.3-1.3,0.3c-0.6,0-1.1-0.2-1.3-0.8c-0.2-0.6-0.3-1-0.8-1.5c-0.5-0.5-0.7-1.1-1.3-1.5c-1.2-0.9-2.3-1.8-3.3-2.9
		c-0.9-0.9-1.8-1.7-2.7-2.6c-0.2-0.2-0.1-0.8,0.2-0.9c0.3,0,0.7,0.4,1,0.6c0.9,0.7,1.9,1.5,2.6,2.4c0.6,0.7,1.1,1.2,1.8,1.8
		c0.7,0.8,1.2,1.6,2,2.2c0.3,0.3,0.7,0.6,1,0.9c0.4,0.3,0.8,1,1.2,1.3c0.7,0.4,1.1-1.6,1.7-1.1c0.1,0.1,1.5,1.8,1.2,0.8
		c-0.3-0.9-1.2-1.7-1.9-2.4c-0.9-0.8-1.7-1.7-2.5-2.6c-1-1.1-2.3-1.9-3.2-3.1c-0.4-0.5-0.1-0.1-0.2-0.4c0.7-0.2,1.5,0.8,2,1.2
		c0.7,0.6,1.6,1.1,2.4,1.8c0.8,0.6,1.5,1.3,2.2,2c0.7,0.7,1,1.3,1.8,1.8c0.7,0.4,1.2,1.2,1.8,1.7c0.4,0.3,1.2,1.2,0.9,1.7
		C99,44.2,98.7,42.6,97.4,42.5z M93.8,40.5c0.2,0.1,0.5,0.3,0.5,0.6C94,41.2,93.6,40.8,93.8,40.5z M112.7,43.3
		c-0.3-0.3,0.1-0.8,0.2-1c0.3-0.3,0.4-0.6,0.5-1.1c0.2-0.9,0.2-1.8-0.1-2.7c-0.2-0.8-0.6-1.5-1-2.2c-0.3-0.6-0.8-1.3,0.2-1.1
		c1,0.2,1.8,0.8,2.8,1c1.4,0.3,3.2,0.5,4.2,1.5c0.4,0.4,0.9,0.4,1.3,0.8c0.3,0.3,0.7,0.5,1.1,0.8c0.3,0.3,1.5,1.2,1,0.1
		c-0.2-0.4-2.2-1.4-2-1.8c0.2-0.4,1.2,0.7,1.4,0.9c0.5,0.6,1.3,0.8,1.9,1.4c0.4,0.3,1.6,1.2,1.2,1.8c-0.7,0.1-0.9-0.7-1.5-0.9
		c0.1,0.6,0.8,1,0.7,1.6c-0.1,0.8-1.4-0.4-1.6-0.7c-0.4-0.5-1.2-0.9-0.5-0.1c0.5,0.5,1.3,1,1.4,1.8c0.1,0.8-2-0.3-2.4-0.4
		c-1.2-0.3-2.3-0.7-3.6-0.5c-1,0.2-2.1-0.2-3.1,0C114.1,42.8,113.4,43.8,112.7,43.3z M110.9,35.6c0.6-0.3,0.8,0.6,0.8,1
		c0.1,0.5,0.7,1.3,0.6,1.8C111.8,37.8,110.8,36.3,110.9,35.6z M110.7,37.2c-0.2-0.1-0.3-0.3-0.3-0.5C110.6,36.8,110.8,37,110.7,37.2
		z M125.9,38.1c0.4-0.3,0.9-0.4,1.4-0.2c0.1,0.3,0,0.7-0.3,0.9C126.4,39.2,125.7,38.8,125.9,38.1z M126.3,39.8
		c-0.3,0.8-0.8,0.3-1.3-0.1c-0.5-0.4-1.1-0.8-1.5-1.3c-0.5-0.6,1-0.3,1.2-0.1C125.3,38.6,126,39.1,126.3,39.8z M140.9,39.2
		c0-0.4,1.6-1.1,1.9-1.2c-0.2-0.1-0.4-0.1-0.6-0.2c0.2-0.3,2,0.2,2.4,0.3c1.1,0.4,2.3,0.3,3.4,0.6c2.2,0.6,4.7,0.5,6.9,1.3
		c1,0.3,2.3,0.3,3.4,0.3c1.3,0,2.5,0.2,3.7,0.5c1.4,0.4,2.9,0.6,4.4,0.8c1.6,0.3,3.1,0.8,4.7,1.1c1.6,0.3,3.2,0.6,4.8,0.9
		c1.3,0.3,2.7,0.4,3.9,0.9c1.4,0.5-0.2,1.4-0.9,1.7c-1.3,0.7-2.9,1.2-4.4,1.4c-2.3,0.3-4.5,1.3-6.8,1.8c-1.3,0.1-2.5,0.6-3.9,0.6
		c-1.5-0.1-2.9,0.3-4.4,0.1c-1-0.1-2-0.3-3-0.4c-0.9-0.1-2,0-2.8-0.3c-0.4-0.2-0.7-0.1-1.2-0.1c-0.5-0.1-1-0.2-1.4-0.2
		c-1.1,0-1.9-0.2-2.9-0.7c-0.9-0.4-1.3-0.3-2.2-0.3c-0.9,0.1-1.2-0.6-1.9-0.9c-0.8-0.2-1.6-0.6-2.5-0.7c-0.6-0.1-1.2-0.5-1.8-0.4
		c0.1,0.4,0.9,0.6,1,0.9c-0.9,0.5-2.6-0.3-3.4-0.6c-0.7-0.2-1.4-0.4-2.1-0.6c-0.4-0.1-1.8-0.4-2-0.9c-0.2-0.4,2.7,0.2,3,0.3
		c0.5,0.2,2.5,1.1,2.9,0.6c-1.3-0.9-3.2-1-4.7-1.4c-0.5-0.1-1.2-0.4-1.7-0.3c-0.5,0.3-0.8,0.4-1.4,0.4c-0.4,0-0.6,0-0.8,0.3
		c-0.6,0.7-1.4,0.7-2.2,0.4c-0.4-0.3-0.7-0.5-1.2-0.5c-0.4,0-0.8,0.1-1.1,0c-0.7-0.2-0.5-0.9-0.3-1.4c0.5-1.3,1.3-2.5,1.9-3.7
		c0.8-1.5,2-2.2,3.7-1.8c0.4,0.1,0.7,0.3,1.1,0.4c0.4,0.1,0.9,0.1,1.3,0.1c0.9,0.1,1.9,0.2,2.8,0.4c0.9,0.2,1.9,0.4,2.8,0.6
		c0.4,0.1,0.9,0.2,1.3,0.3C141.3,39.8,140.9,39.5,140.9,39.2z M88.8,30.2c0.6-0.1,1.3,0,1.8,0.1c0.6,0.1,1.1,0.2,1.7,0.3
		c0.6,0.1,1.2,0.5,1.7,0.4c0.5,0,1,0,1.5,0.1c0.8,0.2,0.5,0.5,0.7,1.1c0.1,0.7,0.5,0.2,0.8,0c0.6,0,0.9,0.4,1.3,0.7
		c0.4,0.4,1,0.6,1.4,0.9c0.3,0.3,0.7,0.6,1.1,0.8c-0.4-0.8-1.3-1.5-2-2c-0.3-0.2-0.7-0.4-1-0.7c-0.4-0.5,0.3-0.5,0.6-0.3
		c0.8,0.4,1.6,0.4,2.3,1c0.6,0.5,1.2,1.4,2,1.7c-0.2-0.5-1-1-0.6-1.6c0.6-0.5,1.3,0.4,1.9,0.5c0.2-0.3-0.2-0.7,0.4-0.7
		c0.4,0,1,0.1,1.4,0.3c0.3,0.1,0.3,0.5,0.6,0.7c0.2,0.2,0.5,0.3,0.7,0.4c0.4,0.2,0.7,0.7,0.9,1c0.8,1.1,1.4,2.4,2.2,3.6
		c0.2,0.2,0.6,1.5,0,1.1c-0.4-0.3-0.7-0.8-1.2-0.9c-0.3,0.6,1,1.8,1.3,2.3c0.2,0.4,0.5,1,0.3,1.5c-0.2,0.2-0.6-0.5-0.7-0.6
		c-0.6-0.8-1.2-1.6-1.8-2.3c-0.4-0.4-0.7-0.9-1.2-1.2c-0.4-0.3-0.7-0.8-1.1-1.1c0.1,1,1.5,2.2,2.2,2.9c0.4,0.4,2.4,3,1.8,3.3
		c-0.6-0.1-1-0.7-1.3-1.2c-0.4-0.6-0.8-1.1-1.4-1.6c-0.6-0.6-1.2-1.2-1.8-1.9c-0.2-0.3-1.2-1.5-1.6-1.3c0,0.6,0.6,1,1,1.3
		c0.5,0.4,1.1,1,1.4,1.5c0.7,1.1,2.3,2.1,2.5,3.5c0.1,0.9-1.1,0.3-1.4,0c-0.5-0.5-0.9-1.1-1.3-1.6c-0.6-0.7-1.4-1.3-2.1-1.9
		c-0.4-0.4-0.9-1-1.5-1.2c0,1.1,1.7,2,2.4,2.6c0.5,0.4,0.9,0.9,1,1.5c0.2,0.6,0.2,0.8-0.4,0.4c-0.3-0.2-0.6,0.4-1,0.5
		c-0.5,0-1,0-1.5,0c-1.2-0.1-1.6-1.3-2.5-2c-1.4-1-2.4-2.5-3.6-3.8c-1.2-1.3-2.6-2.5-3.9-3.8c-1.2-0.9-2.4-2-3.5-3
		C89,31.1,88,30.4,88.8,30.2z M87.5,30.2c0.5,0.2-0.2,0.8-0.6,0.3C86.6,30.1,87.3,30,87.5,30.2z M82.7,29.9c0.2-0.6,2.2-0.1,2.5,0.2
		c0.4,0.4-0.2,1.1,0.3,1.5c0.3,0.3,0.8,0.2,1.2,0.3c0.4,0.1,0.8,0.6,1.1,0.9c1.3,1.1,2.6,2.2,3.6,3.6c0.2,0.3,0.6,0.5,0.9,0.8
		c0.2,0.1,0.8,1,0.5,1c-0.8,0-1.7-1.1-2.3-1.6c-0.6-0.5-1.2-1-1.9-1.4c-1.4-0.8-2.4-2.4-3.8-3.5C84.5,31.6,82.5,30.4,82.7,29.9z
		 M77.7,29.1c0.3,0.1,1.5,1.2,1.7,1.1c-0.1-0.8,0.5-0.9,0.9-0.2c0.5,0.9,0.9,0.1,1.6,0.5c0.3,0.2,0.5,1.2,0.1,1.4
		c-0.7-0.2-0.8-0.6-1.3-1.1c-0.4-0.4-0.8-0.4-1.1,0.1c-1.1,0.5-1.2-0.3-2.1-0.8c-0.3-0.2-0.6-0.4-0.7-0.7
		C76.9,28.9,77.4,29,77.7,29.1z M24.5,19.9c0.8,0.2,1.7,0.1,2.3,0.8c0.4,0.5,0.8,1,1.1,1.5c0.2,0.3,0.3,0.6,0.4,0.9
		c0.4,0.4,0.8,0.8,1.2,1.3c0.3,0.4,0.6,0.8,0.9,1.1c0.4,0.4,0.9,0.6,1.2,1c0.2,0.3,0.4,0.6,0.6,0.9c0.4,0.6,0.4-0.1,0.2-0.4
		c-1-1.6-2.3-3-3.4-4.6c-0.2-0.2-0.3-0.6-0.3-0.9c0.5-0.2,0.9,0.1,1.1,0.4c0.5,0.7,0.9,1.4,1.5,2.1c0.5,0.5,0.8,1.7,1.5,2
		c0.4,0.1,1,0,0.9-0.5c-0.2-0.5-2.1-2.6-1.8-3c0.8-0.4,1.6,2.2,2.5,2.4c0.3-0.5-0.7-1.4-0.7-2c0-0.6,1.4,1,1.5,1
		c0-0.3-0.2-0.7,0.1-0.8c0.3-0.2,0.6,0.1,0.8,0.2c0.6,0.5,1,1.1,1.3,1.8c0.4,0.7,0.7,1.3,1.4,1.7c0.6,0.3,1.1,0.7,1.4,1.3
		c0.5,0.9,0.9,1.9,1.4,2.8c0.2,0.4,0.5,0.9,0.7,1.3c0.1,0.2,0.6,1.4-0.1,0.9c-0.6-0.3-0.9-1.4-1.4-1.9c-0.4-0.4-0.7-0.8-0.9-1.3
		c-0.2-0.3-0.7-0.9-1-1.1c0,0.2,0.4,0.6,0.5,0.8c0.3,0.5,0.5,1.1,0.8,1.7c0.3,0.5,1.5,1.7,0.4,1.9c-2.3,0.5-2.3-2.4-3.9-3.3
		c0,0.9,0.9,1.5,1,2.4c0,0.5-0.5,0.6-0.8,0.4c-0.4-0.3-0.7-0.8-1-1.2c-0.3-0.5-0.6-0.8-1-1.2c-0.3-0.4-0.5-0.9-0.7-1.3
		c-0.2-0.3-1.4-1.7-0.9-0.6c0.4,0.9,0.8,1.5,1.6,2.1c0.1,0.3,1.2,2.2,0.3,2.1c-0.8-0.1-1.4-1.4-1.8-2c-0.3-0.5-0.7-1-1-1.4
		c-0.3-0.4-0.6-1.1-1.1-1.3c0,0.5,0.4,0.7,0.6,1.1c0.2,0.7,0.6,1.2,1,1.8c0.2,0.3,0.6,0.8,0.7,1.2c0.1,0.6-0.7,0.3-1,0.1
		c-0.7-0.6-1.2-1.6-1.8-2.3c-0.5-0.6-0.8-1.1-1.4-1.6c-0.1-0.4-0.3-0.7-0.5-1c-1-1.4-2-2.8-3-4.2c-0.5-0.7-1-1.5-1.6-2
		c-0.3-0.3-0.6-0.1-1,0c-0.5-0.1-0.9-0.8-0.8-1.3C22.7,19.2,23.8,19.7,24.5,19.9z M70.7,34.8c-0.1-0.7-3.1-2.3-2.6-2.9
		c1.1,0,1.6,0.7,2.2,1.5c0.7,0.9,1.8,1.4,2.8,2.1c1.2,0.8,1.9,1.9,3,2.7c0.4,0.3,0.9,0.7,1.2,1.1c0.4,0.6-0.2,0.3-0.5,0.2
		c-0.8-0.4-1.6-1.1-2.3-1.7c-0.5-0.4-1-0.8-1.5-1.2c-0.4-0.3-0.6-0.7-1.2-0.7c0,0.5,0.7,1,1,1.3c0.7,0.6,1.5,0.9,2,1.7
		c0.2,0.2,1.5,1.1,0.5,1.1c-0.8,0-1.6-0.4-2.2-0.8c-0.8-0.5-1.4-1.2-2.2-1.8c-0.3-0.2-0.5-0.5-0.8-0.6c-0.3,0.3,0.2,0.6,0.4,0.8
		c0.4,0.4,1.6,1,1.6,1.6c-0.6,0.4-1.5-0.3-1.9-0.7c-0.6-0.5-1.1-1-1.7-1.3C68.4,37,68.1,36.7,68,37c0.1,0.3,0.5,0.6,0.8,0.7
		c0.3,0.2,1.3,0.8,0.4,1c-0.6,0.1-1.3-0.2-1.7-0.5c-0.6-0.4-1.1-1.3-1.8-1.8c-0.8-0.6-1.6-1.2-2.4-1.8c-1.4-1.1-2.7-2.9-4.4-3.5
		c0.2,0.7,0.8,1.2,1.4,1.5c0.3,0.2,0.5,0.3,0.7,0.6c0.4,0.5,0.9,0.8,1.4,1.2c0.8,0.7,1.6,1.5,2.5,2.2c0.4,0.3,2,1.8,0.4,1.4
		c-0.9-0.2-1.4-1.1-2.1-1.6c-1-0.7-2-1.4-3-2.2c-0.7-0.6-1.5-1.1-2.3-1.7c-0.4-0.4-1-1-1.6-1.1c-0.1,0.4,0.6,0.8,0.8,1
		c0.6,0.4,1.1,0.8,1.6,1.3c0.3,0.3,0.7,0.7,1.1,1c0.5,0.3,0.9,0.5,1.3,0.9c0.5,0.5,1.4,1,1.8,1.6c0.5,0.8-1.4,0.4-1.7,0.2
		c-0.6-0.4-1.1-1-1.7-1.4c-0.8-0.5-1.5-1-2.2-1.7c-0.3-0.3-1.5-1.6-2-1.5c0.1,0.7,0.8,0.9,1.3,1.3c0.3,0.3,0.5,0.7,0.9,0.9
		c0.6,0.4,1.2,0.9,1.5,1.6c-0.1,0.7-1.2,0-1.5-0.2c-1.4-1.2-3-2.2-4.3-3.5c-0.2-0.1-1-1.1-1.3-0.8c-0.2,0.2,1.1,1.4,1.3,1.5
		c0.6,0.5,1.1,1.1,1.7,1.6c0.8,0.7,0.2,0.9-0.6,0.5c-0.7-0.3-1.3-1-1.9-1.4c-0.8-0.6-1.6-1.2-2.3-1.8c-1.2-1-2-2.2-3.1-3.4
		c-0.5-0.5-0.1-1,0.5-0.6c0.4,0.3,0.7,0.7,1.2,0.9c0-0.9-1.9-1.9-2.5-2.4c-0.2-0.1-1.2-1-0.9-1.2c0.4-0.3,1.1-0.1,1.5,0.1
		c0.5,0.2,0.6,0.5,0.7,1c0.2,0.8,0.8,1,1.5,1.4c0.7,0.4,1.3,0.8,2.1,1c0.4,0.2,0.8,1.3,1.4,1.1c-0.1-0.5-2.1-1.6-0.6-1.6
		c1.1,0,1.8,0.9,2.7,1.1c0-0.5-1.3-1.2-1.7-1.4c-0.4-0.3-1.7-1.7-2.2-1.1c-0.2,0.2-0.1,0.7-0.4,0.7c-0.3,0-0.6-0.2-0.8-0.4
		c-0.2-0.2-1.2-0.9-1.1-1.2c0.5-0.6,2.1,0.2,2.6,0.4c1,0,2-0.4,2.3,0.9c0.2,1,1.8,1.6,2.6,2.1c0.4,0.2,1,0.1,1.4,0.3
		c0.4,0.1,0.6,0.6,1,0.6c-0.1-0.3-0.7-0.8,0-0.8c0.6,0,0.9,0.6,1.4,0.9c0.4,0.3,0.9,0.2,1.2,0.7c0.4,0.6,1.2,0.6,1.4,1.2
		c0.7,0.7,1.5,1.1,2.1,1.8c0.4,0.5,1,0.7,1.4,1.2c0.2,0.2,1,0.9,1.3,0.6c-0.1-0.8-1.8-1.7-2.4-2.1c-0.4-0.3-0.8-0.7-1.2-1
		c-0.5-0.4-1-0.6-1.5-1c-0.4-0.4-0.6-0.7-1.1-1c-0.5-0.3-0.8-0.8-1.3-1.1c-0.8-0.4-1.5-1.6-2.4-1.7c-0.6-0.1-0.9,0.5-1.5,0.2
		c-0.3-0.1-1.4-0.8-1.1-1.3c0.4-0.4,1.6,0.1,2.1,0.1c0.9,0,1.8,0,2.8,0.2c0.7,0.1,2-0.3,2.4,0.5c0.4,0.8,0.9,1.4,1.8,1.6
		c0.6,0.2,1.2,0.3,1.6,0.7C65.8,30.8,70.4,35,70.7,34.8z M42.1,28.4c-0.2-0.6-0.9-0.8-1.4-1.2c-0.5-0.6-1.3-0.9-1.7-1.6
		c-0.3-0.5-0.9-1.1-1-1.6c-0.1-0.8,0.8-0.1,1,0.1c0.3,0.4,0.5,0.8,0.8,1.2c0.2,0.2,0.5,0.2,0.7,0.2c0.4,0,0.7,0.2,1,0.5
		c0.5,0.4,1,1,1.3,1.7C43.1,28.3,43.1,28.6,42.1,28.4c0.2,1.3,2.4,1.8,2.9,2.8c0.5,0.9,1.1,1.8,1.6,2.7c-0.1,0.7-1.9,0.2-2.3-0.1
		c-1.2-0.8-1.6-2.7-2.4-3.8c-0.3-0.4-0.7-1-0.8-1.5C40.8,27.6,41.8,28.4,42.1,28.4z M42.6,24.8c0.8,0.3,1,2,0,1.2
		C42.2,25.5,41.2,24.2,42.6,24.8z M44.9,27.3c-0.2,0.5-0.8-0.2-0.8-0.5C44.5,26.8,44.8,27,44.9,27.3z M43.9,27.8
		c0.3,0.1,0.5,0.3,0.6,0.6c0.2,0.3,0.6,0.3,0.9,0.6c0.4,0.5,0.7,0.8,1.3,1.1c0.6,0.5,1.1,1.1,1.6,1.8c0.2,0.3,1.3,1.6,1,1.9
		c-0.1,0.2-0.8,0-0.9-0.1c-0.2-0.3-0.4-0.7-0.7-1c-0.7-0.7-1.6-1.2-2.2-1.9c-0.4-0.5-0.6-0.9-0.9-1.4C44.4,29.1,43.2,28.1,43.9,27.8
		z M48.2,33.8c0.1,0.2,0.1,0.6-0.2,0.5C47.4,34.3,47.6,33.7,48.2,33.8z M30.7,32.1c-0.8,0-1.1-0.9-1.4-1.4c-0.3-0.4-0.6-0.8-0.9-1.2
		c-0.2-0.2-0.3-0.5-0.5-0.8c-0.5-0.3-0.8-0.5-0.8-1c-0.1-0.8-1-1.4-1.1-2.3c0.6,0.3,0.9,0.9,1.2,1.4c0.5,0.7,1.4,1.1,1.8,1.9
		C29.2,29.1,31.7,31.6,30.7,32.1z M20.9,26.1c-0.2-0.2-0.3-0.6-0.5-0.8c-0.4-0.5-1-0.9-1.3-1.4c-0.3-0.6,0.4-0.1,0.5,0.2
		c0.4,0.7,1.2,1.1,1.6,1.8C21.4,26.2,21.3,26.5,20.9,26.1z M23,28.7c0-0.3,0.5,0.2,0.5,0.4C23.3,29,23.1,28.9,23,28.7z M28.2,31.5
		c-0.5-0.5-0.7-1.2-1.2-1.7c-0.6-0.5-0.8-0.8-1.1-1.5c-0.5-0.6-1-1.2-1.4-1.9c-0.9-1.3-1.9-2.5-2.8-3.7c-0.4-0.6-0.8-1.1-1.3-1.6
		C20.3,21,20,20.8,20,20.5c0.1-0.3,0.3-0.5,0.6-0.4c0.6,0.1,1,1,1.3,1.4c1.5,1.9,3,3.8,4.3,5.8c0.4,0.6,0.7,1.2,1.1,1.8
		c0.4,0.6,0.9,1.1,1.3,1.7C28.8,31.2,28.9,32.2,28.2,31.5z M83.5,41.8c-1.3-0.3-2.7-0.7-4-0.9c-0.8-0.1-1.5,0-1.7-1
		c0.3-0.3,1.5,1.1,1.5,0.2c0-0.5-0.8-0.9-1.1-1.2c-1.4-1.2-3-2.3-4.4-3.6c-1.6-1.4-3.3-2.8-5-4.1c-0.8-0.6-1.7-1.6-2.7-1.9
		c-0.3-0.1-0.5,0.4-0.8,0.3c-0.2,0-0.3-0.2-0.5-0.3c-0.5-0.3-1-0.7-1.4-1.1c-0.5-0.6,2-0.6,2.4-0.6c0.7,0,1,0.4,1.4,0.9
		c0.4,0.4,0.9,0.6,1.4,0.8c0.7,0.2,1.1,0.7,1.6,1.2c0.4,0.3,0.9,0.4,1.3,0.7c0.3,0.3,0.5,0.7,0.9,0.8c-0.2-0.4-0.7-0.6-1-0.9
		c-0.3-0.5-0.7-0.8-1.1-1.3c-1-1.1,1-0.2,1.3,0.1c0.9,0.7,1.7,1.5,2.7,2.2c0.9,0.8,1.8,2.4,3.1,2.5c0-1.3,1.4,0,1.4,0.5
		c-0.3-0.1-1.6-0.9-1.1-0.1c0.3,0.6,0.9,1.1,1.5,1.5c1.4,1.1,2.6,2.6,4.1,3.4c0.5,0.3,1,1.7,1.5,1.6c0.3-0.6-0.2-1.2-0.4-1.7
		c-0.3-0.8,1.9,0.7,2.1,0.6c0-0.5-0.9-1.2-1.2-1.5c-0.5-0.5-1.1-1.1-1.7-1.6c-1.1-0.9-2.1-1.8-3.3-2.6c-0.5-0.4-1-0.8-1.5-1.2
		c-0.6-0.5-1.4-0.8-2-1.2c-0.9-0.6-1.7-1.4-2.6-2.1c-0.6-0.4-1.7-0.9-1.9-1.7c0.1-0.8,2,0.6,2.3,0.7c0.5,0.2,0.7-0.4,1.3-0.1
		c0.5,0.3,0.9,0.7,1.3,1.1c0.4,0.3,1.1,0.7,1.4,1.2c0.3,0.4,0.3,1,0.8,1.3c0.4,0.3,0.9,0.3,1.3,0.5c0.6,0.3,1.2,1.1,1.7,1.6
		c1,1,2.1,1.7,3,2.7c0.4,0.4,0.7,0.8,1.1,1.2c0.4,0.4,1.1,0.6,1.5,1.1c0.2,0.3,0.3,0.7,0.6,1c0.6,0.6,0.6-0.2,1.1-0.1
		c0.4,0.1,1.5,1.3,1.2,1.7c-0.4,0.5-2,0.2-2.4-0.2c-0.6-0.5-0.7-1.4-1.5-1.6c-0.3,0.7,1.1,1.8-0.4,1.8c-0.4,0-0.9-0.1-1.3-0.3
		C84.6,41.8,84.1,41.9,83.5,41.8z M75.5,31.9c0.4,0.3,0.1,0.7-0.3,0.4C74.8,31.9,75.1,31.6,75.5,31.9z"/>
	<path class="st0" d="M60.1,28.3c-1,1,2.5,2.7,3.1,2.9c1.2,0.4,2.6,1.6,3.5,2.4c0.7,0.7,1.5,1.8,2.5,2.2c-0.2-0.8-1.5-1.7-2.1-2.2
		c-0.9-0.9-1.9-1.7-2.8-2.5c-0.7-0.6-1.5-1.2-2.2-1.8C61.6,28.9,60.8,28.2,60.1,28.3z"/>
	<path class="st0" d="M77.2,36.2c-0.3-0.4-3.4-3.7-3.7-3.3c0.3,0.8,1,1.3,1.7,1.6c0.3,0.3,0.5,0.6,0.8,0.9c0.4,0.3,3.6,3.2,3.8,3
		C79,37.5,78,37,77.2,36.2z"/>
	<path class="st0" d="M49.5,30.3c0.4,0.2,0.6,0.5,1,0.6c0.3-0.2-1.2-1.4-1.6-1.4C48.9,30,49.1,30.2,49.5,30.3z"/>
	<path class="st0" d="M25.6,21.4c-0.1,0.6,0.3,1.1,0.7,1.4c0.9,1,1.8,1.9,2.6,3c0.4,0.6,1.1,2.1,2,1.9c-0.8-1.6-1.8-3-2.8-4.4
		c-0.6-0.6-1-1.5-1.7-2.1C26.1,21,25.6,20.8,25.6,21.4z"/>
	<path class="st0" d="M53.9,31.6c0.3-0.2-0.6-0.8-0.9-0.8C53,31.2,53.5,31.7,53.9,31.6z"/>
	<path class="st0" d="M55,32.4c-0.1-0.1-0.1-0.3-0.3-0.3C54.6,32.4,54.7,32.4,55,32.4z"/>
</g>
</svg>
