<?xml version="1.0" encoding="utf-8"?>
<!-- Generator: Adobe Illustrator 19.2.1, SVG Export Plug-In . SVG Version: 6.00 Build 0)  -->
<svg version="1.1" id="Layer_1_xA0_Image_1_" xmlns="http://www.w3.org/2000/svg" xmlns:xlink="http://www.w3.org/1999/xlink"
	 x="0px" y="0px" viewBox="0 0 364.8 410.2" style="enable-background:new 0 0 364.8 410.2;" xml:space="preserve">
<style type="text/css">
	.st0{fill:#9EBBE2;}
	.st1{fill:#FFFFFF;}
	.st2{fill-rule:evenodd;clip-rule:evenodd;fill:#A9C2E5;}
</style>
<g>
	<path class="st0" d="M240.5,1.9c0.5,0.1,1,0.2,1.5,0.3c3,0.8,5.2,2.6,6.1,5.5c0.8,2.5,1.3,5,1.8,7.6c0.6,3.1,1.1,6.2,1.5,9.3
		c0.2,1.6,0,3.2,0,4.8c0,4.1,0,8.2,0,12.4c0,2.7,0,5.3,0.1,8.1c0.1-0.4,0.2-0.7,0.3-1.1c1-4.2,1.9-8.4,2.9-12.6
		c0.2-1,2.4-3.1,3.4-3.3c1-0.2,2.6,1,2.8,2.2c0.2,1.2,0.2,2.6-0.1,3.8c-0.6,3.4-1.5,6.8-2.1,10.3c-0.2,1-0.3,2.1-0.3,3.1
		c0,0.5,0.3,1.1,0.7,1.6c0.6,0.8,1.3,1.4,1.9,2.2c3.3,4.9,8.3,6.5,13.8,6.6c10.3,0.2,20.6,0.2,30.8,0.3c10.3,0,20.6-0.1,30.8,0
		c7.5,0.1,14.4,2.1,19.7,7.7c6,6.2,9.3,16.4,3.5,26.4c-2,3.5-4.6,6.7-7.5,9.5c-6.3,6.1-13.8,7.3-22,4.8c-7.2-2.2-13-6.5-18.3-11.6
		c-1.5-1.4-2.9-2.9-4.5-4.4c-0.5,1.7-0.9,3.2-1.3,4.7c-3.1,12.1-3.9,24.4-3.1,36.9c1.1,15.9,4.7,31.3,8.8,46.7
		c2.6,9.4,4.3,19,5.9,28.6c0.7,3.9,1.7,7.7,1.9,11.6c0.3,4.3-0.5,6.4-4.3,8.5c-4.1,2.2-8.7,2.9-13.2,3.4c-2.7,0.3-5.3,0.6-8,0.9
		c-0.6,0.1-1.1,0.1-1.7,0.1c-3.1-0.1-6.2-0.1-9.3-0.3c-1.6-0.1-3.1,0.1-4,1.6c-1,1.6-1.3,3.2-0.3,4.9c0.6,1,1.4,1.9,2.1,2.7
		c0.6,0.8,1.3,1.5,2,2.2c-0.1,0.2-0.1,0.3-0.2,0.3c-8.1,3.4-10.6,13.8-6.1,21.3c1.3,2.2,2.2,4.2,1.6,6.7c-0.2,1.1-0.1,2.2,0,3.3
		c0.2,4.1,2.8,6.7,6.9,6.8c1.5,0,3.1-0.2,4.7-0.3c1.3-0.1,2.4,0.1,3.1,1.3c0.7,1.2,0.5,2.4-0.3,3.5c-0.4,0.5-1.1,0.8-1.7,1
		c-0.7,0.2-1.4,0.2-2.1,0.4c-5.4,1.2-8,4.4-8.1,10.3c-0.1,3.3,0.2,6.6,0,9.8c-0.7,12.4-1,24.7-0.1,37c0.6,8.1-1.3,15.5-3.8,23
		c-1.5,4.6-2.7,9.2-2.5,14.1c0,1.2,0.2,2.3,0.3,3.5c0.1,1.6-0.5,2.3-2.1,2.5c-0.8,0.1-1.6,0-2.4,0c-0.1,0.4-0.2,0.6-0.1,0.8
		c0.4,3.2-1.7,4.9-4,6.2c-1,0.6-2.3,0.7-3.4,1.1c-4.3,1.7-8.9,0.7-13.3,0.9c-3.5,0.2-6.8-1-10.1-1.9c-2.1-0.5-4.2-1.3-6.4-1.4
		c-4.8-0.3-9.6-0.5-14.5-0.5c-3.3,0-6.4,0.8-9.2,2.6c-1.8,1.1-3.1,2.8-4.4,4.4c-1.2,1.6-2.5,3.1-3.9,4.6c-1.1,1.2-1.5,1.2-2.9,0.4
		c-0.3-0.1-0.6-0.1-0.9-0.1c-0.9,0-1.7,0-2.7,0c0-0.5,0-0.9,0-1.3c0-52.4,0-104.9,0-157.3c0-0.9,0-1.8,0-2.8
		c0.1-4.8-0.4-9.4-3.8-13.2c0.3,0.2,0.7,0.3,1,0.5c8.6,4,17.6,5.4,27,4.2c2.4-0.3,4.8-0.7,7.2-1.3c3.2-0.8,4.4-2.6,4.3-5.8
		c-0.1-1.7-0.3-3.4-0.6-5.1c-0.4-2.3-1.7-3.4-4-3.5c-2-0.1-4.1,0.1-6.1-0.2c-3.3-0.5-6.1-1.9-8.1-4.7c-1.4-1.9-3.2-3.5-4.8-5.2
		c-1.2-1.3-2.2-2.6-2.5-4.5c-0.2-1.5-1-2.8-1.6-4.3c-1.8-4.9-2.2-10-1.8-15.1c0.9-11,1.9-22.1,2.9-33.1c0.1-1.2,0.2-2.4,0.3-3.5
		c-0.1,0-0.2-0.1-0.3-0.1c-0.6,1.9-1.2,3.8-1.7,5.7c-1.8,7.5-3.9,15-4.9,22.7c-0.9,6.5-1.9,13.1-3,19.5c-0.7,3.7-1.8,7.3-2.7,10.9
		c-0.1,0-0.3-0.1-0.4-0.1c0.3-2.2,0.5-4.4,0.8-6.7c2-17.5,3.1-35.1,2.7-52.8c-0.1-3.4,0.1-6.8,0-10.2c0-1.7-0.2-3.3-0.5-5
		c-0.1-0.8-0.7-1.5-1.2-2.1c-0.5-0.6-1.1-0.6-1.9-0.2c-0.8,0.5-1.8,0.8-2.8,0.9c-2.3,0.2-4.5,0.3-6.8,0.1c-2.5-0.1-5.1-0.5-7.6-0.8
		c-1-0.1-1.7,0.3-2.1,1.1c-0.5,1.2-1.1,2.5-1.2,3.8c-0.2,4.3-0.2,8.6-0.2,13c0,20.3,0.1,40.6,0.1,61c0,65,0,130.1,0,195.1
		c0,0.5,0,1,0,1.6c-1.5-0.1-2.9-0.2-4.5-0.3c0-0.5,0-0.9,0-1.4c0-19.7,0-39.4-0.1-59.2c-0.1-53.2-0.1-106.4-0.2-159.6
		c0-7.5,0.2-15-0.1-22.4c-0.3-9.2-1-18.4-1.5-27.5c-0.2-2.8-0.4-5.7-0.6-8.5c-0.1-0.9-0.4-1.5-1-2.2c-1-1.1-1.8-2.4-2.4-3.7
		c-2.6-5.3-2.5-10.6-0.3-16c0.8-2,2.1-3.8,3-5.7c0.4-0.9,0.7-1.9,0.8-2.8c0.9-7.1,2.1-14.1,2.1-21.2c0-1.9-0.1-3.8-0.3-5.6
		c-0.4-2.7-1.7-4.1-4.4-4.2c-3.8-0.2-7.7-0.2-11.5-0.2c-25.3,0-50.6,0.1-76,0.1c-15.1,0-30.2,0-45.4,0.1c-2.3,0-4.6,0.3-6.9,0.8
		C13.2,72.5,9.8,78,9.1,84.4c-0.4,3.8,0.5,7.3,2.8,10.3c2,2.7,4.1,5.2,6.6,7.4c3.6,3.3,8,4.3,12.6,2.9c6.6-2,12.4-5.4,17.1-10.6
		c2.1-2.3,3.4-5,4.1-8c0.1-0.5,0.3-1.1,0.5-1.6c0.8-2,2.2-2.7,4.3-2.1c1.5,0.5,2.1,1.4,2.1,3.1c0,3.3-0.8,6.3-2.6,9.1
		c-3.9,6.1-9.4,10.4-15.8,13.6c-3.3,1.7-6.8,2.9-10.5,3.5c-5.5,0.9-10.4-0.3-14.9-3.5c-5.8-4.1-9.9-9.5-12.2-16.2
		c-3-8.8-0.2-17.8,7.3-23.7c5.1-4,10.9-5.8,17.3-5.9c12.1-0.1,24.2-0.1,36.2-0.1c27.3,0,54.6,0.1,82,0.1c4,0,8.1,0,12.1-0.1
		c0.5,0,1-0.1,1.5-0.2c3.6-0.7,5.2-2.6,5.5-6.2c0.1-0.9,0-1.9-0.1-2.9c-0.6-5.6-0.5-11.3,0.1-16.9c0.8-6.9,4.3-10.4,11.1-11.8
		c3.4-0.7,6.9-0.9,10.3,0c6.7,1.7,10.3,6.4,11.9,12.9c0.1,0.6,0.3,1.2,0.4,1.9c0.4-0.3,0.7-0.6,0.9-0.8C208.9,30,218,21.1,227,12.2
		c2.1-2,4.1-4.1,6.1-6.3c1.8-2,3.9-3.6,6.6-4.1C240,1.9,240.2,1.9,240.5,1.9z M250,95.8C250,95.8,250,95.8,250,95.8
		c-14.6,0-29.3,0-43.9,0c-1.1,0-2.2,0.1-3.2,0.3c-1.7,0.3-2.5,1.3-2.5,3c0.1,1.5,0.3,2.9,0.6,4.4c2.8,13.3,4.4,26.7,4.7,40.3
		c0.3,11.4-1.1,22.6-2.3,33.8c-0.8,7.3-1.1,14.7,0.4,22c1,5,1.9,10.1,5.4,14.1c1.8,2,3.6,4,6.2,5.1c4.3,1.7,8.8,2.3,13.4,1.9
		c7.5-0.8,14.9-1.8,22.4-2.3c8.5-0.6,17.1-0.4,25.6,1c7.6,1.3,13.4-1,17.8-7.3c5-7.1,7.5-15,8.3-23.6c0.6-6.2-0.1-12.4-0.8-18.5
		c-1.3-12.7-2.8-25.3-3.9-38.1c-0.7-7.8-0.4-15.6,0.5-23.4c0.3-2.8,0.8-5.6,1.1-8.4c0.3-2.5-0.7-3.8-3.2-4.1
		c-1.1-0.1-2.2-0.2-3.2-0.2C279,95.8,264.5,95.8,250,95.8z M267.6,392.2c-1.3-0.2-2.6-0.6-3.2-1.9c-0.4-0.9-0.5-1.8-0.6-2.8
		c-0.2-4.7-0.4-9.4-0.6-14.1c0-0.8-0.1-1.7-0.6-2.3c-2.9-3.4-3.8-7.5-3.9-11.8c-0.4-15.5-0.7-31-0.1-46.5c0.1-2-0.2-4-0.6-5.9
		c-0.7-3.8-2-7.4-1.8-11.3c0.1-2.2-0.6-2.9-2.8-3c-1.8-0.1-3.6-0.2-5.4-0.4c-1.3-0.1-2.1-1.1-2.3-2.6c-0.1-1.2,0.6-1.8,1.6-2
		c1.2-0.3,2.3-0.5,3.5-0.6c1.7-0.3,3.4-0.4,4.9-1.7c2.9-2.6,4.6-5.9,5.4-9.5c1-4.6,1.8-9.3,2.7-13.9c1.2-5.6,0.2-10.4-4.7-13.9
		c-1.2-0.9-1.2-1.9-0.2-3.1c1.2-1.4,1.6-3.1,1.8-4.9c0.2-2.8-0.9-4.3-3.6-4.9c-2.6-0.6-5.2-0.1-7.6,0.8c-2.1,0.8-2.9,2-2.7,4.2
		c0.1,0.8,0.3,1.6,0.7,2.4c1.2,2.8,1.5,5.6,1.1,8.6c-0.6,5.1-2,10-1.6,15.2c0.2,2.1-1.2,3.6-3.3,4.2c-2.4,0.8-4.9,0.7-7.4,0.3
		c-3.6-0.6-4.8-2.1-4.7-5.8c0-1.6-0.1-3.3-0.4-4.9c-1-5.4-2.4-10.7-0.7-16.2c0.6-1.9-0.7-3.3-2.7-3.7c-0.7-0.1-1.5-0.2-2.3-0.1
		c-1.9,0.2-3.9,0.6-5.8,0.9c-6.3,1.1-12.6,1.7-18.9,0c-1.6-0.4-2.6,0.4-2.8,2.1c-0.2,1.5-0.2,3-0.2,4.5c0,31.7,0,63.3,0,95
		c0,21.4,0,42.8,0,64.2c0,0.5,0,0.9,0,1.6c0.5-0.4,0.8-0.6,1.1-0.8c1.2-1.4,2.5-2.8,3.6-4.4c1.4-1.9,2.9-3.6,4.9-4.8
		c3.2-1.9,6.7-2.9,10.4-2.9c4.7,0,9.5,0.1,14.2,0.5c2.4,0.2,4.7,0.9,7,1.5c3,0.8,6,1.8,9.3,1.7c4.7-0.1,9.4,0.3,14-0.9
		C265.7,397.7,267.9,395.4,267.6,392.2z M264.8,69.5c0,0.7,0,1.1,0,1.5c-0.4,2.5-1.1,5.1-2.9,6.8c-1.9,1.8-4.4,2.8-6.6,4.2
		c-0.2,0.1-0.5,0.1-0.7,0.2c-1.2,0.2-2.4,0.4-3.7,0.5c-1.8,0.1-3.6,0.2-5.4,0c-5.6-0.9-9.7-4.1-13.1-8.4c-0.2-0.2-0.3-0.5-0.3-0.7
		c0-1.3-0.5-1.9-1.8-1.8c-3.5,0.1-7,0.3-10.5,0.5c-4.1,0.2-8.3,0.3-12.4,0.5c-0.3,0-0.6,0.1-0.9,0.2c-1.7,0.6-3.3,1.3-5,1.8
		c-1.3,0.4-2.2,1.1-2.7,2.2c-0.6,1.3-1.2,2.7-1.5,4.1c-0.5,2.9,0.3,5.7,1.1,8.5c1,3.6,2.4,4.6,6.1,4.4c1.9-0.1,3.7-0.5,5.6-0.5
		c22,0,43.9,0.1,65.9,0.1c4,0,8.1,0,12.1,0c2.9,0,5.8-0.1,8.5-1.1c2.9-1,4.5-3.1,4.8-6.1c0.3-3.3-0.2-6.5-1.4-9.5
		c-1-2.8-3.1-4.7-6.1-5.2c-2.8-0.5-5.7-0.6-8.5-0.8c-1.3-0.1-2.6,0-3.8-0.1c-2-0.2-4-0.4-5.9-0.6c-1-0.1-1.9,0-2.9-0.1
		C270.2,69.8,267.6,69.6,264.8,69.5z M193.6,56.2c-0.5,0.3-0.8,0.4-1,0.6c-1.7,1.3-3.5,2.7-5.2,4.1c-0.9,0.7-1.7,1.4-2.9,1
		c-3-0.8-3.8-4-1.7-6.2c1.8-1.9,3.7-3.7,5.6-5.6c1.2-1.2,2.4-2.3,3.4-3.5c4.9-6,1.9-16.1-6.6-17.2c-3.6-0.5-7.2-0.1-10.6,1.2
		c-2.9,1.1-4.5,3.4-4.9,6.4c-0.1,1-0.2,2-0.2,3c-0.1,17.2-0.1,34.4-0.2,51.6c0,2.7,0.1,5.4,1.1,8c0.4,1,1,1.7,2.1,1.7
		c2.2,0.1,4.4,0.1,6.6,0.1c3.7-0.1,7.3-0.7,11,0.3c2.7,0.7,4.2-0.9,3.5-3.7c-1.7-7.1-1.5-14.3-1-21.6c0.4-6,0.7-12,1-18.1
		C193.7,57.7,193.6,57,193.6,56.2z M245.7,36.3c-0.3-3.6-0.4-6.7-0.9-9.7c-0.8-4.6-1.7-9.1-2.9-13.6c-0.6-2.6-2.4-2.9-4.4-1.3
		c-0.2,0.1-0.3,0.3-0.4,0.4c-12.5,12.4-25.1,24.8-37.5,37.3c-0.8,0.8-1.4,2.1-1.7,3.2c-0.8,3,0,5.9,1.1,8.8c0.4,1.1,1.4,1.5,2.5,1.6
		c0.8,0.1,1.5,0,2.3,0c5.1-0.4,10.1-0.8,15.2-1.2c3.1-0.3,6.1-0.6,9.2-1c1.8-0.2,3.6-0.5,5.4-0.7c0.3,0,0.6-0.2,0.8-0.3
		c0.7-0.7,1.4-1.4,2.1-2.2c2.2-2.3,4.4-4.6,6.5-7c0.9-1.1,1.7-2.5,1.8-3.8C245.3,43.2,245.4,39.5,245.7,36.3z M313.5,69.3
		c-1,0.1-2,0.2-2.9,0.3c-3.2,0.3-6.6,3.8-4.2,8c0.9,1.6,2.1,3,3,4.5c1.1,1.8,2.2,3.7,3,5.7c1.5,3.8,3.7,7.1,6.7,9.8
		c4.1,3.6,8.9,5.8,14.1,7.4c2.2,0.6,4.4,0.6,6.5,0.1c6.8-1.7,11.3-6.1,14-12.3c1.4-3.1,2.1-6.4,1.3-9.8c-1.6-6.9-6.3-10.8-12.9-12.2
		c-3.7-0.8-7.7-0.6-11.6-0.7c-3.3-0.1-6.7,0.1-10,0C318.2,69.9,315.8,69.6,313.5,69.3z M277.8,331.8
		C277.8,331.8,277.8,331.8,277.8,331.8c-0.1-3.8-0.1-7.6-0.1-11.4c0-4.5,0.2-9,0.2-13.6c0-3.3-1.4-5.2-4.2-5.7
		c-2.9-0.6-5.8-0.5-8.7,0.2c-2.1,0.5-3.3,1.9-3.6,4c-0.2,1.3-0.2,2.5-0.2,3.8c0,6.1,0.2,12.2,0.1,18.2c-0.1,12.4-0.4,24.7,1,37
		c0.1,1.3,0.4,2.6,1,3.7c2.1,4,3.1,8.1,2.7,12.6c-0.1,0.7-0.2,1.4-0.1,2c0.4,1.8,0.8,3.7,1.4,5.4c0.6,1.4,2.5,1.6,3.2,0.4
		c0.6-1.1,1.2-2.3,1.3-3.5c0.1-5.5,1.6-10.7,3.1-15.9c1.6-5.3,2.9-10.7,2.9-16.3C277.8,345.7,277.8,338.7,277.8,331.8z M306.7,174.7
		c-0.1,0-0.2,0-0.4,0c0,0.8,0.1,1.6,0,2.4c-0.4,5.1-0.6,10.1-1.3,15.2c-1.2,8.4-4.3,16.1-9.4,22.9c-2.6,3.4-5.9,5.8-10.1,6.5
		c-1.5,0.3-3,0.3-4.5,0.6c-1.7,0.3-3,1.3-3.2,3.1c-0.1,1.7,0,3.4,0.3,5.1c0.4,1.9,1.7,3.1,3.7,3.5c1.3,0.3,2.7,0.4,4,0.4
		c7.5,0,15-0.6,22.3-2.4c2.7-0.7,5.4-1.3,7.6-3c0.7-0.6,1.1-1.2,1.1-2.1c-0.3-4.1-0.4-8.1-0.9-12.2c-0.9-7.8-2.7-15.3-4.7-22.9
		C309.8,186.1,308.2,180.4,306.7,174.7z M254.7,55.5c-0.3,0.7-0.6,1.1-0.7,1.5c-0.7,2.1-1.5,4.3-2.2,6.4c-0.4,1.1-1.2,1.7-2.3,1.8
		c-2.5,0.3-4-1-4.2-3.5c-0.1-1.1-0.2-2.2-0.5-3.3c-0.2-0.9-0.9-1.2-1.6-0.6c-1.2,1-2.4,2-3.4,3.1c-1,1.1-1.8,2.5-2.8,3.5
		c-1.6,1.7-2.2,4-1.2,6.2c2.1,4.4,5.7,6.8,10.3,7.8c1.7,0.4,3.6,1,5.1,0.6c2.2-0.7,4.8-1,6.4-3.3c1.1-1.6,2.5-2.9,3.6-4.5
		c1.7-2.5,0.8-5.3,0.4-7.9c-0.2-1.2-0.8-2.4-1.6-3.3C258.3,58.5,256.5,57.2,254.7,55.5z M275.3,230.3c0-1,0.1-2.7,0-4.3
		c-0.2-2.1-1.3-3.7-3.4-4.2c-2.1-0.4-4.3-0.6-6.4-0.5c-2.4,0.1-3.5,1.4-3.3,3.8c0.2,2.7,0.4,5.4,0.8,8.1c0.4,2.8,0.7,5.5-0.3,8.3
		c-0.3,0.7-0.3,1.6-0.3,2.4c-0.1,2.5,1.1,3.9,3.6,4.1c2.5,0.2,4.9,0.2,7.4,0.3c0.2,0,0.5,0,0.7-0.1c1.5-0.2,2.6-1,2.7-2.6
		c0.1-1.5,0-3-0.4-4.5C275.5,237.7,275.1,234.3,275.3,230.3z M239.7,268.6c0,0,0-0.1,0-0.1c0.6,0,1.1-0.1,1.7-0.1
		c2.8-0.1,3.8-1.3,4-4c0.2-3.9,0.5-7.7,0.6-11.6c0.1-1.7,0-3.4-0.2-5c-0.2-1.4-1.7-2.4-2.8-2.4c-2.2,0-4.4,0-6.7-0.2
		c-0.9-0.1-1.4,0.1-1.9,0.8c-2.3,3.2-2.3,6.7-1.5,10.3c0.8,3.6,2.1,7,2.1,10.8c0,0.4,0.7,1.1,1.2,1.2
		C237.4,268.5,238.6,268.5,239.7,268.6z M231.7,230.8C231.7,230.8,231.7,230.8,231.7,230.8c-0.1,1.3-0.2,2.6-0.1,3.8
		c0.3,2.3,0.9,4.5,1.4,6.8c0.2,0.7,0.6,1.1,1.4,1.1c2.2,0,4.5,0.2,6.7-0.2c4-0.6,4.5-0.1,4.2-4.7c-0.2-4.4-0.9-8.7-1.5-13.1
		c-0.2-1.8-1.3-2.7-3.1-2.7c-2.4,0.1-4.7,0.2-7.1,0.4c-1.7,0.2-2.3,1.1-2.2,2.8C231.5,226.9,231.6,228.8,231.7,230.8z M289.6,288.7
		c0-0.1,0-0.3-0.1-0.4c-0.4,0-0.8,0-1.3,0c-4.5-0.1-9-0.3-13.5-0.5c-8.5-0.3-16.9-0.6-25.3,1c-0.5,0.1-1,0.2-1.5,0.3
		c0,0.2,0,0.3,0,0.5c0.8,0.2,1.6,0.5,2.3,0.5c1.3,0,2.6-0.2,3.8-0.1c2.2,0,3.7,0.9,4.1,2.9c0.5,2,1.8,3,3.5,3.7c3,1.3,6.2,2,9.4,2.2
		c2.1,0.1,4.1-0.1,6.2-0.3c0.9-0.1,1.7-0.5,1.8-1.6c0.3-3.9,2.5-6.1,6.3-7C286.8,289.6,288.2,289.1,289.6,288.7z M269,264.2
		c-1.2,1.7-2.3,3.2-3.5,4.7c-2.9,3.8-3.5,8-2.7,12.6c0.4,2.3,1.7,3.8,3.8,4c2,0.2,4.2,0.1,6.2-0.3c2.5-0.5,3.7-2.3,3.6-4.9
		c0-0.8-0.2-1.6-0.2-2.4C276.4,272,273.6,267.7,269,264.2z M194.9,77.8c0.9-1,1.9-2,2.7-3.1c1.7-2.3,4.2-3.2,6.7-3.9
		c2.5-0.7,5.2-0.9,7.9-1c3.8-0.2,7.7,0.2,11.6-0.5c2.1-0.3,4.2-0.1,6.3-0.1c0.4,0,0.8-0.1,1.1-0.1c0.6-2.1,1.1-4.1,1.8-6.3
		c-2.9,0.2-5.6,0.5-8.3,0.7c-4.7,0.4-9.4,0.7-14.1,1.2c-4.1,0.4-7.9,1.6-11.4,3.8C195.9,70.7,194.6,73.9,194.9,77.8z M264.9,67.9
		c1.2,0,2.3,0,3.3,0c1.3,0,2.6-0.1,4,0c3.4,0.3,6.9,0.7,10.3,1c2.7,0.2,5.3,0.3,8,0.4c1.5,0.1,3,0.1,4.4,0.4
		c4.5,0.8,7.3,3.8,7.5,8.5c0.2,6.2,0.2,12.5,0.2,18.7c0,0.2,0,0.4,0,0.6c0,0.2,0.1,0.4,0.1,0.6c1.5-6.6,2.6-13.3,2.1-20.1
		c-0.5-6.5-3.7-10.6-10.1-11.7c-4.3-0.8-8.7-0.9-13.1-1.2c-5.8-0.4-11.6-0.9-16.9-3.4c-0.1,0-0.2,0-0.1,0
		C264.7,63.8,264.8,65.7,264.9,67.9z M251.7,233.3c1.8-0.1,3.7-0.2,5.7-0.5c2.2-0.3,3.1-1.4,3.1-3.7c0-1.2,0-2.3,0-3.5
		c0-2.8-1.3-4.4-4-4.5c-2.4-0.1-4.8,0.2-7.2,0.5c-1.7,0.2-2.6,1.4-2.6,3.1c0,1.7,0.2,3.4,0.5,5.1
		C247.5,232.4,248.8,233.4,251.7,233.3z M265.7,255.9c0,0.9,0,1.8,0,2.6c0.1,2.1,1.4,3.1,3.9,3.1c2.2,0,3.2-0.9,3.3-3
		c0.1-1.8,0.1-3.6,0-5.4c-0.1-1.4-0.7-2.2-2-2.5c-0.8-0.2-1.7-0.3-2.6-0.2c-1.7,0.2-2.5,1.1-2.6,2.7
		C265.6,254.1,265.7,255,265.7,255.9z"/>
	<path class="st1" d="M250,95.8c14.5,0,29,0,43.4,0c1.1,0,2.2,0,3.2,0.2c2.5,0.3,3.5,1.7,3.2,4.1c-0.3,2.8-0.8,5.6-1.1,8.4
		c-0.9,7.8-1.1,15.6-0.5,23.4c1.1,12.7,2.5,25.4,3.9,38.1c0.6,6.2,1.3,12.3,0.8,18.5c-0.8,8.6-3.3,16.5-8.3,23.6
		c-4.4,6.3-10.2,8.5-17.8,7.3c-8.5-1.4-17.1-1.6-25.6-1c-7.5,0.5-14.9,1.6-22.4,2.3c-4.6,0.5-9.1-0.1-13.4-1.9
		c-2.7-1.1-4.4-3.1-6.2-5.1c-3.5-4-4.4-9.1-5.4-14.1c-1.4-7.3-1.2-14.7-0.4-22c1.2-11.2,2.6-22.5,2.3-33.8c-0.3-13.6-2-27-4.7-40.3
		c-0.3-1.4-0.5-2.9-0.6-4.4c-0.1-1.7,0.8-2.7,2.5-3c1-0.2,2.1-0.3,3.2-0.3C220.7,95.7,235.4,95.7,250,95.8
		C250,95.8,250,95.8,250,95.8z"/>
	<path class="st1" d="M277.8,331.8c0,7-0.1,13.9,0,20.9c0.1,5.6-1.3,11-2.9,16.3c-1.5,5.2-3,10.4-3.1,15.9c0,1.2-0.7,2.4-1.3,3.5
		c-0.7,1.2-2.6,1-3.2-0.4c-0.7-1.7-1-3.6-1.4-5.4c-0.1-0.6,0-1.4,0.1-2c0.3-4.5-0.6-8.6-2.7-12.6c-0.6-1.1-0.8-2.4-1-3.7
		c-1.5-12.3-1.1-24.7-1-37c0.1-6.1-0.1-12.2-0.1-18.2c0-1.3,0-2.6,0.2-3.8c0.3-2.1,1.6-3.5,3.6-4c2.9-0.7,5.8-0.8,8.7-0.2
		c2.8,0.6,4.2,2.4,4.2,5.7c0,4.5-0.1,9-0.2,13.6C277.7,324.2,277.7,328,277.8,331.8C277.8,331.8,277.8,331.8,277.8,331.8z"/>
	<path class="st1" d="M275.3,230.3c-0.2,4.1,0.2,7.5,1.1,10.8c0.3,1.4,0.5,3,0.4,4.5c-0.1,1.6-1.1,2.4-2.7,2.6
		c-0.2,0-0.5,0.1-0.7,0.1c-2.5-0.1-4.9-0.1-7.4-0.3c-2.5-0.2-3.7-1.6-3.6-4.1c0-0.8,0.1-1.6,0.3-2.4c1-2.7,0.6-5.5,0.3-8.3
		c-0.4-2.7-0.6-5.4-0.8-8.1c-0.1-2.4,0.9-3.7,3.3-3.8c2.1-0.1,4.3,0.1,6.4,0.5c2.1,0.4,3.2,2,3.4,4.2
		C275.4,227.6,275.3,229.3,275.3,230.3z"/>
	<path class="st1" d="M239.7,268.6c-1.2-0.1-2.3-0.1-3.4-0.3c-0.5-0.1-1.2-0.8-1.2-1.2c0-3.8-1.3-7.2-2.1-10.8
		c-0.8-3.6-0.8-7.1,1.5-10.3c0.5-0.7,1-0.9,1.9-0.8c2.2,0.2,4.4,0.2,6.7,0.2c1.1,0,2.6,1.1,2.8,2.4c0.3,1.6,0.3,3.3,0.2,5
		c-0.1,3.9-0.4,7.7-0.6,11.6c-0.1,2.7-1.2,3.9-4,4c-0.6,0-1.1,0.1-1.7,0.1C239.7,268.5,239.7,268.5,239.7,268.6z"/>
	<path class="st1" d="M231.7,230.8c-0.1-1.9-0.2-3.8-0.3-5.7c-0.1-1.7,0.5-2.6,2.2-2.8c2.3-0.2,4.7-0.4,7.1-0.4
		c1.8,0,2.9,0.8,3.1,2.7c0.6,4.4,1.3,8.7,1.5,13.1c0.3,4.5-0.2,4-4.2,4.7c-2.2,0.3-4.4,0.1-6.7,0.2c-0.8,0-1.2-0.4-1.4-1.1
		c-0.5-2.2-1-4.5-1.4-6.8C231.5,233.3,231.6,232,231.7,230.8C231.7,230.8,231.7,230.8,231.7,230.8z"/>
	<path class="st1" d="M289.6,288.7c-1.4,0.4-2.8,0.9-4.2,1.2c-3.7,0.9-6,3.1-6.3,7c-0.1,1.1-0.9,1.5-1.8,1.6
		c-2.1,0.2-4.1,0.4-6.2,0.3c-3.2-0.2-6.4-0.9-9.4-2.2c-1.7-0.7-3.1-1.7-3.5-3.7c-0.5-2-1.9-2.9-4.1-2.9c-1.3,0-2.6,0.2-3.8,0.1
		c-0.8,0-1.6-0.3-2.3-0.5c0-0.2,0-0.3,0-0.5c0.5-0.1,1-0.2,1.5-0.3c8.4-1.7,16.8-1.3,25.3-1c4.5,0.2,9,0.3,13.5,0.5
		c0.4,0,0.8,0,1.3,0C289.6,288.4,289.6,288.5,289.6,288.7z"/>
	<path class="st1" d="M269,264.2c4.6,3.5,7.4,7.8,7.3,13.7c0,0.8,0.1,1.6,0.2,2.4c0.1,2.6-1.1,4.4-3.6,4.9c-2,0.4-4.1,0.5-6.2,0.3
		c-2.2-0.2-3.4-1.7-3.8-4c-0.8-4.6-0.2-8.8,2.7-12.6C266.7,267.4,267.8,265.9,269,264.2z"/>
	<path class="st1" d="M265.7,255.9c0-0.9,0-1.8,0-2.6c0.1-1.7,0.9-2.6,2.6-2.7c0.9-0.1,1.8,0,2.6,0.2c1.3,0.3,1.9,1.1,2,2.5
		c0.1,1.8,0.1,3.6,0,5.4c-0.1,2.2-1.1,3-3.3,3c-2.5,0-3.7-1-3.9-3.1C265.6,257.6,265.7,256.7,265.7,255.9z"/>
</g>
<g id="Shape_1">
	<g>
		<path class="st2" d="M189.8,226.3l5-48.5l-5,21.6l-2.2,14.2c0,0,0,3.9,0,7.7c0,3.4,0,6.7,0,6.7l2.9,7.9l3.6,1.2l-2.9-5.5
			L189.8,226.3z"/>
	</g>
</g>
<polygon class="st0" points="287.9,158.1 266.8,170.7 254.8,180.2 "/>
<polygon class="st0" points="287.9,170.7 274.9,177.3 264.5,181.8 254.8,192.2 "/>
<polygon class="st0" points="289.9,183.9 280,192.2 262.8,200.8 "/>
</svg>
